<mxfile host="app.diagrams.net" modified="2024-05-02T10:52:16.262Z" agent="Mozilla/5.0 (Windows NT 10.0; Win64; x64) AppleWebKit/537.36 (KHTML, like Gecko) Chrome/124.0.0.0 Safari/537.36" etag="sXkUp5WeSsNmxvpT6uWU" version="24.3.1" type="google">
  <diagram id="C5RBs43oDa-KdzZeNtuy" name="Page-1">
    <mxGraphModel grid="1" page="1" gridSize="10" guides="1" tooltips="1" connect="1" arrows="1" fold="1" pageScale="1" pageWidth="1169" pageHeight="827" math="0" shadow="0">
      <root>
        <mxCell id="WIyWlLk6GJQsqaUBKTNV-0" />
        <mxCell id="WIyWlLk6GJQsqaUBKTNV-1" parent="WIyWlLk6GJQsqaUBKTNV-0" />
        <mxCell id="zkfFHV4jXpPFQw0GAbJ--0" value="Launcher" style="swimlane;fontStyle=1;align=center;verticalAlign=top;childLayout=stackLayout;horizontal=1;startSize=26;horizontalStack=0;resizeParent=1;resizeLast=0;collapsible=1;marginBottom=0;rounded=0;shadow=0;strokeWidth=1;fontFamily=Helvetica;fillColor=#fff2cc;strokeColor=default;" vertex="1" parent="WIyWlLk6GJQsqaUBKTNV-1">
          <mxGeometry x="455" y="-83.5" width="240" height="261" as="geometry">
            <mxRectangle x="230" y="140" width="160" height="26" as="alternateBounds" />
          </mxGeometry>
        </mxCell>
        <mxCell id="Uae3hpyTgPKv66pRuo5L-22" value="jointSyncTimer : Timer&#xa;&#xa;" style="text;align=left;verticalAlign=top;spacingLeft=4;spacingRight=4;overflow=hidden;rotatable=0;points=[[0,0.5],[1,0.5]];portConstraint=eastwest;rounded=0;shadow=0;html=0;fontFamily=Helvetica;fillColor=#fff2cc;strokeColor=none;" vertex="1" parent="zkfFHV4jXpPFQw0GAbJ--0">
          <mxGeometry y="26" width="240" height="26" as="geometry" />
        </mxCell>
        <mxCell id="zkfFHV4jXpPFQw0GAbJ--1" value="virtualRobot : VirtualRobot" style="text;align=left;verticalAlign=top;spacingLeft=4;spacingRight=4;overflow=hidden;rotatable=0;points=[[0,0.5],[1,0.5]];portConstraint=eastwest;fontFamily=Helvetica;fillColor=#fff2cc;strokeColor=none;" vertex="1" parent="zkfFHV4jXpPFQw0GAbJ--0">
          <mxGeometry y="52" width="240" height="26" as="geometry" />
        </mxCell>
        <mxCell id="zkfFHV4jXpPFQw0GAbJ--2" value="realRobot : RealRobot" style="text;align=left;verticalAlign=top;spacingLeft=4;spacingRight=4;overflow=hidden;rotatable=0;points=[[0,0.5],[1,0.5]];portConstraint=eastwest;rounded=0;shadow=0;html=0;fontFamily=Helvetica;fillColor=#fff2cc;strokeColor=none;" vertex="1" parent="zkfFHV4jXpPFQw0GAbJ--0">
          <mxGeometry y="78" width="240" height="26" as="geometry" />
        </mxCell>
        <mxCell id="zkfFHV4jXpPFQw0GAbJ--3" value="activeProgram : Program" style="text;align=left;verticalAlign=top;spacingLeft=4;spacingRight=4;overflow=hidden;rotatable=0;points=[[0,0.5],[1,0.5]];portConstraint=eastwest;rounded=0;shadow=0;html=0;fontFamily=Helvetica;fillColor=#fff2cc;strokeColor=none;" vertex="1" parent="zkfFHV4jXpPFQw0GAbJ--0">
          <mxGeometry y="104" width="240" height="26" as="geometry" />
        </mxCell>
        <mxCell id="zkfFHV4jXpPFQw0GAbJ--4" value="" style="line;html=1;strokeWidth=1;align=left;verticalAlign=middle;spacingTop=-1;spacingLeft=3;spacingRight=3;rotatable=0;labelPosition=right;points=[];portConstraint=eastwest;fontFamily=Helvetica;" vertex="1" parent="zkfFHV4jXpPFQw0GAbJ--0">
          <mxGeometry y="130" width="240" height="1" as="geometry" />
        </mxCell>
        <mxCell id="VULX7tIAYO7b19xU93UL-0" value="connect(port: char[])" style="text;align=left;verticalAlign=top;spacingLeft=4;spacingRight=4;overflow=hidden;rotatable=0;points=[[0,0.5],[1,0.5]];portConstraint=eastwest;fontFamily=Helvetica;fillColor=#fff2cc;strokeColor=none;" vertex="1" parent="zkfFHV4jXpPFQw0GAbJ--0">
          <mxGeometry y="131" width="240" height="26" as="geometry" />
        </mxCell>
        <mxCell id="VULX7tIAYO7b19xU93UL-32" value="disconnect()" style="text;align=left;verticalAlign=top;spacingLeft=4;spacingRight=4;overflow=hidden;rotatable=0;points=[[0,0.5],[1,0.5]];portConstraint=eastwest;fontFamily=Helvetica;fillColor=#fff2cc;strokeColor=none;" vertex="1" parent="zkfFHV4jXpPFQw0GAbJ--0">
          <mxGeometry y="157" width="240" height="26" as="geometry" />
        </mxCell>
        <mxCell id="9fABmdIE0lthHS8NyeYr-2" value="syncJointsAndPlot()" style="text;align=left;verticalAlign=top;spacingLeft=4;spacingRight=4;overflow=hidden;rotatable=0;points=[[0,0.5],[1,0.5]];portConstraint=eastwest;fontFamily=Helvetica;fillColor=#fff2cc;strokeColor=none;" vertex="1" parent="zkfFHV4jXpPFQw0GAbJ--0">
          <mxGeometry y="183" width="240" height="26" as="geometry" />
        </mxCell>
        <mxCell id="VULX7tIAYO7b19xU93UL-1" value="launchProgram(program : char[], args)" style="text;align=left;verticalAlign=top;spacingLeft=4;spacingRight=4;overflow=hidden;rotatable=0;points=[[0,0.5],[1,0.5]];portConstraint=eastwest;fontFamily=Helvetica;fillColor=#fff2cc;strokeColor=none;" vertex="1" parent="zkfFHV4jXpPFQw0GAbJ--0">
          <mxGeometry y="209" width="240" height="26" as="geometry" />
        </mxCell>
        <mxCell id="VULX7tIAYO7b19xU93UL-153" value="programTerminationCallback()" style="text;align=left;verticalAlign=top;spacingLeft=4;spacingRight=4;overflow=hidden;rotatable=0;points=[[0,0.5],[1,0.5]];portConstraint=eastwest;fontFamily=Helvetica;fillColor=#fff2cc;strokeColor=none;" vertex="1" parent="zkfFHV4jXpPFQw0GAbJ--0">
          <mxGeometry y="235" width="240" height="26" as="geometry" />
        </mxCell>
        <mxCell id="o5P8ZobGvWAie152_XZ7-41" style="edgeStyle=orthogonalEdgeStyle;rounded=0;orthogonalLoop=1;jettySize=auto;html=1;endSize=16;endArrow=diamondThin;endFill=1;" edge="1" parent="WIyWlLk6GJQsqaUBKTNV-1" source="VULX7tIAYO7b19xU93UL-23" target="VULX7tIAYO7b19xU93UL-47">
          <mxGeometry relative="1" as="geometry" />
        </mxCell>
        <mxCell id="o5P8ZobGvWAie152_XZ7-40" style="edgeStyle=orthogonalEdgeStyle;rounded=0;orthogonalLoop=1;jettySize=auto;html=1;endArrow=diamondThin;endFill=0;strokeWidth=1;endSize=16;" edge="1" parent="WIyWlLk6GJQsqaUBKTNV-1" source="VULX7tIAYO7b19xU93UL-47" target="zkfFHV4jXpPFQw0GAbJ--0">
          <mxGeometry relative="1" as="geometry">
            <Array as="points">
              <mxPoint x="160" y="230" />
              <mxPoint x="575" y="230" />
            </Array>
          </mxGeometry>
        </mxCell>
        <mxCell id="VULX7tIAYO7b19xU93UL-47" value="RealRobot" style="swimlane;fontStyle=1;align=center;verticalAlign=top;childLayout=stackLayout;horizontal=1;startSize=26;horizontalStack=0;resizeParent=1;resizeParentMax=0;resizeLast=0;collapsible=1;marginBottom=0;whiteSpace=wrap;html=1;fontFamily=Helvetica;fillColor=#dae8fc;strokeColor=#000000;" vertex="1" parent="WIyWlLk6GJQsqaUBKTNV-1">
          <mxGeometry x="50" y="253" width="220" height="235" as="geometry" />
        </mxCell>
        <mxCell id="VULX7tIAYO7b19xU93UL-159" value="&lt;span&gt;JOINT_VELOCITY_LIMITS : double[4]&lt;/span&gt;" style="text;strokeColor=none;fillColor=#dae8fc;align=left;verticalAlign=top;spacingLeft=4;spacingRight=4;overflow=hidden;rotatable=0;points=[[0,0.5],[1,0.5]];portConstraint=eastwest;whiteSpace=wrap;html=1;fontStyle=0;fontFamily=Helvetica;" vertex="1" parent="VULX7tIAYO7b19xU93UL-47">
          <mxGeometry y="26" width="220" height="26" as="geometry" />
        </mxCell>
        <mxCell id="VULX7tIAYO7b19xU93UL-116" value="servoZeroAngles : double[4]" style="text;strokeColor=none;fillColor=#dae8fc;align=left;verticalAlign=top;spacingLeft=4;spacingRight=4;overflow=hidden;rotatable=0;points=[[0,0.5],[1,0.5]];portConstraint=eastwest;whiteSpace=wrap;html=1;fontFamily=Helvetica;" vertex="1" parent="VULX7tIAYO7b19xU93UL-47">
          <mxGeometry y="52" width="220" height="26" as="geometry" />
        </mxCell>
        <mxCell id="VULX7tIAYO7b19xU93UL-117" value="servoChain : ServoChain" style="text;strokeColor=none;fillColor=#dae8fc;align=left;verticalAlign=top;spacingLeft=4;spacingRight=4;overflow=hidden;rotatable=0;points=[[0,0.5],[1,0.5]];portConstraint=eastwest;whiteSpace=wrap;html=1;fontFamily=Helvetica;" vertex="1" parent="VULX7tIAYO7b19xU93UL-47">
          <mxGeometry y="78" width="220" height="26" as="geometry" />
        </mxCell>
        <mxCell id="VULX7tIAYO7b19xU93UL-49" value="" style="line;strokeWidth=1;fillColor=none;align=left;verticalAlign=middle;spacingTop=-1;spacingLeft=3;spacingRight=3;rotatable=0;labelPosition=right;points=[];portConstraint=eastwest;strokeColor=inherit;fontFamily=Helvetica;" vertex="1" parent="VULX7tIAYO7b19xU93UL-47">
          <mxGeometry y="104" width="220" height="1" as="geometry" />
        </mxCell>
        <mxCell id="Uae3hpyTgPKv66pRuo5L-21" value="RealRobot(port: char[])" style="text;strokeColor=none;fillColor=#dae8fc;align=left;verticalAlign=top;spacingLeft=4;spacingRight=4;overflow=hidden;rotatable=0;points=[[0,0.5],[1,0.5]];portConstraint=eastwest;whiteSpace=wrap;html=1;fontFamily=Helvetica;" vertex="1" parent="VULX7tIAYO7b19xU93UL-47">
          <mxGeometry y="105" width="220" height="26" as="geometry" />
        </mxCell>
        <mxCell id="VULX7tIAYO7b19xU93UL-50" value="getJointAngles() : double[4]" style="text;strokeColor=none;fillColor=#dae8fc;align=left;verticalAlign=top;spacingLeft=4;spacingRight=4;overflow=hidden;rotatable=0;points=[[0,0.5],[1,0.5]];portConstraint=eastwest;whiteSpace=wrap;html=1;fontFamily=Helvetica;" vertex="1" parent="VULX7tIAYO7b19xU93UL-47">
          <mxGeometry y="131" width="220" height="26" as="geometry" />
        </mxCell>
        <mxCell id="VULX7tIAYO7b19xU93UL-115" value="setJointVelocities(q_dot : double[4])" style="text;strokeColor=none;fillColor=#dae8fc;align=left;verticalAlign=top;spacingLeft=4;spacingRight=4;overflow=hidden;rotatable=0;points=[[0,0.5],[1,0.5]];portConstraint=eastwest;whiteSpace=wrap;html=1;fontFamily=Helvetica;" vertex="1" parent="VULX7tIAYO7b19xU93UL-47">
          <mxGeometry y="157" width="220" height="26" as="geometry" />
        </mxCell>
        <mxCell id="Uae3hpyTgPKv66pRuo5L-1" value="setRobotTorque(state : bool)" style="text;strokeColor=none;fillColor=#dae8fc;align=left;verticalAlign=top;spacingLeft=4;spacingRight=4;overflow=hidden;rotatable=0;points=[[0,0.5],[1,0.5]];portConstraint=eastwest;whiteSpace=wrap;html=1;fontFamily=Helvetica;" vertex="1" parent="VULX7tIAYO7b19xU93UL-47">
          <mxGeometry y="183" width="220" height="26" as="geometry" />
        </mxCell>
        <mxCell id="Uae3hpyTgPKv66pRuo5L-2" value="zeroAtCurrent()" style="text;strokeColor=none;fillColor=#dae8fc;align=left;verticalAlign=top;spacingLeft=4;spacingRight=4;overflow=hidden;rotatable=0;points=[[0,0.5],[1,0.5]];portConstraint=eastwest;whiteSpace=wrap;html=1;fontFamily=Helvetica;" vertex="1" parent="VULX7tIAYO7b19xU93UL-47">
          <mxGeometry y="209" width="220" height="26" as="geometry" />
        </mxCell>
        <mxCell id="o5P8ZobGvWAie152_XZ7-39" style="edgeStyle=orthogonalEdgeStyle;rounded=0;orthogonalLoop=1;jettySize=auto;html=1;endArrow=diamondThin;endFill=0;endSize=16;" edge="1" parent="WIyWlLk6GJQsqaUBKTNV-1" source="VULX7tIAYO7b19xU93UL-52" target="zkfFHV4jXpPFQw0GAbJ--0">
          <mxGeometry relative="1" as="geometry" />
        </mxCell>
        <mxCell id="VULX7tIAYO7b19xU93UL-52" value="VirtualRobot" style="swimlane;fontStyle=1;align=center;verticalAlign=top;childLayout=stackLayout;horizontal=1;startSize=26;horizontalStack=0;resizeParent=1;resizeParentMax=0;resizeLast=0;collapsible=1;marginBottom=0;whiteSpace=wrap;html=1;fontFamily=Helvetica;fillColor=#d5e8d4;strokeColor=#000000;strokeWidth=1;perimeterSpacing=0;" vertex="1" parent="WIyWlLk6GJQsqaUBKTNV-1">
          <mxGeometry x="465" y="253" width="220" height="261" as="geometry">
            <mxRectangle x="470" y="270" width="110" height="30" as="alternateBounds" />
          </mxGeometry>
        </mxCell>
        <mxCell id="VULX7tIAYO7b19xU93UL-160" value="&lt;span&gt;JOINT_ANGLE_LIMITS: double[4]&lt;/span&gt;" style="text;align=left;verticalAlign=top;spacingLeft=4;spacingRight=4;overflow=hidden;rotatable=0;points=[[0,0.5],[1,0.5]];portConstraint=eastwest;whiteSpace=wrap;html=1;fontStyle=0;fontFamily=Helvetica;fillColor=#d5e8d4;strokeColor=none;strokeWidth=7;" vertex="1" parent="VULX7tIAYO7b19xU93UL-52">
          <mxGeometry y="26" width="220" height="26" as="geometry" />
        </mxCell>
        <mxCell id="VULX7tIAYO7b19xU93UL-151" value="q : double[4]" style="text;align=left;verticalAlign=top;spacingLeft=4;spacingRight=4;overflow=hidden;rotatable=0;points=[[0,0.5],[1,0.5]];portConstraint=eastwest;whiteSpace=wrap;html=1;fontFamily=Helvetica;fillColor=#d5e8d4;strokeColor=none;" vertex="1" parent="VULX7tIAYO7b19xU93UL-52">
          <mxGeometry y="52" width="220" height="26" as="geometry" />
        </mxCell>
        <mxCell id="VULX7tIAYO7b19xU93UL-141" value="frames: Frame[6]" style="text;align=left;verticalAlign=top;spacingLeft=4;spacingRight=4;overflow=hidden;rotatable=0;points=[[0,0.5],[1,0.5]];portConstraint=eastwest;whiteSpace=wrap;html=1;fontFamily=Helvetica;fillColor=#d5e8d4;strokeColor=none;" vertex="1" parent="VULX7tIAYO7b19xU93UL-52">
          <mxGeometry y="78" width="220" height="26" as="geometry" />
        </mxCell>
        <mxCell id="Uae3hpyTgPKv66pRuo5L-3" value="links: Link[4]" style="text;align=left;verticalAlign=top;spacingLeft=4;spacingRight=4;overflow=hidden;rotatable=0;points=[[0,0.5],[1,0.5]];portConstraint=eastwest;whiteSpace=wrap;html=1;fontFamily=Helvetica;fillColor=#d5e8d4;strokeColor=none;" vertex="1" parent="VULX7tIAYO7b19xU93UL-52">
          <mxGeometry y="104" width="220" height="26" as="geometry" />
        </mxCell>
        <mxCell id="Uae3hpyTgPKv66pRuo5L-12" value="workspace: Workspace" style="text;align=left;verticalAlign=top;spacingLeft=4;spacingRight=4;overflow=hidden;rotatable=0;points=[[0,0.5],[1,0.5]];portConstraint=eastwest;whiteSpace=wrap;html=1;fontFamily=Helvetica;fillColor=#d5e8d4;strokeColor=none;" vertex="1" parent="VULX7tIAYO7b19xU93UL-52">
          <mxGeometry y="130" width="220" height="26" as="geometry" />
        </mxCell>
        <mxCell id="Uae3hpyTgPKv66pRuo5L-13" value="trajectory: Trajectory" style="text;align=left;verticalAlign=top;spacingLeft=5;spacingRight=4;overflow=hidden;rotatable=0;points=[[0,0.5],[1,0.5]];portConstraint=eastwest;whiteSpace=wrap;html=1;spacing=2;spacingBottom=7;fillColor=#d5e8d4;strokeColor=none;" vertex="1" parent="VULX7tIAYO7b19xU93UL-52">
          <mxGeometry y="156" width="220" height="26" as="geometry" />
        </mxCell>
        <mxCell id="VULX7tIAYO7b19xU93UL-54" value="" style="line;strokeWidth=1;align=left;verticalAlign=middle;spacingTop=4;spacingLeft=5;spacingRight=6;rotatable=0;labelPosition=right;points=[];portConstraint=eastwest;spacing=8;spacingBottom=5;" vertex="1" parent="VULX7tIAYO7b19xU93UL-52">
          <mxGeometry y="182" width="220" height="1" as="geometry" />
        </mxCell>
        <mxCell id="VULX7tIAYO7b19xU93UL-55" value="forwardKinematics() : double[3]" style="text;align=left;verticalAlign=top;spacingLeft=4;spacingRight=4;overflow=hidden;rotatable=0;points=[[0,0.5],[1,0.5]];portConstraint=eastwest;whiteSpace=wrap;html=1;fontFamily=Helvetica;fillColor=#d5e8d4;strokeColor=none;" vertex="1" parent="VULX7tIAYO7b19xU93UL-52">
          <mxGeometry y="183" width="220" height="26" as="geometry" />
        </mxCell>
        <mxCell id="VULX7tIAYO7b19xU93UL-149" value="getJacobian() : double[3][4]" style="text;align=left;verticalAlign=top;spacingLeft=4;spacingRight=4;overflow=hidden;rotatable=0;points=[[0,0.5],[1,0.5]];portConstraint=eastwest;whiteSpace=wrap;html=1;fontFamily=Helvetica;fillColor=#d5e8d4;strokeColor=none;" vertex="1" parent="VULX7tIAYO7b19xU93UL-52">
          <mxGeometry y="209" width="220" height="26" as="geometry" />
        </mxCell>
        <mxCell id="6zx5_EAEi6br6GddMeWt-3" value="checkSingularity() : bool" style="text;align=left;verticalAlign=top;spacingLeft=4;spacingRight=4;overflow=hidden;rotatable=0;points=[[0,0.5],[1,0.5]];portConstraint=eastwest;whiteSpace=wrap;html=1;fontFamily=Helvetica;fillColor=#d5e8d4;strokeColor=none;" vertex="1" parent="VULX7tIAYO7b19xU93UL-52">
          <mxGeometry y="235" width="220" height="26" as="geometry" />
        </mxCell>
        <mxCell id="o5P8ZobGvWAie152_XZ7-34" style="edgeStyle=orthogonalEdgeStyle;rounded=0;orthogonalLoop=1;jettySize=auto;html=1;endArrow=diamondThin;endFill=1;endSize=16;" edge="1" parent="WIyWlLk6GJQsqaUBKTNV-1" source="VULX7tIAYO7b19xU93UL-56" target="VULX7tIAYO7b19xU93UL-52">
          <mxGeometry relative="1" as="geometry">
            <Array as="points">
              <mxPoint x="390" y="540" />
              <mxPoint x="575" y="540" />
            </Array>
          </mxGeometry>
        </mxCell>
        <mxCell id="VULX7tIAYO7b19xU93UL-56" value="Frame" style="swimlane;fontStyle=1;align=center;verticalAlign=top;childLayout=stackLayout;horizontal=1;startSize=26;horizontalStack=0;resizeParent=1;resizeParentMax=0;resizeLast=0;collapsible=1;marginBottom=0;whiteSpace=wrap;html=1;fontFamily=Helvetica;fillColor=#d5e8d4;strokeColor=#000000;" vertex="1" parent="WIyWlLk6GJQsqaUBKTNV-1">
          <mxGeometry x="290" y="581" width="210" height="253" as="geometry" />
        </mxCell>
        <mxCell id="VULX7tIAYO7b19xU93UL-122" value="parent, childen : Frame" style="text;strokeColor=none;fillColor=#d5e8d4;align=left;verticalAlign=top;spacingLeft=4;spacingRight=4;overflow=hidden;rotatable=0;points=[[0,0.5],[1,0.5]];portConstraint=eastwest;whiteSpace=wrap;html=1;fontFamily=Helvetica;" vertex="1" parent="VULX7tIAYO7b19xU93UL-56">
          <mxGeometry y="26" width="210" height="26" as="geometry" />
        </mxCell>
        <mxCell id="VULX7tIAYO7b19xU93UL-57" value="relativePosition : double[3]" style="text;strokeColor=none;fillColor=#d5e8d4;align=left;verticalAlign=top;spacingLeft=4;spacingRight=4;overflow=hidden;rotatable=0;points=[[0,0.5],[1,0.5]];portConstraint=eastwest;whiteSpace=wrap;html=1;fontFamily=Helvetica;" vertex="1" parent="VULX7tIAYO7b19xU93UL-56">
          <mxGeometry y="52" width="210" height="26" as="geometry" />
        </mxCell>
        <mxCell id="VULX7tIAYO7b19xU93UL-121" value="relativeRotation : double[3][3]" style="text;strokeColor=none;fillColor=#d5e8d4;align=left;verticalAlign=top;spacingLeft=4;spacingRight=4;overflow=hidden;rotatable=0;points=[[0,0.5],[1,0.5]];portConstraint=eastwest;whiteSpace=wrap;html=1;fontFamily=Helvetica;" vertex="1" parent="VULX7tIAYO7b19xU93UL-56">
          <mxGeometry y="78" width="210" height="26" as="geometry" />
        </mxCell>
        <mxCell id="VULX7tIAYO7b19xU93UL-124" value="rotationAxis : char" style="text;strokeColor=none;fillColor=#d5e8d4;align=left;verticalAlign=top;spacingLeft=4;spacingRight=4;overflow=hidden;rotatable=0;points=[[0,0.5],[1,0.5]];portConstraint=eastwest;whiteSpace=wrap;html=1;fontFamily=Helvetica;" vertex="1" parent="VULX7tIAYO7b19xU93UL-56">
          <mxGeometry y="104" width="210" height="26" as="geometry" />
        </mxCell>
        <mxCell id="VULX7tIAYO7b19xU93UL-58" value="" style="line;strokeWidth=1;fillColor=#d5e8d4;align=left;verticalAlign=middle;spacingTop=-1;spacingLeft=3;spacingRight=3;rotatable=0;labelPosition=right;points=[];portConstraint=eastwest;strokeColor=#000000;fontFamily=Helvetica;" vertex="1" parent="VULX7tIAYO7b19xU93UL-56">
          <mxGeometry y="130" width="210" height="1" as="geometry" />
        </mxCell>
        <mxCell id="6zx5_EAEi6br6GddMeWt-0" value="Frame(relativePosition : double[3], parent : Frame, rotationAxis: char)" style="text;strokeColor=none;fillColor=#d5e8d4;align=left;verticalAlign=top;spacingLeft=4;spacingRight=4;overflow=hidden;rotatable=0;points=[[0,0.5],[1,0.5]];portConstraint=eastwest;whiteSpace=wrap;html=1;fontFamily=Helvetica;" vertex="1" parent="VULX7tIAYO7b19xU93UL-56">
          <mxGeometry y="131" width="210" height="44" as="geometry" />
        </mxCell>
        <mxCell id="VULX7tIAYO7b19xU93UL-59" value="updateRotationMatrix(angle : double)" style="text;strokeColor=none;fillColor=#d5e8d4;align=left;verticalAlign=top;spacingLeft=4;spacingRight=4;overflow=hidden;rotatable=0;points=[[0,0.5],[1,0.5]];portConstraint=eastwest;whiteSpace=wrap;html=1;fontFamily=Helvetica;" vertex="1" parent="VULX7tIAYO7b19xU93UL-56">
          <mxGeometry y="175" width="210" height="26" as="geometry" />
        </mxCell>
        <mxCell id="VULX7tIAYO7b19xU93UL-130" value="getGlobalPosition() : double[3]" style="text;strokeColor=none;fillColor=#d5e8d4;align=left;verticalAlign=top;spacingLeft=4;spacingRight=4;overflow=hidden;rotatable=0;points=[[0,0.5],[1,0.5]];portConstraint=eastwest;whiteSpace=wrap;html=1;fontFamily=Helvetica;" vertex="1" parent="VULX7tIAYO7b19xU93UL-56">
          <mxGeometry y="201" width="210" height="26" as="geometry" />
        </mxCell>
        <mxCell id="VULX7tIAYO7b19xU93UL-129" value="getGlobalRotation() : double[3][3]" style="text;strokeColor=none;fillColor=#d5e8d4;align=left;verticalAlign=top;spacingLeft=4;spacingRight=4;overflow=hidden;rotatable=0;points=[[0,0.5],[1,0.5]];portConstraint=eastwest;whiteSpace=wrap;html=1;fontFamily=Helvetica;" vertex="1" parent="VULX7tIAYO7b19xU93UL-56">
          <mxGeometry y="227" width="210" height="26" as="geometry" />
        </mxCell>
        <mxCell id="Uae3hpyTgPKv66pRuo5L-98" style="edgeStyle=orthogonalEdgeStyle;rounded=0;orthogonalLoop=1;jettySize=auto;html=1;endArrow=diamondThin;endFill=1;endSize=16;fillColor=#d5e8d4;strokeColor=#000000;" edge="1" parent="WIyWlLk6GJQsqaUBKTNV-1" target="VULX7tIAYO7b19xU93UL-56">
          <mxGeometry relative="1" as="geometry">
            <mxPoint x="570" y="660" as="sourcePoint" />
            <Array as="points">
              <mxPoint x="570" y="740" />
            </Array>
          </mxGeometry>
        </mxCell>
        <mxCell id="o5P8ZobGvWAie152_XZ7-29" style="edgeStyle=orthogonalEdgeStyle;rounded=0;orthogonalLoop=1;jettySize=auto;html=1;endArrow=diamondThin;endFill=1;endSize=16;fontSize=16;" edge="1" parent="WIyWlLk6GJQsqaUBKTNV-1" source="VULX7tIAYO7b19xU93UL-60" target="VULX7tIAYO7b19xU93UL-52">
          <mxGeometry relative="1" as="geometry" />
        </mxCell>
        <mxCell id="VULX7tIAYO7b19xU93UL-60" value="Link" style="swimlane;fontStyle=1;align=center;verticalAlign=top;childLayout=stackLayout;horizontal=1;startSize=26;horizontalStack=0;resizeParent=1;resizeParentMax=0;resizeLast=0;collapsible=1;marginBottom=0;whiteSpace=wrap;html=1;fontFamily=Helvetica;fillColor=#d5e8d4;strokeColor=default;" vertex="1" parent="WIyWlLk6GJQsqaUBKTNV-1">
          <mxGeometry x="515" y="581" width="120" height="139" as="geometry" />
        </mxCell>
        <mxCell id="VULX7tIAYO7b19xU93UL-61" value="startFrame : Frame" style="text;strokeColor=none;fillColor=#d5e8d4;align=left;verticalAlign=top;spacingLeft=4;spacingRight=4;overflow=hidden;rotatable=0;points=[[0,0.5],[1,0.5]];portConstraint=eastwest;whiteSpace=wrap;html=1;fontFamily=Helvetica;" vertex="1" parent="VULX7tIAYO7b19xU93UL-60">
          <mxGeometry y="26" width="120" height="26" as="geometry" />
        </mxCell>
        <mxCell id="VULX7tIAYO7b19xU93UL-131" value="endFrame : Frame" style="text;strokeColor=none;fillColor=#d5e8d4;align=left;verticalAlign=top;spacingLeft=4;spacingRight=4;overflow=hidden;rotatable=0;points=[[0,0.5],[1,0.5]];portConstraint=eastwest;whiteSpace=wrap;html=1;fontFamily=Helvetica;" vertex="1" parent="VULX7tIAYO7b19xU93UL-60">
          <mxGeometry y="52" width="120" height="26" as="geometry" />
        </mxCell>
        <mxCell id="6zx5_EAEi6br6GddMeWt-1" value="" style="line;strokeWidth=1;fillColor=#d5e8d4;align=left;verticalAlign=middle;spacingTop=-1;spacingLeft=3;spacingRight=3;rotatable=0;labelPosition=right;points=[];portConstraint=eastwest;strokeColor=#000000;fontFamily=Helvetica;" vertex="1" parent="VULX7tIAYO7b19xU93UL-60">
          <mxGeometry y="78" width="120" height="1" as="geometry" />
        </mxCell>
        <mxCell id="6zx5_EAEi6br6GddMeWt-2" value="Link(startFrame : Frame, endFrame : Frame)" style="text;strokeColor=none;fillColor=#d5e8d4;align=left;verticalAlign=top;spacingLeft=4;spacingRight=4;overflow=hidden;rotatable=0;points=[[0,0.5],[1,0.5]];portConstraint=eastwest;whiteSpace=wrap;html=1;fontFamily=Helvetica;" vertex="1" parent="VULX7tIAYO7b19xU93UL-60">
          <mxGeometry y="79" width="120" height="60" as="geometry" />
        </mxCell>
        <mxCell id="o5P8ZobGvWAie152_XZ7-0" style="edgeStyle=orthogonalEdgeStyle;rounded=0;orthogonalLoop=1;jettySize=auto;html=1;endArrow=none;endFill=0;dashed=1;" edge="1" parent="WIyWlLk6GJQsqaUBKTNV-1" source="VULX7tIAYO7b19xU93UL-64">
          <mxGeometry relative="1" as="geometry">
            <mxPoint x="870" y="510" as="targetPoint" />
            <Array as="points">
              <mxPoint x="870" y="560" />
              <mxPoint x="870" y="560" />
            </Array>
          </mxGeometry>
        </mxCell>
        <mxCell id="o5P8ZobGvWAie152_XZ7-32" style="edgeStyle=orthogonalEdgeStyle;rounded=0;orthogonalLoop=1;jettySize=auto;html=1;endArrow=diamondThin;endFill=1;endSize=16;" edge="1" parent="WIyWlLk6GJQsqaUBKTNV-1" source="VULX7tIAYO7b19xU93UL-64" target="VULX7tIAYO7b19xU93UL-52">
          <mxGeometry relative="1" as="geometry">
            <Array as="points">
              <mxPoint x="855" y="540" />
              <mxPoint x="575" y="540" />
            </Array>
          </mxGeometry>
        </mxCell>
        <mxCell id="VULX7tIAYO7b19xU93UL-64" value="Workspace" style="swimlane;fontStyle=1;align=center;verticalAlign=top;childLayout=stackLayout;horizontal=1;startSize=26;horizontalStack=0;resizeParent=1;resizeParentMax=0;resizeLast=0;collapsible=1;marginBottom=0;whiteSpace=wrap;html=1;fontFamily=Helvetica;fillColor=#d5e8d4;strokeColor=default;" vertex="1" parent="WIyWlLk6GJQsqaUBKTNV-1">
          <mxGeometry x="780" y="580" width="150" height="131" as="geometry" />
        </mxCell>
        <mxCell id="VULX7tIAYO7b19xU93UL-133" value="surfaceMesh : int[3][]" style="text;strokeColor=none;fillColor=#d5e8d4;align=left;verticalAlign=top;spacingLeft=4;spacingRight=4;overflow=hidden;rotatable=0;points=[[0,0.5],[1,0.5]];portConstraint=eastwest;whiteSpace=wrap;html=1;fontFamily=Helvetica;" vertex="1" parent="VULX7tIAYO7b19xU93UL-64">
          <mxGeometry y="26" width="150" height="26" as="geometry" />
        </mxCell>
        <mxCell id="VULX7tIAYO7b19xU93UL-65" value="workspacePoints&amp;nbsp;: int[3][]" style="text;strokeColor=none;fillColor=#d5e8d4;align=left;verticalAlign=top;spacingLeft=4;spacingRight=4;overflow=hidden;rotatable=0;points=[[0,0.5],[1,0.5]];portConstraint=eastwest;whiteSpace=wrap;html=1;fontFamily=Helvetica;" vertex="1" parent="VULX7tIAYO7b19xU93UL-64">
          <mxGeometry y="52" width="150" height="26" as="geometry" />
        </mxCell>
        <mxCell id="Uae3hpyTgPKv66pRuo5L-19" value="virtualRobot : VirtualRobot" style="text;strokeColor=none;fillColor=#d5e8d4;align=left;verticalAlign=top;spacingLeft=4;spacingRight=4;overflow=hidden;rotatable=0;points=[[0,0.5],[1,0.5]];portConstraint=eastwest;whiteSpace=wrap;html=1;fontFamily=Helvetica;" vertex="1" parent="VULX7tIAYO7b19xU93UL-64">
          <mxGeometry y="78" width="150" height="26" as="geometry" />
        </mxCell>
        <mxCell id="VULX7tIAYO7b19xU93UL-66" value="" style="line;strokeWidth=1;fillColor=#d5e8d4;align=left;verticalAlign=middle;spacingTop=-1;spacingLeft=3;spacingRight=3;rotatable=0;labelPosition=right;points=[];portConstraint=eastwest;strokeColor=#000000;fontFamily=Helvetica;" vertex="1" parent="VULX7tIAYO7b19xU93UL-64">
          <mxGeometry y="104" width="150" height="1" as="geometry" />
        </mxCell>
        <mxCell id="VULX7tIAYO7b19xU93UL-67" value="calculateWorkspace()" style="text;strokeColor=none;fillColor=#d5e8d4;align=left;verticalAlign=top;spacingLeft=4;spacingRight=4;overflow=hidden;rotatable=0;points=[[0,0.5],[1,0.5]];portConstraint=eastwest;whiteSpace=wrap;html=1;fontFamily=Helvetica;" vertex="1" parent="VULX7tIAYO7b19xU93UL-64">
          <mxGeometry y="105" width="150" height="26" as="geometry" />
        </mxCell>
        <mxCell id="VULX7tIAYO7b19xU93UL-88" value="&lt;span style=&quot;font-weight: normal;&quot;&gt;&amp;lt;&amp;lt;abstract&amp;gt;&amp;gt;&lt;/span&gt;&amp;nbsp; Program" style="swimlane;fontStyle=1;align=center;verticalAlign=top;childLayout=stackLayout;horizontal=1;startSize=26;horizontalStack=0;resizeParent=1;resizeParentMax=0;resizeLast=0;collapsible=1;marginBottom=0;whiteSpace=wrap;html=1;fontFamily=Helvetica;fillColor=#fff2cc;strokeColor=#000000;" vertex="1" parent="WIyWlLk6GJQsqaUBKTNV-1">
          <mxGeometry x="790" y="-100" width="160" height="157" as="geometry" />
        </mxCell>
        <mxCell id="Uae3hpyTgPKv66pRuo5L-47" value="stopCondition : bool" style="text;strokeColor=none;fillColor=#fff2cc;align=left;verticalAlign=top;spacingLeft=4;spacingRight=4;overflow=hidden;rotatable=0;points=[[0,0.5],[1,0.5]];portConstraint=eastwest;whiteSpace=wrap;html=1;fontFamily=Helvetica;" vertex="1" parent="VULX7tIAYO7b19xU93UL-88">
          <mxGeometry y="26" width="160" height="26" as="geometry" />
        </mxCell>
        <mxCell id="VULX7tIAYO7b19xU93UL-89" value="launcher : Launcher" style="text;strokeColor=none;fillColor=#fff2cc;align=left;verticalAlign=top;spacingLeft=4;spacingRight=4;overflow=hidden;rotatable=0;points=[[0,0.5],[1,0.5]];portConstraint=eastwest;whiteSpace=wrap;html=1;fontFamily=Helvetica;" vertex="1" parent="VULX7tIAYO7b19xU93UL-88">
          <mxGeometry y="52" width="160" height="26" as="geometry" />
        </mxCell>
        <mxCell id="VULX7tIAYO7b19xU93UL-90" value="" style="line;strokeWidth=1;fillColor=none;align=left;verticalAlign=middle;spacingTop=-1;spacingLeft=3;spacingRight=3;rotatable=0;labelPosition=right;points=[];portConstraint=eastwest;strokeColor=inherit;fontFamily=Helvetica;" vertex="1" parent="VULX7tIAYO7b19xU93UL-88">
          <mxGeometry y="78" width="160" height="1" as="geometry" />
        </mxCell>
        <mxCell id="VULX7tIAYO7b19xU93UL-91" value="start(args)" style="text;strokeColor=none;fillColor=#fff2cc;align=left;verticalAlign=top;spacingLeft=4;spacingRight=4;overflow=hidden;rotatable=0;points=[[0,0.5],[1,0.5]];portConstraint=eastwest;whiteSpace=wrap;html=1;fontFamily=Helvetica;" vertex="1" parent="VULX7tIAYO7b19xU93UL-88">
          <mxGeometry y="79" width="160" height="26" as="geometry" />
        </mxCell>
        <mxCell id="Uae3hpyTgPKv66pRuo5L-50" value="# setup(args)" style="text;strokeColor=none;fillColor=#fff2cc;align=left;verticalAlign=top;spacingLeft=4;spacingRight=4;overflow=hidden;rotatable=0;points=[[0,0.5],[1,0.5]];portConstraint=eastwest;whiteSpace=wrap;html=1;fontFamily=Helvetica;fontStyle=2" vertex="1" parent="VULX7tIAYO7b19xU93UL-88">
          <mxGeometry y="105" width="160" height="26" as="geometry" />
        </mxCell>
        <mxCell id="Uae3hpyTgPKv66pRuo5L-51" value="# loop()" style="text;strokeColor=none;fillColor=#fff2cc;align=left;verticalAlign=top;spacingLeft=4;spacingRight=4;overflow=hidden;rotatable=0;points=[[0,0.5],[1,0.5]];portConstraint=eastwest;whiteSpace=wrap;html=1;fontFamily=Helvetica;fontStyle=2" vertex="1" parent="VULX7tIAYO7b19xU93UL-88">
          <mxGeometry y="131" width="160" height="26" as="geometry" />
        </mxCell>
        <mxCell id="o5P8ZobGvWAie152_XZ7-36" style="edgeStyle=orthogonalEdgeStyle;rounded=0;orthogonalLoop=1;jettySize=auto;html=1;endArrow=diamondThin;endFill=1;endSize=16;" edge="1" parent="WIyWlLk6GJQsqaUBKTNV-1" source="VULX7tIAYO7b19xU93UL-102" target="o5P8ZobGvWAie152_XZ7-1">
          <mxGeometry relative="1" as="geometry" />
        </mxCell>
        <mxCell id="VULX7tIAYO7b19xU93UL-102" value="NullspaceController" style="swimlane;fontStyle=1;align=center;verticalAlign=top;childLayout=stackLayout;horizontal=1;startSize=26;horizontalStack=0;resizeParent=1;resizeParentMax=0;resizeLast=0;collapsible=1;marginBottom=0;whiteSpace=wrap;html=1;fontFamily=Helvetica;fillColor=#e1d5e7;strokeColor=default;" vertex="1" parent="WIyWlLk6GJQsqaUBKTNV-1">
          <mxGeometry x="760" y="311" width="220" height="160" as="geometry" />
        </mxCell>
        <mxCell id="Uae3hpyTgPKv66pRuo5L-24" value="Kp, Ki : double" style="text;strokeColor=none;fillColor=#e1d5e7;align=left;verticalAlign=top;spacingLeft=4;spacingRight=4;overflow=hidden;rotatable=0;points=[[0,0.5],[1,0.5]];portConstraint=eastwest;whiteSpace=wrap;html=1;fontFamily=Helvetica;" vertex="1" parent="VULX7tIAYO7b19xU93UL-102">
          <mxGeometry y="26" width="220" height="26" as="geometry" />
        </mxCell>
        <mxCell id="Uae3hpyTgPKv66pRuo5L-26" value="nullspaceGain: double" style="text;strokeColor=none;fillColor=#e1d5e7;align=left;verticalAlign=top;spacingLeft=4;spacingRight=4;overflow=hidden;rotatable=0;points=[[0,0.5],[1,0.5]];portConstraint=eastwest;whiteSpace=wrap;html=1;fontFamily=Helvetica;" vertex="1" parent="VULX7tIAYO7b19xU93UL-102">
          <mxGeometry y="52" width="220" height="26" as="geometry" />
        </mxCell>
        <mxCell id="VULX7tIAYO7b19xU93UL-155" value="virtualRobot : VirtualRobot" style="text;strokeColor=none;fillColor=#e1d5e7;align=left;verticalAlign=top;spacingLeft=4;spacingRight=4;overflow=hidden;rotatable=0;points=[[0,0.5],[1,0.5]];portConstraint=eastwest;whiteSpace=wrap;html=1;fontFamily=Helvetica;" vertex="1" parent="VULX7tIAYO7b19xU93UL-102">
          <mxGeometry y="78" width="220" height="26" as="geometry" />
        </mxCell>
        <mxCell id="VULX7tIAYO7b19xU93UL-104" value="" style="line;strokeWidth=1;fillColor=none;align=left;verticalAlign=middle;spacingTop=-1;spacingLeft=3;spacingRight=3;rotatable=0;labelPosition=right;points=[];portConstraint=eastwest;strokeColor=inherit;fontFamily=Helvetica;" vertex="1" parent="VULX7tIAYO7b19xU93UL-102">
          <mxGeometry y="104" width="220" height="1" as="geometry" />
        </mxCell>
        <mxCell id="VULX7tIAYO7b19xU93UL-105" value="calcJointVelocities(x_desired : double[3], v_desired : double[3]) : double[4]" style="text;strokeColor=none;fillColor=#e1d5e7;align=left;verticalAlign=top;spacingLeft=4;spacingRight=4;overflow=hidden;rotatable=0;points=[[0,0.5],[1,0.5]];portConstraint=eastwest;whiteSpace=wrap;html=1;fontFamily=Helvetica;" vertex="1" parent="VULX7tIAYO7b19xU93UL-102">
          <mxGeometry y="105" width="220" height="55" as="geometry" />
        </mxCell>
        <mxCell id="Uae3hpyTgPKv66pRuo5L-108" style="edgeStyle=orthogonalEdgeStyle;rounded=0;orthogonalLoop=1;jettySize=auto;html=1;dashed=1;endSize=12;endArrow=open;endFill=0;startArrow=openThin;startFill=0;strokeWidth=1;startSize=12;" edge="1" parent="WIyWlLk6GJQsqaUBKTNV-1" target="zkfFHV4jXpPFQw0GAbJ--0">
          <mxGeometry relative="1" as="geometry">
            <mxPoint x="370" y="47.068965517241395" as="sourcePoint" />
          </mxGeometry>
        </mxCell>
        <mxCell id="TBz-6ePZFZ6xWNdcKWJH-6" value="User&lt;br&gt;Interface" style="edgeLabel;html=1;align=center;verticalAlign=middle;resizable=0;points=[];" connectable="0" vertex="1" parent="Uae3hpyTgPKv66pRuo5L-108">
          <mxGeometry x="-0.0342" y="1" relative="1" as="geometry">
            <mxPoint y="-16" as="offset" />
          </mxGeometry>
        </mxCell>
        <mxCell id="o5P8ZobGvWAie152_XZ7-25" style="edgeStyle=orthogonalEdgeStyle;rounded=0;orthogonalLoop=1;jettySize=auto;html=1;dashed=1;endArrow=none;endFill=0;startArrow=none;startFill=0;" edge="1" parent="WIyWlLk6GJQsqaUBKTNV-1" source="Uae3hpyTgPKv66pRuo5L-14">
          <mxGeometry relative="1" as="geometry">
            <mxPoint x="870" y="509.9999999999998" as="targetPoint" />
            <Array as="points">
              <mxPoint x="1060" y="510" />
            </Array>
          </mxGeometry>
        </mxCell>
        <mxCell id="o5P8ZobGvWAie152_XZ7-37" style="edgeStyle=orthogonalEdgeStyle;rounded=0;orthogonalLoop=1;jettySize=auto;html=1;endSize=16;endArrow=diamondThin;endFill=1;" edge="1" parent="WIyWlLk6GJQsqaUBKTNV-1" source="Uae3hpyTgPKv66pRuo5L-14" target="o5P8ZobGvWAie152_XZ7-1">
          <mxGeometry relative="1" as="geometry">
            <Array as="points">
              <mxPoint x="1060" y="290" />
              <mxPoint x="870" y="290" />
            </Array>
          </mxGeometry>
        </mxCell>
        <mxCell id="Uae3hpyTgPKv66pRuo5L-14" value="PathPlanner" style="swimlane;fontStyle=1;align=center;verticalAlign=top;childLayout=stackLayout;horizontal=1;startSize=26;horizontalStack=0;resizeParent=1;resizeParentMax=0;resizeLast=0;collapsible=1;marginBottom=0;whiteSpace=wrap;html=1;fontFamily=Helvetica;fillColor=#e1d5e7;strokeColor=default;" vertex="1" parent="WIyWlLk6GJQsqaUBKTNV-1">
          <mxGeometry x="1000" y="313" width="120" height="123" as="geometry" />
        </mxCell>
        <mxCell id="Uae3hpyTgPKv66pRuo5L-15" value="path : double[3][]&lt;br&gt;" style="text;strokeColor=none;fillColor=#e1d5e7;align=left;verticalAlign=top;spacingLeft=4;spacingRight=4;overflow=hidden;rotatable=0;points=[[0,0.5],[1,0.5]];portConstraint=eastwest;whiteSpace=wrap;html=1;fontFamily=Helvetica;" vertex="1" parent="Uae3hpyTgPKv66pRuo5L-14">
          <mxGeometry y="26" width="120" height="26" as="geometry" />
        </mxCell>
        <mxCell id="Uae3hpyTgPKv66pRuo5L-27" value="virtualRobot : VirtualRobot" style="text;strokeColor=none;fillColor=#e1d5e7;align=left;verticalAlign=top;spacingLeft=4;spacingRight=4;overflow=hidden;rotatable=0;points=[[0,0.5],[1,0.5]];portConstraint=eastwest;whiteSpace=wrap;html=1;fontFamily=Helvetica;" vertex="1" parent="Uae3hpyTgPKv66pRuo5L-14">
          <mxGeometry y="52" width="120" height="44" as="geometry" />
        </mxCell>
        <mxCell id="Uae3hpyTgPKv66pRuo5L-28" value="" style="line;strokeWidth=1;fillColor=none;align=left;verticalAlign=middle;spacingTop=-1;spacingLeft=3;spacingRight=3;rotatable=0;labelPosition=right;points=[];portConstraint=eastwest;strokeColor=inherit;fontFamily=Helvetica;" vertex="1" parent="Uae3hpyTgPKv66pRuo5L-14">
          <mxGeometry y="96" width="120" height="1" as="geometry" />
        </mxCell>
        <mxCell id="Uae3hpyTgPKv66pRuo5L-29" value="userInputPath()" style="text;strokeColor=none;fillColor=#e1d5e7;align=left;verticalAlign=top;spacingLeft=4;spacingRight=4;overflow=hidden;rotatable=0;points=[[0,0.5],[1,0.5]];portConstraint=eastwest;whiteSpace=wrap;html=1;fontFamily=Helvetica;" vertex="1" parent="Uae3hpyTgPKv66pRuo5L-14">
          <mxGeometry y="97" width="120" height="26" as="geometry" />
        </mxCell>
        <mxCell id="o5P8ZobGvWAie152_XZ7-38" style="edgeStyle=orthogonalEdgeStyle;rounded=0;orthogonalLoop=1;jettySize=auto;html=1;endArrow=diamondThin;endFill=1;endSize=16;" edge="1" parent="WIyWlLk6GJQsqaUBKTNV-1" source="Uae3hpyTgPKv66pRuo5L-30" target="o5P8ZobGvWAie152_XZ7-1">
          <mxGeometry relative="1" as="geometry">
            <Array as="points">
              <mxPoint x="1205" y="290" />
              <mxPoint x="870" y="290" />
            </Array>
          </mxGeometry>
        </mxCell>
        <mxCell id="Uae3hpyTgPKv66pRuo5L-30" value="TrajectoryGenerator" style="swimlane;fontStyle=1;align=center;verticalAlign=top;childLayout=stackLayout;horizontal=1;startSize=26;horizontalStack=0;resizeParent=1;resizeParentMax=0;resizeLast=0;collapsible=1;marginBottom=0;whiteSpace=wrap;html=1;fontFamily=Helvetica;fillColor=#e1d5e7;strokeColor=default;" vertex="1" parent="WIyWlLk6GJQsqaUBKTNV-1">
          <mxGeometry x="1140" y="313" width="130" height="201" as="geometry" />
        </mxCell>
        <mxCell id="Uae3hpyTgPKv66pRuo5L-35" value="&lt;div class=&quot;rtcContent&quot;&gt;&lt;div class=&quot;lineNode&quot;&gt;desiredPositionsArray : double[3][]&lt;/div&gt;&lt;div class=&quot;lineNode&quot;&gt;&lt;/div&gt;&lt;/div&gt;" style="text;whiteSpace=wrap;html=1;fillColor=#e1d5e7;strokeColor=none;" vertex="1" parent="Uae3hpyTgPKv66pRuo5L-30">
          <mxGeometry y="26" width="130" height="44" as="geometry" />
        </mxCell>
        <mxCell id="Uae3hpyTgPKv66pRuo5L-36" value="&lt;div class=&quot;rtcContent&quot;&gt;&lt;div class=&quot;lineNode&quot;&gt;desiredVelocitiesArray : double[3][]&lt;br&gt;&lt;/div&gt;&lt;div class=&quot;lineNode&quot;&gt;&lt;/div&gt;&lt;/div&gt;" style="text;whiteSpace=wrap;html=1;fillColor=#e1d5e7;strokeColor=none;" vertex="1" parent="Uae3hpyTgPKv66pRuo5L-30">
          <mxGeometry y="70" width="130" height="44" as="geometry" />
        </mxCell>
        <mxCell id="Uae3hpyTgPKv66pRuo5L-37" value="&lt;div class=&quot;rtcContent&quot;&gt;&lt;div class=&quot;lineNode&quot;&gt;timeArray : double[]&lt;/div&gt;&lt;div class=&quot;lineNode&quot;&gt;&lt;/div&gt;&lt;/div&gt;" style="text;whiteSpace=wrap;html=1;fillColor=#e1d5e7;strokeColor=none;" vertex="1" parent="Uae3hpyTgPKv66pRuo5L-30">
          <mxGeometry y="114" width="130" height="26" as="geometry" />
        </mxCell>
        <mxCell id="Uae3hpyTgPKv66pRuo5L-33" value="" style="line;strokeWidth=1;fillColor=none;align=left;verticalAlign=middle;spacingTop=-1;spacingLeft=3;spacingRight=3;rotatable=0;labelPosition=right;points=[];portConstraint=eastwest;strokeColor=inherit;fontFamily=Helvetica;" vertex="1" parent="Uae3hpyTgPKv66pRuo5L-30">
          <mxGeometry y="140" width="130" height="1" as="geometry" />
        </mxCell>
        <mxCell id="Uae3hpyTgPKv66pRuo5L-34" value="generateTrajectory( path : double[3][], duration : double)" style="text;strokeColor=none;fillColor=#e1d5e7;align=left;verticalAlign=top;spacingLeft=4;spacingRight=4;overflow=hidden;rotatable=0;points=[[0,0.5],[1,0.5]];portConstraint=eastwest;whiteSpace=wrap;html=1;fontFamily=Helvetica;" vertex="1" parent="Uae3hpyTgPKv66pRuo5L-30">
          <mxGeometry y="141" width="130" height="60" as="geometry" />
        </mxCell>
        <mxCell id="o5P8ZobGvWAie152_XZ7-31" style="edgeStyle=orthogonalEdgeStyle;rounded=0;orthogonalLoop=1;jettySize=auto;html=1;endArrow=diamondThin;endFill=1;endSize=16;" edge="1" parent="WIyWlLk6GJQsqaUBKTNV-1" source="Uae3hpyTgPKv66pRuo5L-38" target="VULX7tIAYO7b19xU93UL-52">
          <mxGeometry relative="1" as="geometry">
            <Array as="points">
              <mxPoint x="705" y="540" />
              <mxPoint x="575" y="540" />
            </Array>
          </mxGeometry>
        </mxCell>
        <mxCell id="Uae3hpyTgPKv66pRuo5L-38" value="Trajectory" style="swimlane;fontStyle=1;align=center;verticalAlign=top;childLayout=stackLayout;horizontal=1;startSize=26;horizontalStack=0;resizeParent=1;resizeParentMax=0;resizeLast=0;collapsible=1;marginBottom=0;whiteSpace=wrap;html=1;fontFamily=Helvetica;fillColor=#d5e8d4;strokeColor=default;" vertex="1" parent="WIyWlLk6GJQsqaUBKTNV-1">
          <mxGeometry x="650" y="581" width="110" height="70" as="geometry" />
        </mxCell>
        <mxCell id="Uae3hpyTgPKv66pRuo5L-39" value="storedPositions: double[3][]" style="text;strokeColor=none;fillColor=#d5e8d4;align=left;verticalAlign=top;spacingLeft=4;spacingRight=4;overflow=hidden;rotatable=0;points=[[0,0.5],[1,0.5]];portConstraint=eastwest;whiteSpace=wrap;html=1;fontFamily=Helvetica;" vertex="1" parent="Uae3hpyTgPKv66pRuo5L-38">
          <mxGeometry y="26" width="110" height="44" as="geometry" />
        </mxCell>
        <mxCell id="Uae3hpyTgPKv66pRuo5L-74" value="" style="endArrow=open;endFill=0;html=1;edgeStyle=orthogonalEdgeStyle;align=left;verticalAlign=top;rounded=0;dashed=1;endSize=12;" edge="1" parent="WIyWlLk6GJQsqaUBKTNV-1" source="VULX7tIAYO7b19xU93UL-102" target="VULX7tIAYO7b19xU93UL-52">
          <mxGeometry x="-1" relative="1" as="geometry">
            <mxPoint x="810" y="510.82" as="sourcePoint" />
            <mxPoint x="970" y="510.82" as="targetPoint" />
            <Array as="points">
              <mxPoint x="870" y="510" />
              <mxPoint x="710" y="510" />
              <mxPoint x="710" y="391" />
            </Array>
          </mxGeometry>
        </mxCell>
        <mxCell id="o5P8ZobGvWAie152_XZ7-18" style="edgeStyle=orthogonalEdgeStyle;rounded=0;orthogonalLoop=1;jettySize=auto;html=1;endArrow=block;endFill=0;endSize=12;" edge="1" parent="WIyWlLk6GJQsqaUBKTNV-1" source="o5P8ZobGvWAie152_XZ7-1" target="VULX7tIAYO7b19xU93UL-88">
          <mxGeometry relative="1" as="geometry" />
        </mxCell>
        <mxCell id="o5P8ZobGvWAie152_XZ7-42" style="edgeStyle=orthogonalEdgeStyle;rounded=0;orthogonalLoop=1;jettySize=auto;html=1;endArrow=diamondThin;endFill=1;endSize=16;" edge="1" parent="WIyWlLk6GJQsqaUBKTNV-1" source="o5P8ZobGvWAie152_XZ7-1" target="zkfFHV4jXpPFQw0GAbJ--0">
          <mxGeometry relative="1" as="geometry" />
        </mxCell>
        <mxCell id="o5P8ZobGvWAie152_XZ7-1" value="&lt;span style=&quot;font-weight: 400;&quot;&gt;&amp;lt;&amp;lt;concrete&amp;gt;&amp;gt; &lt;/span&gt;ExampleProgram" style="swimlane;fontStyle=1;align=center;verticalAlign=top;childLayout=stackLayout;horizontal=1;startSize=26;horizontalStack=0;resizeParent=1;resizeParentMax=0;resizeLast=0;collapsible=1;marginBottom=0;whiteSpace=wrap;html=1;fontFamily=Helvetica;fillColor=#fff2cc;strokeColor=default;" vertex="1" parent="WIyWlLk6GJQsqaUBKTNV-1">
          <mxGeometry x="775" y="100" width="190" height="157" as="geometry" />
        </mxCell>
        <mxCell id="o5P8ZobGvWAie152_XZ7-6" value="controller : NullspaceController" style="text;strokeColor=none;fillColor=#fff2cc;align=left;verticalAlign=top;spacingLeft=4;spacingRight=4;overflow=hidden;rotatable=0;points=[[0,0.5],[1,0.5]];portConstraint=eastwest;whiteSpace=wrap;html=1;fontFamily=Helvetica;" vertex="1" parent="o5P8ZobGvWAie152_XZ7-1">
          <mxGeometry y="26" width="190" height="26" as="geometry" />
        </mxCell>
        <mxCell id="o5P8ZobGvWAie152_XZ7-12" value="planner : PathPlanner" style="text;strokeColor=none;fillColor=#fff2cc;align=left;verticalAlign=top;spacingLeft=4;spacingRight=4;overflow=hidden;rotatable=0;points=[[0,0.5],[1,0.5]];portConstraint=eastwest;whiteSpace=wrap;html=1;fontFamily=Helvetica;" vertex="1" parent="o5P8ZobGvWAie152_XZ7-1">
          <mxGeometry y="52" width="190" height="26" as="geometry" />
        </mxCell>
        <mxCell id="o5P8ZobGvWAie152_XZ7-13" value="generator : TrajectoryGenerator" style="text;strokeColor=none;fillColor=#fff2cc;align=left;verticalAlign=top;spacingLeft=4;spacingRight=4;overflow=hidden;rotatable=0;points=[[0,0.5],[1,0.5]];portConstraint=eastwest;whiteSpace=wrap;html=1;fontFamily=Helvetica;" vertex="1" parent="o5P8ZobGvWAie152_XZ7-1">
          <mxGeometry y="78" width="190" height="26" as="geometry" />
        </mxCell>
        <mxCell id="o5P8ZobGvWAie152_XZ7-7" value="" style="line;strokeWidth=1;fillColor=none;align=left;verticalAlign=middle;spacingTop=-1;spacingLeft=3;spacingRight=3;rotatable=0;labelPosition=right;points=[];portConstraint=eastwest;strokeColor=inherit;fontFamily=Helvetica;" vertex="1" parent="o5P8ZobGvWAie152_XZ7-1">
          <mxGeometry y="104" width="190" height="1" as="geometry" />
        </mxCell>
        <mxCell id="o5P8ZobGvWAie152_XZ7-9" value="&lt;span style=&quot;font-style: normal;&quot;&gt;setup(args)&lt;/span&gt;" style="text;strokeColor=none;fillColor=#fff2cc;align=left;verticalAlign=top;spacingLeft=4;spacingRight=4;overflow=hidden;rotatable=0;points=[[0,0.5],[1,0.5]];portConstraint=eastwest;whiteSpace=wrap;html=1;fontFamily=Helvetica;fontStyle=2" vertex="1" parent="o5P8ZobGvWAie152_XZ7-1">
          <mxGeometry y="105" width="190" height="26" as="geometry" />
        </mxCell>
        <mxCell id="o5P8ZobGvWAie152_XZ7-10" value="&lt;span style=&quot;font-style: normal;&quot;&gt;loop()&lt;/span&gt;" style="text;strokeColor=none;fillColor=#fff2cc;align=left;verticalAlign=top;spacingLeft=4;spacingRight=4;overflow=hidden;rotatable=0;points=[[0,0.5],[1,0.5]];portConstraint=eastwest;whiteSpace=wrap;html=1;fontFamily=Helvetica;fontStyle=2" vertex="1" parent="o5P8ZobGvWAie152_XZ7-1">
          <mxGeometry y="131" width="190" height="26" as="geometry" />
        </mxCell>
        <mxCell id="VULX7tIAYO7b19xU93UL-23" value="ServoChain" style="swimlane;fontStyle=1;align=center;verticalAlign=top;childLayout=stackLayout;horizontal=1;startSize=26;horizontalStack=0;resizeParent=1;resizeParentMax=0;resizeLast=0;collapsible=1;marginBottom=0;whiteSpace=wrap;html=1;fontFamily=Helvetica;fillColor=#dae8fc;strokeColor=#000000;strokeWidth=1;swimlaneLine=1;" vertex="1" parent="WIyWlLk6GJQsqaUBKTNV-1">
          <mxGeometry x="55" y="580" width="210" height="209" as="geometry" />
        </mxCell>
        <mxCell id="VULX7tIAYO7b19xU93UL-112" value="availableIDs : int[4]" style="text;strokeColor=none;fillColor=#dae8fc;align=left;verticalAlign=top;spacingLeft=4;spacingRight=4;overflow=hidden;rotatable=0;points=[[0,0.5],[1,0.5]];portConstraint=eastwest;whiteSpace=wrap;html=1;fontFamily=Helvetica;strokeWidth=0;" vertex="1" parent="VULX7tIAYO7b19xU93UL-23">
          <mxGeometry y="26" width="210" height="26" as="geometry" />
        </mxCell>
        <mxCell id="9fABmdIE0lthHS8NyeYr-1" value="port_num : int" style="text;strokeColor=none;fillColor=#dae8fc;align=left;verticalAlign=top;spacingLeft=4;spacingRight=4;overflow=hidden;rotatable=0;points=[[0,0.5],[1,0.5]];portConstraint=eastwest;whiteSpace=wrap;html=1;fontFamily=Helvetica;strokeWidth=0;" vertex="1" parent="VULX7tIAYO7b19xU93UL-23">
          <mxGeometry y="52" width="210" height="26" as="geometry" />
        </mxCell>
        <mxCell id="VULX7tIAYO7b19xU93UL-25" value="" style="line;strokeWidth=1;fillColor=none;align=left;verticalAlign=middle;spacingTop=-1;spacingLeft=3;spacingRight=3;rotatable=0;labelPosition=right;points=[];portConstraint=eastwest;strokeColor=inherit;fontFamily=Helvetica;" vertex="1" parent="VULX7tIAYO7b19xU93UL-23">
          <mxGeometry y="78" width="210" height="1" as="geometry" />
        </mxCell>
        <mxCell id="VULX7tIAYO7b19xU93UL-119" value="ServoChain(port : char[])" style="text;strokeColor=none;fillColor=#dae8fc;align=left;verticalAlign=top;spacingLeft=4;spacingRight=4;overflow=hidden;rotatable=0;points=[[0,0.5],[1,0.5]];portConstraint=eastwest;whiteSpace=wrap;html=1;fontFamily=Helvetica;" vertex="1" parent="VULX7tIAYO7b19xU93UL-23">
          <mxGeometry y="79" width="210" height="26" as="geometry" />
        </mxCell>
        <mxCell id="VULX7tIAYO7b19xU93UL-114" value="getServoAngles() : double[4]" style="text;strokeColor=none;fillColor=#dae8fc;align=left;verticalAlign=top;spacingLeft=4;spacingRight=4;overflow=hidden;rotatable=0;points=[[0,0.5],[1,0.5]];portConstraint=eastwest;whiteSpace=wrap;html=1;fontFamily=Helvetica;" vertex="1" parent="VULX7tIAYO7b19xU93UL-23">
          <mxGeometry y="105" width="210" height="26" as="geometry" />
        </mxCell>
        <mxCell id="9fABmdIE0lthHS8NyeYr-0" value="getServoTorque(ID : int) : bool" style="text;strokeColor=none;fillColor=#dae8fc;align=left;verticalAlign=top;spacingLeft=4;spacingRight=4;overflow=hidden;rotatable=0;points=[[0,0.5],[1,0.5]];portConstraint=eastwest;whiteSpace=wrap;html=1;fontFamily=Helvetica;" vertex="1" parent="VULX7tIAYO7b19xU93UL-23">
          <mxGeometry y="131" width="210" height="26" as="geometry" />
        </mxCell>
        <mxCell id="VULX7tIAYO7b19xU93UL-113" value="setServoVelocities(φ_dot : double[4])" style="text;strokeColor=none;fillColor=#dae8fc;align=left;verticalAlign=top;spacingLeft=4;spacingRight=4;overflow=hidden;rotatable=0;points=[[0,0.5],[1,0.5]];portConstraint=eastwest;whiteSpace=wrap;html=1;fontFamily=Helvetica;" vertex="1" parent="VULX7tIAYO7b19xU93UL-23">
          <mxGeometry y="157" width="210" height="26" as="geometry" />
        </mxCell>
        <mxCell id="Uae3hpyTgPKv66pRuo5L-0" value="setServoTorque(ID : int, state : bool)" style="text;strokeColor=none;fillColor=#dae8fc;align=left;verticalAlign=top;spacingLeft=4;spacingRight=4;overflow=hidden;rotatable=0;points=[[0,0.5],[1,0.5]];portConstraint=eastwest;whiteSpace=wrap;html=1;fontFamily=Helvetica;" vertex="1" parent="VULX7tIAYO7b19xU93UL-23">
          <mxGeometry y="183" width="210" height="26" as="geometry" />
        </mxCell>
        <mxCell id="TBz-6ePZFZ6xWNdcKWJH-5" value="" style="shape=image;verticalLabelPosition=bottom;labelBackgroundColor=default;verticalAlign=top;aspect=fixed;imageAspect=0;image=data:image/jpeg,/9j/4AAQSkZJRgABAQEAeAB4AAD/4QMERXhpZgAATU0AKgAAAAgABQESAAMAAAABAAEAAAE7AAIAAAAPAAABVodpAAQAAAABAAABZpydAAEAAAAeAAAC3uocAAcAAAEMAAAASgAAAAAc6gAAAAEAAAAAAAAAAAAAAAAAAAAAAAAAAAAAAAAAAAAAAAAAAAAAAAAAAAAAAAAAAAAAAAAAAAAAAAAAAAAAAAAAAAAAAAAAAAAAAAAAAAAAAAAAAAAAAAAAAAAAAAAAAAAAAAAAAAAAAAAAAAAAAAAAAAAAAAAAAAAAAAAAAAAAAAAAAAAAAAAAAAAAAAAAAAAAAAAAAAAAAAAAAAAAAAAAAAAAAAAAAAAAAAAAAAAAAAAAAAAAAAAAAAAAAAAAAAAAAAAAAAAAAAAAAAAAAAAAAAAAAAAAAAAAAAAAAAAAAAAAAAAAAAAAAAAAAAAAAAAAAAAAAAAAAAAAAAAAAAAAAAAAAAAAAAAAU2FtdWVsIFplaXRsZXIAAAAFkAMAAgAAABQAAAK0kAQAAgAAABQAAALIkpEAAgAAAAMxNgAAkpIAAgAAAAMxNgAA6hwABwAAAQwAAAGoAAAAABzqAAAAAQAAAAAAAAAAAAAAAAAAAAAAAAAAAAAAAAAAAAAAAAAAAAAAAAAAAAAAAAAAAAAAAAAAAAAAAAAAAAAAAAAAAAAAAAAAAAAAAAAAAAAAAAAAAAAAAAAAAAAAAAAAAAAAAAAAAAAAAAAAAAAAAAAAAAAAAAAAAAAAAAAAAAAAAAAAAAAAAAAAAAAAAAAAAAAAAAAAAAAAAAAAAAAAAAAAAAAAAAAAAAAAAAAAAAAAAAAAAAAAAAAAAAAAAAAAAAAAAAAAAAAAAAAAAAAAAAAAAAAAAAAAAAAAAAAAAAAAAAAAAAAAAAAAAAAAAAAAAAAAAAAAAAAAAAAAAAAAAAAAAAAAAAAAAAAyMDI0OjAxOjI1IDE0OjM3OjQxADIwMjQ6MDE6MjUgMTQ6Mzc6NDEAAABTAGEAbQB1AGUAbAAgAFoAZQBpAHQAbABlAHIAAAD/4QQhaHR0cDovL25zLmFkb2JlLmNvbS94YXAvMS4wLwA8P3hwYWNrZXQgYmVnaW49J++7vycgaWQ9J1c1TTBNcENlaGlIenJlU3pOVGN6a2M5ZCc/Pg0KPHg6eG1wbWV0YSB4bWxuczp4PSJhZG9iZTpuczptZXRhLyI+PHJkZjpSREYgeG1sbnM6cmRmPSJodHRwOi8vd3d3LnczLm9yZy8xOTk5LzAyLzIyLXJkZi1zeW50YXgtbnMjIj48cmRmOkRlc2NyaXB0aW9uIHJkZjphYm91dD0idXVpZDpmYWY1YmRkNS1iYTNkLTExZGEtYWQzMS1kMzNkNzUxODJmMWIiIHhtbG5zOmRjPSJodHRwOi8vcHVybC5vcmcvZGMvZWxlbWVudHMvMS4xLyIvPjxyZGY6RGVzY3JpcHRpb24gcmRmOmFib3V0PSJ1dWlkOmZhZjViZGQ1LWJhM2QtMTFkYS1hZDMxLWQzM2Q3NTE4MmYxYiIgeG1sbnM6eG1wPSJodHRwOi8vbnMuYWRvYmUuY29tL3hhcC8xLjAvIj48eG1wOkNyZWF0ZURhdGU+MjAyNC0wMS0yNVQxNDozNzo0MS4xNjI8L3htcDpDcmVhdGVEYXRlPjwvcmRmOkRlc2NyaXB0aW9uPjxyZGY6RGVzY3JpcHRpb24gcmRmOmFib3V0PSJ1dWlkOmZhZjViZGQ1LWJhM2QtMTFkYS1hZDMxLWQzM2Q3NTE4MmYxYiIgeG1sbnM6ZGM9Imh0dHA6Ly9wdXJsLm9yZy9kYy9lbGVtZW50cy8xLjEvIj48ZGM6Y3JlYXRvcj48cmRmOlNlcSB4bWxuczpyZGY9Imh0dHA6Ly93d3cudzMub3JnLzE5OTkvMDIvMjItcmRmLXN5bnRheC1ucyMiPjxyZGY6bGk+U2FtdWVsIFplaXRsZXI8L3JkZjpsaT48L3JkZjpTZXE+DQoJCQk8L2RjOmNyZWF0b3I+PC9yZGY6RGVzY3JpcHRpb24+PC9yZGY6UkRGPjwveDp4bXBtZXRhPg0KICAgICAgICAgICAgICAgICAgICAgICAgICAgICAgICAgICAgICAgICAgICAgICAgICAgICAgICAgICAgICAgICAgICAgICAgICAgICAgICAgICAgICAgICAgICAgICAgICAgIAogICAgICAgICAgICAgICAgICAgICAgICAgICAgICAgICAgICAgICAgICAgICAgICAgICAgICAgICAgICAgICAgICAgICAgICAgICAgICAgICAgICAgICAgICAgICAgICAgICAgCiAgICAgICAgICAgICAgICAgICAgICAgICAgICAgICAgICAgICAgICAgICAgICAgICAgICAgIDw/eHBhY2tldCBlbmQ9J3cnPz7/2wBDAAIBAQIBAQICAgICAgICAwUDAwMDAwYEBAMFBwYHBwcGBwcICQsJCAgKCAcHCg0KCgsMDAwMBwkODw0MDgsMDAz/2wBDAQICAgMDAwYDAwYMCAcIDAwMDAwMDAwMDAwMDAwMDAwMDAwMDAwMDAwMDAwMDAwMDAwMDAwMDAwMDAwMDAwMDAz/wAARCAR8AoADASIAAhEBAxEB/8QAHwAAAQUBAQEBAQEAAAAAAAAAAAECAwQFBgcICQoL/8QAtRAAAgEDAwIEAwUFBAQAAAF9AQIDAAQRBRIhMUEGE1FhByJxFDKBkaEII0KxwRVS0fAkM2JyggkKFhcYGRolJicoKSo0NTY3ODk6Q0RFRkdISUpTVFVWV1hZWmNkZWZnaGlqc3R1dnd4eXqDhIWGh4iJipKTlJWWl5iZmqKjpKWmp6ipqrKztLW2t7i5usLDxMXGx8jJytLT1NXW19jZ2uHi4+Tl5ufo6erx8vP09fb3+Pn6/8QAHwEAAwEBAQEBAQEBAQAAAAAAAAECAwQFBgcICQoL/8QAtREAAgECBAQDBAcFBAQAAQJ3AAECAxEEBSExBhJBUQdhcRMiMoEIFEKRobHBCSMzUvAVYnLRChYkNOEl8RcYGRomJygpKjU2Nzg5OkNERUZHSElKU1RVVldYWVpjZGVmZ2hpanN0dXZ3eHl6goOEhYaHiImKkpOUlZaXmJmaoqOkpaanqKmqsrO0tba3uLm6wsPExcbHyMnK0tPU1dbX2Nna4uPk5ebn6Onq8vP09fb3+Pn6/9oADAMBAAIRAxEAPwD9+pBxj19K+cWsv2gNZs47uyvvBoguFEsYe92/K3I+T7Ef/RlfR0pwtfIv7dH7cWufsg/s2R6loXhu6urz+wknh1a7TzNMsXCDG/ZiR34+5hM+vptQUnL3TGtGMlyy6hf+If2iLjxDe6NZ+Jvhi+p6fCk91af2iWurdH+47p9iz/8Aqr1b9lPWviFd6Jrlr8SLjQ7jVrK9X7M+lktEIGiTGT5afNv8z+EV+Xn/AATj/aj8cXfjfSfiF44a8vbrxd4im/4SC/Kf8esF6lvBBv8A7iRyQWvH/LOv1Y+BN7/aGreJZN2B9qhBx6+Sv9fzNeVlmdQx8KnLG3LNx+49rPOF6uU1KUas7ynHm9L9PkdLpXxJ8Oa9481bwpZ69od54k0GCC61LSYb9Hv9Phnz5Mk0IJeNZPLfYWAD7OOhp0fxH8Pf8LFPhM69pP8AwlK6f/azaN9tj+3rZ+Z5f2ryM+Z5PmDy/Mxs3cda+B/iFcx/s+/8FYviD8bftBs9J03UPDngnxe8kjrbppGqWKJb3MmTs/caklp+8P3I57im/speLY4/299b+PHiq6ks7P4gfDPWvFUAmk/d6d4dtdQsI9OI5432cK3T+kl2/pW8ailv3d/kmeXUvGPu+X4u39fI+9H+L3hc674i0/8A4SLw+t94QgS61+D+0YPO0SB0Mkcl0u7MKuiPIGkwCiE15z4I/wCCkP7PPxQ8VWHh3w38e/gxrviDWZltNP03TvG2nXl1eTPwiRwxzb3cn+BRk59SK+Hf2Pf2jtF8JftEfC74pXmh/FLTfE3x8v8AUdJ8cNrXgHX9HsLf+0Z/tWgI99dWqWkxtNkenx+XO/mfa8x7+tfWv7Lo2/8ABSr9qIf9Ofg8/wDkjd1ty8vLzf0yZT97lR9A+BvGmj/Erw3Dq2g6tputaTcl0gvtPuY7q3kKOUfbImUbY6sv1UjqKr6H8SPD3iDxZrHh+x1zR73XPDfkNqum296j3umeem+Hz4gd8fmJyhcDeMkdK+cP+CV/jPT/AIc/8Eu/DfiDVrhbTS9DTXr69mbpBbw6pfu7n6Iufwr5g/Y7/aN0Xwr+0T8LfileaJ8UdL8S/Hy/1HSvG7a14B17SLG1Ooz/AGrQY3vbq1S0mNpsTTo9k7+Z9s+TeOamMnJuK/rt95Utrr+u59+L+2v8G4vjH/wrhvit8Mx8QGuRYjwx/wAJPZf2wZtu7yvsnmedv2c7dmcCvVHVXI9Melfln8abjxjqHwk/aiW68K+Gbj4P6P8AFQ+IfFGuw65PJ4o0+1sU0u7uXsdOe1jhM8ccGY5vt0bx4MiRyPGiSffP7VX7Rln+zL+y14w+JFxZzX8XhvSZL62s4oX+0ajNt/0e1SPh98szRxhePvj3wX/dRnPsn+CZMHzNR82vudjsfB/xD8P+PZdUTQ9e0fXJNEv5dL1L7Dex3H9n3ibd9rMYyRHMm9MxvhwCOPXolVjLnovBr83P+CbnjzQvgB+1D4c8D2lv8So5Pi74PjvPEN/4l8Da54ch1Hxlp+XvbtH1K1gWae8t55Hfy9/GmRmtP4ZftAfGjS/2V/hz8dNc+L03iOXVPGth4dvPBw0PS7XR9Us77Xv7JRfMjhN2L+MXCSF47gQ+ZBs+z43k03qvP/OwaOTX9dz9EljX9adwG/Gvz28c/HX4zQ/BT9o74r2/xgGlWvwM8Ua6dF8OR6Fph03VLPT0huDZanLJA9wxkAeKN7aS2dBKruZz0+8fDmtNq+h2V1JC1u11CsrRN1jJXO38On4URjeCfp+OoSlZqPr+G5uDpRSL0paooKKKKACiiigAooooAKKKKACiiigAooooAKKKKACiiigAooooAKKKKACiiigAooooAKKKKACiiigAooooAKKKKACiiigAooooAKKKKACiiigAooprGgB1Fcj8TrPxVrXga+g8E6tofh/xNMyCxvtb0ibVrCDEimTzLWG6tXfMYdBidNjkN82NjeV/8K7/AGpfvf8AC5PgF9P+FN6vn8v+EnoA+gqK5H4Y2firRfA1jB421bQ/EHiaFnF9faJpE2k2E+ZGMfl2s11dOmIyiHM773Bb5c7F6xTQA6iiigAprnFOoPSgD5j8J/8ABU34T+PfDGma5oen/G7V9D1q0jvtOv7H4K+Mri11C3kTfHNDImmFHSRGDI6HBGDznFegfA39r3wV+0b4m17QfDf/AAmFvrnhi1s7/UtP8R+D9Y8N3UNvdtdR20ypqNtA8kcj2V0m+MOMwP8AU83/AMEnf+UW37Nf/ZK/C/8A6aLSj4cf8pTPjJ/2SrwH/wCnfxnQB78hzmnUUUAFFFFADX6f4VxI+MfhuH40J4BuNW+z+MptIGt29hPDJCt7ZCbyXlgd1Ec3lybBIkbu8PnwbwgnjL9wa+df+Ch58Ff8KY03/hIv7e/4TT+1V/4V9/wjWz/hJ/8AhIfLk8j+y9/7vzNnmeZ5/wDov2X7R9q/0Xz6APUviT8ZvDvwdvvD8PiLVo9PuPFurQaDotskMk9zqV7NkrHHFGju+xFeR5PuRxxSSSFI0dx2yDGa+Kf2BD4k/wCGhNU/4aQ/s/8A4ai/st/sX2Hf/wAI3/wj3mRb/wDhHfM58vzPJ+2+Z/pfn+X5n+j/AGGvtgdKAA9K8I/4Kgf8o1f2iP8AsmXiX/013Fe7npXhH/BUD/lGr+0R/wBky8S/+mu4oA9zc5HTrXkl/wCEPEmoeC00G48P6ffWv2H7DN5moKI7lDHsf5PL/wA4rIP/AAU4/ZvP/NwnwR9R/wAV1pf/AMfpR/wU4/Zu/wCjg/gj/wCF1pf/AMfp+yna1iFWje5zXhj9mbVvBPhi40fSvCujrZTcSo9+n+kf7/7uvTvgH4F1rwXDrkmtQwQyX9yjwRxT+f8AIkYTk+tcof8Agpt+zerf8nB/BHHt460vj/yPS/8ADzb9m/bx+0H8Ef8AwutL/wDj9ZUcJ7KmqdKPKupviMZOtJSrS5mdN4z/AGV/AHjzTviJY63oEN/a/FqyTTfFUcl3OF1i3S3NuiEB/kxE+z92Uz9Rms/4m/sY/DX4waZeWeu+GY3sbzw1L4Ongtb+6sY20eR43eyAgdAsZ8qPgdUynKEg5X/Dzn9m8f8ANwfwR/8AC60v/wCP0o/4Kc/s3f8ARwfwR/8AC60v/wCP1t7KXY5/aQ6nbfGT4B+FPj58MJPB3izSl1Dw9NPazi0juJrXZJbTJcW7pJC6SI0csMbjY4/1Y7GrXh34MeHPA/xI8UeMNM05rfxF4ySzTWbs3Lub0WqSJbjazbE8tXfhAuR1zXn/APw83/Zu/wCjgvgj/wCF3pf/AMfo/wCHm/7N+f8Ak4P4I/8Ahd6X/wDH6PZz7BzQOX07/glL8GdN8H6l4dS3+JH/AAi+sQXdveeHz8TvFDaLLDcs7zx/Yf7Q+zpG5kkygjx89eu/GX4D+E/j18MH8G+LNJXUPD001rOLOO4mtNkltNHcQOkkLpIjRyRRuNjg/u/TOeJ/4ec/s3j/AJuE+CP/AIXWl/8Ax+j/AIedfs3/APRwfwR/8LnS/wD4/S9jLsHtIFDxN/wTb+Efinx7rHiDUtF8UalJ4j1dNd1fSLjxrrf/AAj+q3qeXia40n7V/Z83+oh+V7cp+7TjpXpnxd+CXhn436Lpun+JtPm1TTdK1ey12G1+1zwR/arSdbi3kcRunmLHKiP5cm9D5a5Q4FcF/wAPOv2b/wDo4P4I/wDhc6X/APH6P+HnP7N5H/JwfwR/8LrS/wD4/T9nL+UPbQR2/wAS/gj4Z+NV14XvfE2lnUrzwPrcPiHRZIrua3fT7+OOSNHzG6bx5c0ilHyjrJh1PSvA/wBjz/gll4N+A3hHwXeeItNbUvGnhO+udWSK28R6nP4ft9QmkuP9Pg0x3SxS6Mc7nz/svmB3fDk/OfRP+HnP7N//AEcF8Ef/AAutL/8Aj9OH/BTj9m4p/wAnBfBH/wALrS//AI/U+xknflGqkGeb/DT/AIJdeDJPHPjjxD480061eeKPH914rW0sfEGqW+kaiguI5rE6jp6PHZ3s8Dwx4NxBNs8uPDnYK+tozlOmK8P/AOHm37NxK/8AGQXwR/8AC60v/wCP0H/gpx+zeT/ycH8Ef/C50v8A+P0KjNRUVHYXtIXbPcgaXI9K8N/4ec/s3Af8nB/BH/wutL/+P0f8POv2b/8Ao4P4I/8Ahc6X/wDH6r2c/wCUPaRPcsj0oyPSvDf+HnX7N/8A0cH8Ef8AwudL/wDj9H/Dzr9m/wD6OD+CP/hc6X/8fo9nP+UOeJ7lkelGR6V4b/w86/Zv/wCjg/gj/wCFzpf/AMfo/wCHnX7N/wD0cH8Ef/C50v8A+P0ezn/KHPE9yyPSjI9K8N/4edfs3/8ARwfwR/8AC50v/wCP0f8ADzr9m/8A6OD+CP8A4XOl/wDx+j2c/wCUOeJ7lkelGR6V4b/w86/Zv/6OD+CP/hc6X/8AH6P+HnX7N/8A0cH8Ef8AwudL/wDj9Hs5/wAoc8T3LI9KMj0rw3/h51+zf/0cH8Ef/C50v/4/R/w86/Zv/wCjg/gj/wCFzpf/AMfo9nP+UOeJ7lkelGR6V4b/AMPOv2b/APo4P4I/+Fzpf/x+j/h51+zf/wBHB/BH/wALnS//AI/R7Of8oc8T3LI9KMj0rw3/AIedfs3/APRwfwR/8LnS/wD4/R/w86/Zv/6OD+CP/hc6X/8AH6PZz/lDnie5ZHpRkeleG/8ADzr9m/8A6OD+CP8A4XOl/wDx+j/h51+zf/0cH8Ef/C50v/4/R7Of8oc8T3LI9KMj0rw3/h51+zf/ANHB/BH/AMLnS/8A4/R/w86/Zv8A+jg/gj/4XOl//H6PZz/lDnie5ZHpRkeleG/8POv2b/8Ao4P4I/8Ahc6X/wDH6P8Ah51+zf8A9HB/BH/wudL/APj9Hs5/yhzxPcsj0oyPSvDf+HnX7N//AEcH8Ef/AAudL/8Aj9H/AA86/Zv/AOjg/gj/AOFzpf8A8fo9nP8AlDnie5ZHpRkeleG/8POv2b/+jg/gj/4XOl//AB+j/h51+zf/ANHB/BH/AMLnS/8A4/R7Of8AKHPE9yyPSjI9K8N/4edfs3/9HB/BH/wudL/+P0f8POv2b/8Ao4P4I/8Ahc6X/wDH6PZz/lDnie5ZHpRkeleG/wDDzr9m/wD6OD+CP/hc6X/8fo/4edfs3/8ARwfwR/8AC50v/wCP0ezn/KHPE9yyPSjI9K8N/wCHnX7N/wD0cH8Ef/C50v8A+P0f8POv2b/+jg/gj/4XOl//AB+j2c/5Q54nuWR6UZHpXhv/AA86/Zv/AOjg/gj/AOFzpf8A8fo/4edfs3/9HB/BH/wudL/+P0ezn/KHPE9yyPSjI9K8N/4edfs3/wDRwfwR/wDC50v/AOP0f8POv2b/APo4P4I/+Fzpf/x+j2c/5Q54nuWR6UZHpXhv/Dzr9m//AKOD+CP/AIXOl/8Ax+j/AIedfs3/APRwfwR/8LnS/wD4/R7Of8oc8T3LI9KMj0rw3/h51+zf/wBHB/BH/wALnS//AI/R/wAPOv2b/wDo4P4I/wDhc6X/APH6PZz/AJQ54nuWR6UZHpXhv/Dzr9m//o4P4I/+Fzpf/wAfo/4edfs3/wDRwfwR/wDC50v/AOP0ezn/AChzxPcsj0oyPSvDf+HnX7N//RwfwR/8LnS//j9H/Dzr9m//AKOD+CP/AIXOl/8Ax+j2c/5Q54nuWR6UZHpXhv8Aw86/Zv8A+jg/gj/4XOl//H6P+HnX7N//AEcH8Ef/AAudL/8Aj9Hs5/yhzxPcsj0oyPSvDf8Ah51+zf8A9HB/BH/wudL/APj9H/Dzr9m//o4P4I/+Fzpf/wAfo9nP+UOeJ7lkelGR6V4b/wAPOv2b/wDo4P4I/wDhc6X/APH6P+HnX7N//RwfwR/8LnS//j9Hs5/yhzxPcsj0pH56CvD/APh5z+zef+bg/gj/AOF1pf8A8fo/4ecfs3/9HCfBH/wutL/+P0ezl/KHtInL+E/+CWfwn8A+GdM0PQtQ+NukaHotrHY6dYWPxq8ZW9rp9vGgRIYY01MIiRxqEVEGAOO2a7/4F/si+Cv2cvE2u694b/4S+41zxRa2dhqWo+I/GGr+JLqa3tHupLaFX1G6naOON726bbGUGZ39gMj/AIecfs3/APRwnwR/8LrS/wD4/R/w84/Zv/6OE+CP/hdaX/8AH6PZy/lD2kT3BMAUuR6V4d/w85/ZvH/NwfwR/wDC60v/AOP0n/Dzr9m//o4P4I/+Fzpf/wAfo9nP+UPaRPcsj0oyPSvDf+HnX7N//RwfwR/8LnS//j9H/Dzr9m//AKOD+CP/AIXOl/8Ax+j2c/5Q54nuL7T2b8K4pfg74an+NCePLnSRc+Mo9IGhwX800kwsrIzec8UCMxjh8yTYZHjRHm8iDeXEEYTg/wDh51+zf/0cH8Ef/C50v/4/R/w86/Zv/wCjg/gj/wCFzpf/AMfo9nP+UPaQO8+JXwZ8N/GO/wBAm8RaTHf3Hg/VoNe0W6SaSC4068hyFkjljdHXfG7xumdkkcskcgeN3Q9qAR1rw7/h51+zf/0cH8Ef/C50v/4/R/w86/Zv/wCjhPgj/wCFzpf/AMfo9nP+UPaRPcwMCvCv+CoH/KNX9oj/ALJl4l/9NdxTv+HnP7N5/wCbg/gif+550v8A+PV4p/wUZ/4KHfAPxx/wT8+O2j6L8b/hDq2sat8P9esbKwtPGOnXFxeTvp1wiQpGs253d/k29zR7Gb6B7WB/LH2FFFFfokUrI+Zk3cKKKKqyJuwoooosguFFFFTyod2FFFFPlQczCiiinZCuwooopWQXCiiinZBcKKKKLILhRRRRYd2FFFFFkK7CiiiiyC4UUUUWQXCiiiiyC4UUUUWQXCiiiiyC4UUUUWQXCiiiiyC4UUUUWQXCiiiiyC4UUUUWQXCiiiiyC4UUUUWQXCiiiiyC4UUUUWQXCiiiiyC4UUUUWQXCiiiiyC4UUUUWQXCiiiiyC4UUUUWQXCiiiiyC4UUUf41Lit2UuboFFdF4R+D/AIt+ILD+wfDPiDXOePsGmzXGf+/aV10X7D3xquo/MT4RfFBo+okTwre//EVPtKa0K9nVPL6K7TxR+zd8QfB0UkmteAfGmlxxjDteaLdW+fr5if54ri/9X36nJ4xVadAfMFFFFOxF2FFFFOyDmYUUUUWQrsKKKKFFXC4VHd/6mT/cqSo7v/Uyf7lY14rkkVT+Ik79/wABXYfAj4E+LP2mPinpXgvwJolx4k8Va15/2LTYJI45Ljy4JJ3+/wDJ/q0eT/gFceOlfb3/AAbmf8pmPg19db/9Ml/U4iq6eHczWjHnqWZz4/4IO/tcAD/iyuvnj/n9sef/ACPR/wAOHv2uP+iJ+IP/AANsf/j9f1ebM0eXXy/9vVux639n0z+UP/hw9+1x/wBET8Qf+Btj/wDH6P8Ahw9+1x/0RPxB/wCBtj/8fr+rzy6Nue9H9vVuw/7Ppn8of/Dh39rj/oifiD/wNsf/AI/Qf+CDv7XH/RE9fz2JvbHj/wAj1/V5s5pCmKf9vVtrB9RgtT+Lb45/A3xV+zZ8VNV8E+OdEuPDvirQ3SO8sJ5I5JIPMSOeP7nyf6uRJK5Mckfe69ccmvs7/g4f/wCUxvxo/wCu2lf+mewr4w9a+ow9Zzoxqtf1Y8ucV7Sx9U+E/wDgiV+1N478J6VrWk/B7Xr7S9XtYL6yuEu7TE8Eib43/wBf/ckrSH/BB39rgf8ANFPEH1+22PP/AJHr+mn9iNs/sZfCX/sS9H/9Ioa9TJwfrXzVTPa3M9EemsBTauz+UP8A4cPftcf9ET8Qf+Btj/8AH6P+HD37XH/RE/EH/gbY/wDx+v6vNuP4qNnvWbz6t2H/AGfTP5Q/+HD37XH/AERPxB/4G2P/AMfo/wCHD37XH/RE/EH/AIG2P/x+v6vPLo24/io/t6t2D+z6Z/KH/wAOHv2uP+iJ+IP/AANsf/j9B/4IO/tcEf8AJE/EHr/x/WPP/kev6vMf7VDJgUf2/W7B/Z8Oh/IJ+0f/AMEvvj1+yH8P/wDhLPiR8OdW8K+HRdx2Bvrie1kTzpPuJiOST+5JXgT1/SZ/wdXDH/BLpP8AscNN/wDQJ6/mzkr3suxk8RSc6nQ87E0/Zz5ENooor0jiCiiigAooooAKKKKACiiigAooooAKKKKACiiigAooooAKKKKACiiigAooooAKKKKACiiigAooooAKKKKACiiigAooooAKKKKACiiigAoo/wAevpU1jYTarqFvb2sMk91cSbIIYU8x3f8AuYoe1w8iH9Pwr1b9mT9in4lftfa79j8DeGLvUreOTZdalL/o+n2Y/wCmk0n7v/tn/rK+6/2Cf+CGdtY6Rb+PPj839nWNukd1B4a8/wAvEf8AfvpP4OP+WEff/WSf8s6+z5P2jYdM0e08K/B/w3p9jounJ5FreG2+z6fbx/8ATCCPp+FfB8WeIGWZHRcsRPUwxmOwuBh7XGT5T5a+AP8Awbx+E/A+lR6t8XvG1zqslsPMmsNHf7BYRn1eeT94/wD5D/DnH0L4I8Jfsufs1GODwf4L8N319b/u45rDTP7UvM+11PvH4+ZxTj8F7/x5eR6h421zUNcn++iXL/u4/wDcj/1cdd14O+DtswVNK0aS6b1SIOv4np+Nfy/xF9JCtWrexyqDn6X/ACifn2YeKEFPky6jfztcr3P7a00p2aP4B1y4t/4Ptl0ln/6B5lQ/8Nh+LiML8M4/L/7D3/3LXqWifs1eKb5P3ejw2kZ/vyL/AEBrWi/ZM8WBP9Tpsf8A205/9Ar4/wD4idx9iPfo0J29P8zzv9cOKa3v06MrecTxmL9tLWLX/j++HeoRx/8ATvqqXGP++0j/AM5rH8b/ABK+BPx5i+y/EHwHZ+ZJH/rtd8OpcSp/23QP5Z/zzXuWqfsxeK7CBm/s+1u/aOUf+zVw/iv4NTaeMapoLQov3nKZUf8AAh/+qtsP4z8YZa+fMsPNw/vR/wAhrj7PcKr4yj/5KfKvxW/4IafAf9ofR59T+F/iG48I3Un71PsN9/a2nh/+mkLv5kf18xK/P/8Aa4/4JLfGH9kaC61K/wBHj8TeFrf55Nb0TzJ7e2T/AKbpxJB/20j8v/ppX6vaz+zzp4v/AO0NFuJ9G1CPhLmzme3fP/bP+la3hz9onxt8ILhLbxVZ/wDCVaNH8n2yJfLvEj9/+Wb/AF9q/YeDfpEZfjZKjivcZ9Tk/iBlmYfu665Jn8+Y9fX9KK/Zz9rr/gkv8L/25fDF/wCM/hDdaX4V8Y/6ySGFPs9hqM3XZPB1hkP/AD0j9/3b1+Rnxq+CHir9nj4kah4V8ZaPcaHrmnufPtpf+Wqf343/AI0/246/pLLc3wuYUPa4edz7OMYuKnD4DlqKD1+vtRXpmYUUUU47gFR3f+pk/wBypAeadax+ZPHG3/LR6xxHwSKp/ENBwa9Y/Yj/AGutc/YU/ac8K/FXw1pujazrnhf7V9ls9Sjf7O5mtZ7R9+x0f/VzPXk9SU5U1Upck9jam7O5+sA/4O7PjoBj/hXHwp6YP7m+/X/Sfw/Kv1E/4Ii/8FF/Fn/BTX9lvxD4+8XaH4f8P6lpPiufQFt9JSYW7wx2lpPv+d3O8vcuDz2FfytjpX9E3/Bo2c/8E4vGv/ZSL3/01aTXz2b4GlQpKVOJ6GDxE5ytM/U1+mc4+vav57f+Iu746c/8W3+FO4dR5N9x/wCTX0r+hRh8lfxFDpXJk+DpV5SVTyNsZVnBe6f0T/8ABEf/AILk/Eb/AIKb/tQeIvA/jDwr4M8P6bovhibXop9JS5E8skd3aQbT5k0g2fv3P1Ar9TVHFfzvf8GjP/KQfx1/2T67/wDTjplf0QhsLXLmVGNGu4Q2NsLNzhdn8rv/AAcO/wDKY340f9dtK/8ATNYV8VP96vtb/g4fOf8Agsf8aP8ArrpX/pnsa+Kn619dgv8Ad4nkz/iSP7Jv2JB/xhl8I/8AsS9H/wDSGGvMP+Cun7aniH/gn9+xB4i+KHhfS9I1jV9Fu7GBLXVEke3kSe6jhbIR0f8A5aeten/sR8/sY/CX/sS9H/8ASGGvlP8A4Oaf+UR/jj/sKaR/6XwV8XRipYlRltc9qp/Duj85/wDiLq+OYOf+FcfCn6+TfYx/4Ff5xX25/wAEOf8AgtX8QP8AgqH8avGXhvxl4Z8I6Ba+GdFj1KFtHjuY5JWeZI8SCSaQd+1fzh9l/D+lfrp/waCLu/as+K3/AGKcP/pYlfRZhl+Hp0HOETzaGInz2P6ACPr9f61+Kf8AwUV/4OU/i1+xv+2v8QvhnoXgX4d6lpHg/UfstpdX6XbXEyeRHJlts6J/y07V+1zHAr+Tn/gub/yln+OH/YdT/wBJLevHynDwrVeSZ2YypOELwPrJv+Du746Zz/wrf4U8dvKvv/kqv358C69J4l8EaPqM6pHPqFlBdSKn3VZ0DkD86/ikr+1D4Nc/CXwr/wBgi0/9ErXRnOFpUGvZGeDqVJr3j8+f+DrAY/4JeR/9jfpv/oE9fzZyV/SZ/wAHWH/KL1P+xv07/wBAnr+bOSvVyP8A3d+pw4/+INooor2TzwooooAKKKKACiiigAooooAKKKKACiiigAooooAKKKKACiiigAooooAKKKKACiiigAooooAKKKKACiiigAooooAKKKKACiiigAoPSig9PftxR5gTaVpd1rN/DZ2MNxeXV46QQQxJ5klxJJ9xET/Gv2M/4J2f8E5/DP7AHw8tfil8WILe6+I1wvmWNh/rP7D8z/lhAmDvu+7yH/V8bP78nnP/AARb/Yb0r4VeAZP2iPiNbRxpHDJJ4Xtpk/494/8AV/bin/PST/Vp+Eh+/HX1JpUWq/tA+NP+Eq8RL5NjF/yD7AP8lnB/8c//AF1+JeLnidh+H8H7Ok/fex43EHEFHKMO6s/j+yP1SHxF+0rrEd94i/4lvh+3fzLLR1f93H/00k/vv9a9X+GPwluNbaOz0Wx8u3U4ad/lVB9P6V0nwl+D03jJ45JlEGlw9Nv3px6mvorQrGx8M2KWtrDHDHGMKFFfxnhcDmXFeKePzepKNG+19Zf5I/IsPg8Zn1b65j5ckO38xxfgX9lvS9HWOXUHXUJm67xmPPsvSvUtMsLXRrRY4YYUQAYCptx+FZ/25v7wpft+e9frOT5flmVw5cFRSPvsFhcHg6fs8PDlN0X6gcBRTv7RGK586ht70DUMn71e9/aSR6H9odDea9U9cfjUNwYblCskce0+wrJ+3e9H2/j71TLMYy0kH1xS0ZzPjj4BeHvGySP5C2t3ID+/gGxs/WvB/ih8C9V8GwyCaH+0NNX+PZwo/wBpe/1r6aGoxs2Fb5qbJP8Aa4mjnVZI24ya+C4i4LyvMl7WlH2VXpKPfzPlc44ewOO9+HuT/mj+p+eniL4X33g3Xf8AhJPBt5Jpeqx/fKcRz/7Dx/x96yvjx8DPAf8AwVJ+FU3hvxRZx+GfiNocEkljeRx/6RZv/fj/AOe8D/8ALRP/AGp+8r60+M/wRFlJJqGkqyq3zyQJ/wChL/tda+a/ih8OZpLm317QZpNN1zS38yCaPpHJ0/8Ar143BPiBnHCWZLAZm/3T69H6Hl5FxJjMjxP1THvnp9z8M/2hv2fPE37MHxY1TwX4vsPsOsaW+Ov7u9T/AJZzwSf8tEk/wric5P8A9av3C/bH/Zo0z/gqV+y/M1nZ2el/FvwOn+i7/wCOT+O18z/nhP8Awf8APOTp/wAtK/EPVdLuNB1O7tLyG4s7uznkgnhlTZJbyJ/rEf8Az61/fnDue0M1wMMXRlc/Zo1IVaccRR+CSIaKO9Fe/HcA7VNYf8hK3/346h7VNYf8hK3/AN+OscR8EiqfxENSVHUlarYqG4DpX9Ev/Bo9/wAo4/G3/ZR73/01aTX87Q6V/RL/AMGj3/KOTxt/2Ue9/wDTVpNePn38BHfg/jP1Rc4/Ov4ic5r+3Z+tfxE15+QfFP0R04/ofqp/waMH/jYN46/7J9d/+nHTa/oiU/Ktfzu/8GjH/KQbx1/2T67/APThptf0Qr91a8/Nv95ZthfgP5Xf+Dh7/lMb8aP+u2l/+mexr4qfrX2r/wAHD3/KY340f9dtL/8ATPY18VP1r63B/wC7R/rseXP+LI/sk/YkP/GGHwl/7EvSP/SGGvlT/g5lOf8AgkT46/7Cmj/+l8NfVf7Ev/JmPwl/7ErR/wD0hhr5U/4OZv8AlET46/7Cej/+l8NfHYf/AHqP+I9eX8Feh/MQOo/Cv10/4NBP+TrPiv8A9inD/wCliV+RY6j8K/XT/g0E/wCTrPiv/wBinD/6WJX1Wa/7tI8rDfxz+gQ9K/k4/wCC53/KWj44f9h1P/SS3r+sZvu1/Jx/wXN/5Sz/ABw/7Dqf+klvXhZD/G+R3Y/+GfJ9f2ofBz/kknhf/sD2n/olK/ivr+1D4Of8kk8L/wDYHtP/AESldXEG8TPAbH58/wDB1f8A8ovV/wCxw07/ANAnr+bOSv6TP+Dq/wD5Rer/ANjhp3/oE9fzZyV2ZH/u79Tlx/8AEG0UUV7J54UUUUAFFFFABRRRQAUUUUAFFFFABRRRQAUUUUAFFFFABRRRQAUUUUAFFFFABRRRQAUUUUAFFFFABRRRQAUUUUAFFFFABRRRRuFr7h/npXu3/BOb9keb9tP9qnQ/CUi3H9g25/tLXpk6xWKff/efwPJ8kf8A20rwntX65f8ABHv4aL+y1+wJ4n+LFxDH/wAJF8QJ/I0syJ+88iN5IIP/ACP58n/XONK8XiDNYYDA1MVP7KHzRpp1Z/DE+jPi/qkPxU+I9j4J0dYrXwj4H2QSRRfu45JkTZ5Z/wBhI/3des/C/wAAL4h1FLOOPbY22BIy/wDoFeYfA3wP/wAIx4Rt9/7y+vD5kj/8tJZHr6k+H2iR+E/DkNuFX7RJ80r/AN5vWv8ANLiDOsRxRxFOviP4VN/8Mj+fsyxks6zaUqvwQ/qx2WkLFpllHDCqRxxqFULxirI1LbWGNSwO+e9KdT+tfd0cwjTXLHY+ojjFFcq2Nz+1qP7WrDGqfWl/tT61p/axX102/wC1qP7WrE/tT60f2p9aP7VD64bf9rUf2tWJ/an1o/tT60f2oH102/7TwaUap/nNYf8Aan1pDqn1o/tUPrpuyXayxFWwQRzXiXxq+H/9nXkmpWsZ8qY/6QidAOu/8K9QOqGqus+XrdlJDKu5JFKFT3rweI8PRzPBunP4/s+p5ua0aeNo+zn6nxj4surn4G/Eex8ZaWrvaf6jVbdelxa/x/0kr4Y/4Ly/sg2fg34g6P8AGbwrD5nh34gbE1RoeY4r7Z5iTf8AbePP0kST+/X6X/ETwZGyahpc43K33Af40/z/ACrxu7+EyftTfsg/Er4J6l5cmq6fBJPoDyf8s5P9Za/98Tp5f/XOSv0b6O/HVeniJZHjf6se14c55OalllbofhOf8+9FOurWawnkhuI5IZrd/LeN0/exv6U09a/uCnrax+nWtoHaprD/AJCVv/vx1D2qaw/5CVv/AL8dZYj4JFU/iIehqSo+9SVqtiobgOlf0S/8Gj3/ACjk8bf9lHvf/TVpNfztDpX9En/Bo7/yjj8bf9lHvf8A01aTXj59/AR34P4z9Un61/ETX9uz1/ETXn8P/FP0R04/ofqp/wAGjH/KQbx1/wBk+u//AE4abX9ESn5Vr+d3/g0Y/wCUg3jr/sn13/6cNNr+iD+Fa4M2/wB5ZthfgP5Xv+Dh7/lMb8aP+u2l/wDpnsa+Kn619uf8HCWj3l3/AMFivjI0NneSL52lfOkOR/yBrCvjH/hHNSx/yD9Q9f8AUuK+qwcksPH+ux5dT+LI/sW/Yl/5Mx+Ev/YlaP8A+kMNfKn/AAczf8oifHX/AGE9H/8AS+Gvqv8AYmVo/wBjX4Sq33x4N0f/ANIoK+U/+DmX/lET46/7Cmj/APpfBXyGH/3qP+I9aX8L5H8xI6j8K/XT/g0E/wCTrPiv/wBinD/6WJX5FjqPwr9dP+DQT/k6z4r/APYpw/8ApYlfU5p/u0jy8N/HP6A2+7X8nH/Bc3/lLP8AHD/sOp/6SW9f1kHpX8nH/Bc7/lLR8cP+w6n/AKSW9eHkP8X5Hdj/AOGfJ1f2ofBz/kknhf8A7A9p/wCiUr+K+v7UPg5/ySTwv/2B7T/0SldXEG8TPAbH58/8HV//ACi9X/scNO/9Anr+bOSv6TP+Dq//AJRer/2OGnf+gT1/NnJXZkf+7v1OXH/xBtFFFeyzzwooooAKKKKACiiigAooooAKKKKACiiigAooooAKKKKACiiij0AKKPw/XFe9fsKfsWab+19d+PG1rxnJ4I0nwHoL+Ib68TR/7S82BOJPk86OpqVOSHPIPQ8For6y8CfsU/s+/FDxhp3h7Rf2ot+saxNHaWa3fw4vrO3uJ3+4jzyT7E6evPPNeA/tD/AfXv2Y/jP4g8B+Jkt/7Z8N3PkTvC++OT5N6PH/ALEkbpJWdPEQnLkXU19nLk5zi6KP89KK15kZ2CiivZP2Lf2S/wDhr/xp4p0f/hIf+Ed/4Rfwve+JfO+xfbPtHkbP3H+sj2eZ5n+s4pTqQjDnkOnTnKXJE8boo7UU07q6FJNOzCiiimIKKKKACiiigAoxn8aKOv8AKgL2LWjaNca7rNrYWcf2i6vJ0hhj/vu/3K/e34qeCLb4caP8I/hTpv8AyDfCWlwSTbf+WnkR+Qj/APo+T8a/HH/gnP4JX4g/t2/CfTZk8yP/AISW0vJE/vxwv58n/oH61+0HiiX/AISL9sDxI/3k0eC1sE/2P3Hmf+z1+EePubzwPD84Q+0fO8X4x4bJ6k19o9H+H2lL/bFuu35bRcj2r1xL7Eaj+6MfSvOfh2uUuJT95nrqP7TIbHPoK/gXhzE+xoOb3kfg2U4jkouf8x0Av6Pt9YX9qfWj+1PrXv8A9qHq/XDfGocUfb/c1gf2p9aP7U+tH9qB9eN/7f7mj7f7msD+1PrR/an1o/tQPrxv/b/c0fb/AHNYH9qfWj+1PrR/agfXjf8At/uaPt/uawP7U+tH9qfWj+1A+vG/9v8A9qg3oJ61gf2p9aP7Uo/tTTUFjjB+Ldhlre8Xjyzh/oa8N0zUD8Of2ovDuoL+7tdcEmlXX/TTzPuf+RESvefHNx9s0CZfVc/5/KvnX9pfzNL8N2GsR8T6XNHeI/psffXPwzmzwHFNHEQ6uMvxMMnzD6rnUKsOtv8AI/Jv/gq/8G1+CP7f3xD023h8mx1TUf7Ztdv+r8u6Tz3/APIjyR/9s6+c6/RD/g418GLY/tMeB/EUfCa54aFu7/35IJ3/APZJ46/O8HNf6m5XW9rhYVe9j+kasuWSYdqmsP8AkJW/+/HUPaprD/kJW/8Avx10Yj4JE0/iIakqOpK1WxUdwNf0T/8ABo23/GuHxt/2Ui9/9NWk1/OwOTX6lf8ABEH/AILn/DP/AIJj/sp6/wCBfGnhfx5rmpax4tuvEEMuiWtrJbpC9raQBCZ50ffvtZO3pXk5xQqVqKUEdmDqKMtT+iphuQ1/EX3r+hc/8HdPwD6f8K/+MH/gFpv/AMm/5zX88yHA9/5f/WrlyLD1KUp+0XY3xlSM17p+q3/Bowcf8FBvHX/ZPrv/ANOOm1/RBj5RX8rP/BD/AP4KO+D/APgmT+0/4l8ceM9J8Sa1puseGZtBhh0WCGS4jme7tLje/nSR4TZC/NfqUn/B3X8AlH/JP/jF682Wm/8AybXHmmBrTxDlGOhrha8Iwsz9XCinqtG1eyivymH/AAd2/AH/AKJ/8Yv/AAC03/5NpT/wd2/AH/on3xi/8AtN/wDk2vPeAxX8p0e3pH6sDivgL/g5n/5RG+OP+wppH/pfDXkR/wCDuv4BMf8Akn3xhx3/ANB00n/0tr5h/wCCuf8AwcJ/CX/goB+w14i+GPhPwj8RNI1zWb2xniudWtrGOzjSC6jnff5d079I/wDnnXRg8vxKrRk49Sa2IgoaH5B9l/D+lfrn/wAGg3/J1nxW/wCxUh/9LEr8jOvr0/yP8j0r7j/4IXf8FPfBP/BL741eOPEXjbRfFGuWPiTRY9NtF0SCGSRHjn8zD+dPH/kV9JmFOpOjKMTycPJe0uz+pE9Wr+Tv/gub/wApZ/jh/wBh1P8A0kt6/Wj/AIi6/gGB/wAk++MB9MWWm/p/ptfin/wUa/aW0f8AbB/bc+IXxO8P2eqabo3jDUY7y0ttRREuEj8iOP5/Ld4/+WfZ68nJ8JWpVrzid2MqRnDQ8Tr+1D4NnHwl8K/9gi1/9EpX8V46cenGD/h/n61/QB4E/wCDsj4EeF/BGj6bP4D+LjTafZw2jOljp3lu6IFI/wCPvpXRnuHnVcfZonB1IwXvHpX/AAdWtn/glwn/AGOGm/8AoE9fzZyV+sn/AAWf/wCC9nwt/wCCjn7HqfDvwf4X+IGj6t/btpq32jWLW2jg2QLJvjzDcO+/D+navybk/wAn1rqyfD1KVFxqHPjKnNMbRRRXqHnhRRRQAUUUUAFFFFABRRRQAUUUUAFFFFABRRRQAUUUUAFFFFAB3/n/AJ/ya+4v+CLY0c6N+0R/wkCapJ4f/wCFc3X9oHTXj+2eR/H5Af8Ad7/Lz/rK+Ha+hf2F/wBq7w/+zL4T+Mdjr1nrF1P8QPBt14d04WEEckcE8nKPP5jp8n/XPzP0rnxXvUZRHT+OP+KP5n0l+wr8A/2afi/4h1nxF8LdH+Kniz4h/D+FNe0vwd4w1qxsE1zyH3743tYfn8uTy/3eMfcrR/YZ1m8/am+Jf7Qv7RXi1PA2l+PPD6WsGgv4nn+yaH4fvZxJBG8/nfc8iOFI08z/AJaV8I/s0/H7XP2YPjp4b8daC2y+8P3qThRJ+7vIf44JOOUkj3pX1Zqv/BR34S6F+058StS0PwX4ov8A4R/GzSo7fxloN2kNneQXfz77q0kSR0/5aSSfvNnzyP8ASuOth6i1h/L93/DnZTnHaX83/gX/AAx638Rb+4+NX7JHxQ0v4+/G39n/AMfa5pelvq3gm/0TxLpsmqWd6kcjvaR+XHHvjk/dp5eP5pVT4Va7+0hoH7P/AMP5vhnpvgf9m34c6fpEDz6r4k1fTo/+Eon6SX05ng+0fvP+efl/9tH/AHdfNvi346/s6/Cv4IeKtB+Fvgfxh4m8T+MEjtf7b+IVppsn/CPwf37GOHf+/wD9v5Mc/Wu4+N/7Zv7Ov7W8ng7xV8S/Dfxch8b+GtBtNJutK0CexTQ9R8jfs/eO/wBohjk3ycxx/wDxys/Y1O39ehftFf8AryPp34o/A3wZp/8AwUg8QfEbUvD/AIX1r/hEPg8nxDms7NPM0vVdYTzE8/y/+Wkf7svx6RyCvOv+Cc3/AAUB8cfta+PfijpXxGuLDxBfW/gDWLzSL/8As+C3uNLT93vtEkgjj/cSb4/kfH/HvHXnfxG/4K4+HNU/bA8I/ErQfCd/JocngePwV4u8Mah5aW9xa75HkS1mjeTfH+8j8t5ET/Vj9389Sfs/ftm/stfsmjx5c+BfDHxoutU8c6DdaTHc62mnSf2PG/3IE2TfOm/YZJJMSfu0rGpRn7Fwcfsv9f8AgF066U1aX2l91l/wTn/F1rN+1z/wSO8HX8Kve+Lfgf4k/wCEenQjfcSabe+WIPw8zyI/+2dY/wDwVj1mH4Z678NfgZp00b2Xwb8MQWd6I/8Alpqt0kc90/8A6B/4/XVf8EMvHcngn4r/ABC/t6x8/wCHdv4Yk17xDNMn+j2b2U6T2sn+/wCZvH/7FfIXxp+Kl/8AG/4weJvGGqtm+8SapNqc/wC8/wBX5j7/AC/+2fEdddOL9soP4d/0/wA2Rp7F1P8At39b/kjlh0/zzRRRXp+h54UUUUAFFFFABRRR1/Oj0A+pP+CLlqt//wAFMPhmrf39Rcf8A067kr9WvCWLr9of4gSN/rP7Ukj/APHIzX5H/wDBIjxIvhf/AIKOfCu5b92JNQns/wDv/aTwf+z1+udrF/Y37Unjy2f/AJaXaXCf8Dhjev5j+kxTlPJFL+up8X4hf8if/t49b8I3Pl2bZ/vGtn+0BXJ6PP8AZY5F4+9zVv8AtP5v4q/z7wuY8lKMD+d6OM5I2Oh+30fb65/+1M+tL/aFdH9qGn103/t9H2+sD7fR9vo/tUPrhv8A2+j7fWB9vo+30f2qH1w3/t+KT+0frWD9vo+30f2qP64b39o/71H9o/71YP2+j7fR/aofXje/tH/eo/tHjvWD9voN/R/aofXjT1u+83Tpl/2WrxT9paLzvhPf/wC49epXl7utz/u15H+0/d/ZPhbdKv8ArJEyld2Q4j2+c0Eu6/M68rqe2zGmfH3/AAcORmXwf+z9eN/x8XOl6iZPrs0z/wCLr8zBxX6Wf8HG9+mn+Ifg14e8z95o2kXr49ne3T/2jX5pnrX+t/DcJxy2nCp2R/V0tOUO1TWH/ISt/wDfjqHtU1h/yErf/fjr1a/wSCn8ZCDg04zYFNorZbFO9x3nf5zR53+c02igWo7zv85o87/OabRQGo7zv85o87/OabRQGo7zv85o87/OabRQGo7zv85o87/OabRQGo7zv85o87/OabRQGo7zv85o87/OabRQGo7zv85o87/OabRQGo8TZpajooFqFFFFBIUUUUAFFFFABRRRQAUUUUAFFFFABRRRQAUUUUAFFFFABRRRQAUUUUAFFFFABRRRQAUf5HtRRR6gepQ/tpfFG1/Zu/4VLb+LLy3+He+ST+yYbWGPfvfz3SSeOPz3TePueZXlp4ooqVTjz8xXtdLBRRRVEhRRRQAUUUUAFFFFFr6MNtTs/wBnj4jf8Kg+PvgvxTv8uPw3r9lqUnukE8byCv3Z+NsS+F/2qdN1KJ/9F8S6XHIkn/LOR0fZ/wCgeXX8+f8APtX7cfBH4o/8NLf8E1fhl4/im87XPAccemaph/3g8j/RZ9/u6JBPX4/41ZD/AGlw9VjH7KPH4gwTxeVVaK/xH0I8nlt8vSl+1tWV4X1mPxH4btbmNt3ydatCfbX+UWOw9TD150H3P5GxVOdGs4lv7W1H2tqqfaaPtNcXvnN75b+1tR9raqn2mj7TR74e+W/tbUfa2qp9po+00e+Hvlv7W1H2tqqfaaPtNHvh75b+1tR9raqn2mj7TR74e+W/tbUfa2qp9poFzR74e+WpLhnX6c15z8WrT/hMfiP4S8Nr839oapAJ/aNH3v8A+Q43r0CKTy18x/uJXHfA+6tdb+M/ibxtqk0dvongfTn33L/6uJ3TzHf/ALZwI/8A38r9g8GeH6mZ8QUo9mfoPh7ls8VmUW+h+aX/AAXz+JaePP2+brS4ZPMTwfotjpMm3s7+ZdSZ/wDApK+J85Fdp+0R8X7n4/fHnxd4zuTIknijV57+NH628bv8kf8A2zTZHXF/5+tf6xYOl7LDQp+h/Tspc0ubsHaprD/kJW/+/HUPaprD/kJW/wDvx1Vf4JE0/iIaKO/6UVstgluFFFFBIUUUUAFFFFABRRRQAUUUUAFFFFABRRRQAUUUUAFFFFABRRRQAUUUUAFFFFABRRRQAUUUUAFFFFABRRRQAUUUUAFFFFABRRRQAUUUUAFFFFABRRRQAUUUUAFFFFABRRRQAUUUUAFFFFABRRRQAf5/Gv0M/wCCAv7Tln4Y+KXiL4P+IJo/7D+IkDz6ck7/ALs3qJ5cif8AbxB/6ISvzzrQ8KeLdS8B+KNN1rRryfTNU0e5ju7K5h/1lvPHJ5kb1x47CQxeHnh59RxlaVns9D94vhpDdfCXxzqngbVJP+Qe+bGZ+txA/wByT+YrutYia3bdXlvwl+L9n/wUc/ZX0H4l+F/s9v4/8Lx+Rqmmwv8AvPPT/Xwf9c5P9Yldt8L/AIg23xH8Np2uEJR1brmv8yPGzw7rZNmc8TRh7ktT+fPELhWpg8R9YpfBLUvfb8Ufb6q61YSaZJ/sZNURf4r8KjRufmPs31Nj7fR9vrH+30fb6n6uaezNj7fR9vrH+30fb6Pq4ezNj7fR9vrH+30fb6Pq4ezNj7fR9vrH+30fb6Pq4ezNgahU1gPtU/8AsVk6cG1CXy4/zra1HULXwboclzcP5flpn6mtKODnWn7GlrII4apVnyQOe+M/jb/hEfC/lW+Jr68GyGFD88kj/wAFeAf8FWvi8n7GP/BP+1+GlrcR/wDCafE+R49Q2P8AvYoPv3T/AKpB/wBc5Hr3b4Uw2NzJqnxf8b3UeleEvC0D3di9yf3Z2ffuv/jf/TTFfjL+3f8Atdal+2v+0hrnjS9+0Q6bJ/oukWbv/wAg+yT7kf8A6G7/APTSSSv9C/o8+HX9mYRZjiYe/I/pXgHh3+zMH7efxyPGz+XtRQOKK/qyPY+3e4ZqzpFrNqGs2sNvBJNPcTpGiJHvkd+arV03wW/5LJ4R/wCw3Zf+lCVjiPgkVT+I5miiitVsEtwooooJCiiigAooooAKKKKACiiigAooooAKKKKACiiigAooooAKKKKACiiigAooooAKKKKACiiigAooooAKKKKACiiigAooooAKKKKACiiigAooooAKKKKACiiigAooooAKKKKACiiigAooooAKKKKACiiigD3r/gnt+3XrX7CHxwj8RWayaj4f1ZEtNf0syf8AH5B/z0T/AKaR/wDLMf8AxdfsJr2jab8YPDFj8Y/hBeR6zpuuQfa72zth/wAfnZ32fwTx/wDLSOvwB/z/AJ/+tX0d/wAE8v8AgpF4s/YM8eeZa+ZrPgzVJ/8AicaC8n7uX/pvBwPLm47f6z+P/pn8TxpwXg8/wUsPiIanPjcFRxtH6viPhP2E+H3xM034l6ONkkfn48t0c5puv+FJrH57Y+Yo/hqj4Xi8B/tweEP+FkfB7xJZw6pJxew/czP/AM8LqD/lhJ/t9gOslUdN+LV94J1lND8aabcaPqP8Dz8pcf7aP/y0/wD1V/nf4g+D+ZZDiZ1qEHOmfgfE/AOLwE3Ww/vQITdSRHEnWmm7xXbNaaZ4wtt6yRybv40fMlY+rfDCZObW48zuEevyKV4+7Xjys+DvKD/eowftf+cUfbP84qW58F6pbf8ALvvHqjVW/wCEY1If8uVx/wB8U0qX8yDmp7sk+2f5xR9rzTofCGqXONtpJ/wP5AK1rD4a3tzg3EscOOflO/H41M5Uo7sn2lPZGQtzWvofh+41ht3+rgP8b9K2rHwhp2hYe4k3ydN83FYfi3456fo9xHpulq+o6pcfJBb26eZI4/3PzrswWV4zHz9lg4NnRhcBiMVPloQOk1DUNO8CaPJNcSRxiPrvOPMrkPAngO//AGoNX/tLVPM03wHZyb5Hf91/aez/AJZp/wBM/wDpp/hWjo3wNkudHu/Gnxe1Wz0Pw3pafa3sJ7lI7e2T+/dv+H+rr8+f+Cpf/BYWb472V38N/hPLJo/gGKP7Je6jCnkXGuJ/zzRP+Wdp/wCRJP8Arn+7r+uvCLwHnGcMwzaPZqP+Z+4cH+H8MJbF43fpEqf8Fhv+Cm1v+0PqP/CrPh7NGvw58PzJHe3ltxHrk6fcMfpbx/8ALP8A56SHzD/yzr4I6fh7Y/TtQeD+NFf2phcLTw9P2VHY/SpTTklHYKKKK64gFdN8Fv8AksnhH/sN2X/pQlczXTfBb/ksnhH/ALDdl/6UJWOI+CRVP4jmaKKK1WwS3CiiigkKKKKACiiigAooooAKKKKACiiigAooooAKKKKACiiigAooooAKKKKACiiigAooooAKKKKACiiigAooooAKKKKACiiigAooooAKKKKACiiigAooooAKKKKACiiigAooooAKKKKACiiigAooooAKKKKACg9P/rUUUaha52/wC/aS8afsvePIfEngjXrzQ9Sj/wBZ5Un+j3if8850/wBXJH/10r9Sf2X/APguP8Nf2jNAt/DHxw0Wz8M6jJ8j3/kyXGj3j/8APT/npa/+P/8AXT0/H+gfz6+9eZmWV4fGw5K9O6NIyXwS2P6Fo/2WtN8R6MmvfC3xvbvp13+8gQ3P9padOf8AYmTj/wBDrKurD4qfD4f8TDwudYt4/wDltpcyT7/+AZ3/AIeXX4ZfBz9ozx5+z1rP9oeCfFviDwzcSP8AP9gupI47n2dP9XJ/206819gfCL/g4S+M3gi2WHxRpvhfxpbx/wCsmmtf7PvZf+Bwfu//ACGK/GOJPAXJMxfPCPK/7p8/mHCeUY744crPvy7/AGjE0KXZrOiaxpUn8aXli8OPxfimf8NZ+ET968t436Y8w14J4N/4OTvCt1BH/wAJB8MfEGmyfx/YNUhu/wAvMjg/mK62H/g4x+C0sf73wj8UPM/2dOsv/kqvy3E/Rewc5/u5/h/wT5mp4WZdN+5V/wDJT06P9qDR9Q/d6fZ3mpSn7iW0D3GTV208RfETxv8AJovgnWIY5OfO1BPsMY/7+bK8I8Uf8HInw9s45P7F+HvjS+kx8hvJ7Wzx+Mckn6V4t8Vv+Djn4ha7byQeEPAfhfw2ZODNfXU+pXEX5eRH/wCOd69TK/oy5bRn++fN+H+Z0Yfwyyij8cuY+/NL/ZQ8VeLP9I8ZeKo9Ps8b3s9LH7zH/XZ8/wDouvKPjd/wUr/Z5/YE02603wr9n8beLtmx7bR5vtEksmP+W97+8jjP/TOMSSf9M6/KH4/ft9fGD9po3EPjLx5rmo6fccyadA/2SwH/AGwg2Ryf9tK8eH+cV+2cM+F+TZT/AAaOp9hgMtwGB/3Sl8z3r9tP/go78S/24dZ/4qbUvsPhuB/MtdBsPMj0+Af335/fydPnk4/6514L/n6UUV+lU6cKcPZ0zsqVOcKKKKokKKKKcdwCum+C3/JZPCP/AGG7L/0oSuZrpvgt/wAlk8I/9huy/wDShKxxHwSKp/EczRRRWq2CW4UUUUEhRRRQAUUUUAFFFFABRRRQAUUUUAFFFFABRRRQAUUUUAFFFFABRRRQAUUUUAFFFBPH+eKACius+Dfwb1j43eMY9L0mOOMxr5k9zN/q7dP7/wDOvoKL/gmSnl/P45k3/wCxonH/AKP/AM81xVsfSpT5JyNqeGnP4T5Ror6u/wCHZMI/5nqT/wAEn/2+j/h2VD/0PUn/AIJP/t9Yf2thv5zf6jWPlGivq7/h2VD/AND1J/4JP/t9H/DsqH/oepP/AASf/b6P7Ww384vqFY+UaK+rv+HZUP8A0PUn/gk/+30f8Oyof+h6k/8ABJ/9vo/tbDfzh9QrHyjRX1d/w7Kh/wCh6k/8En/2+j/h2VD/AND1J/4JP/t9H9rYb+cPqFY+UaK+rv8Ah2VD/wBD1J/4JP8A7fR/w7Kh/wCh6k/8En/2+j+1sN/OH1CsfKNFfV3/AA7Kh/6HqT/wSf8A2+j/AIdlQ/8AQ9Sf+CT/AO30f2thv5w+oVj5Ror6u/4dlQ/9D1J/4JP/ALfR/wAOyof+h6k/8En/ANvo/tbDfzh9QrHyjRX1d/w7Kh/6HqT/AMEn/wBvo/4dlQ/9D1J/4JP/ALfR/a2G/nD6hWPlGivq7/h2VD/0PUn/AIJP/t9H/DsqH/oepP8AwSf/AG+j+1sN/OH1CsfKNFfV3/DsqH/oepP/AASf/b6P+HZUP/Q9Sf8Agk/+30/7Uw/84/qFbofKNFfVp/4JlQkf8j1J/wCCT/7fXifx8/Z01j9n3W4Yb5o77Tbz/j0u4k/dyf7EiYGyStqGPo1ZcsZGc8PWgvePPqKD1ortOYKKKKACiiigAooooAKKKKACiiigAooooAKKKKACiiigAooooAKKKKACiiigAooopx3AK6b4Lf8AJZPCP/Ybsv8A0oSuZrpvgt/yWTwj/wBhuy/9KErHEfBIqn8RzNFFFarYJbhRRRQSFFFFABRRRQAUUUUAFFFFABRRRQAUUUUAFFFFABRRRQAUUUUAFFFFABRRRQAUCiigD6u/4JlQ5t/HDf8ALTfp3/t3X1NnNfLP/BMr/UeOv+umn/8At3X1NXxOcf7xI+iwH8IKKKK806gooooAKKKKACiiigAooooAKKKKACiiigAooooAKKKKACiiigAzgGvA/wDgo/F/xYjTpP8Alp/b0P8A6IuK98HX8K8D/wCCjH/JCNN/7D0H/oi8ruy//eYmGK/gSPifOaKKK+6PmgooooAKKKKACiiigAooooAKKKKACiiigAooooAKKKKACiiigAooooAKKKKACiiinHcArpvgt/yWTwj/ANhuy/8AShK5mum+C3/JZPCP/Ybsv/ShKxxHwSKp/EczRRRWq2CW4UUUUEhRRRQAUUUUAFFFFABRRRQAUUUUAFFFFABRRRQAUUUUAFFFFABRRRQAUUUUAFFFFAH1d/wTK/1Hjr/rpp//ALd19TV8s/8ABMr/AFHjr/rpp/8A7d19TV8Tm3+8S+R9Hgf4QUUUV5p0hRRRQAUUUUAFFFFABRRRQAUUUUAFFFFABRRRQAUUUUAFFFFAAOv4V4H/AMFGP+SEab/2HoP/AEReV74Ov4V4H/wUY/5IRpv/AGHoP/RF5Xdl/wDvMTHFfwJHxPRRRX3R8yFFFFABRRRQAUUUUAFFFFABRRRQAUUUUAFFFFABRRRQAUUUUAFFFFABRRRQAUUUU47gB610vwU/5K74R/7DVr/6Pjrmq6b4Lf8AJZPCP/Ybsv8A0oSscR8EiqfxHM0UHrRWq2CW4UUUUEhRRRQAUUUUAFFFFABRRRQAUUUUAFFFFABRRRQAUUUUAFFFFABRRRQAUUUUAFFFFAH1d/wTK/1Hjr/rpp//ALd19TV8s/8ABMr/AFHjr/rpp/8A7d19TV8Tm3+8S+R9Hgf4QUUf56VDf38GlWclzczR29vbx+Y800nlxxpXms6SaiuXHxv8Gk4/4S7wueeManDnP03/AP166Kwv4dVso5oJori3k+dHSTzIpKAJqKz9L8WaXrOqXdnZ6lY3V9YZ+1Qw3KSS23++n/LOtAdP88UAFFFFABRRRQAUUUUAFFFFABRRRQAUUUdP6e9ABRTYJFuraNopI5I5E3pIn/LSnHr796AAdfwrwP8A4KMf8kI03/sPQf8Aoi8r3wdfwrwP/gox/wAkI03/ALD0H/oi8ruy/wD3mJjiv4Ej4nooor7o+ZCiiigAooooAKKKKACiiigAooooAKKKKACiiigAooooAKKKKACiiigAooooAKKKKcdwCum+C3/JZPCP/Ybsv/ShK5mum+C3/JZPCP8A2G7L/wBKErHEfBIqn8RzIOf5UUUVqtgluFFFFBIUUUUAFFFFABRRRQAUUUUAFFFFABRRRQAUUUUAFFFFABRRRQAUUUUAFFFFABRRRQB9Xf8ABMr/AFHjr/rpp/8A7d19TV8s/wDBMr/UeOv+umn/APt3X1NXxGbf7zI+kwP8EK5f43/8ka8Ve2l3R/8AHK6iuX+NvPwc8VDrnSrof+OV5kvhR1U/ij8zxP8AZa/Zu8G/Ev4MWOq6zo32rUrieeOSYXU6fx/7D7DTv2ffO+C37S+ufD+G5uLjQ7hPtFpHK5+STy0f/wBF039lr9pLwb8Ovg3Y6XrWsG11K3nnkkhFrPJ/y0/6ZpU3wCim+NP7Tev+PoLW4h0O3T7PaySp/rZNkaf+i/Wr+1/XYlfCbnwu+L8MPxR+JX2rRfD9jB4b8+d7qwsvLvLxEeT78n/LT+vNM0D43/Ezx54H/wCEq0HQfC91o4kcppnnzSahL5b+X/1zrA+BM1nZ/HX4vPqUUlxY+ZP9qRIHk81PPk8z92nWuRvvCXga18L33ifwH8QrzwzdW6O6abdXXl3Enl/wJ8+/sP79RH4Y+pUt5ep9EeLfjT/wrz4P/wDCT69pdxpt1sj/AOJc86SSef8A3N/evMx+0t8StAttO1jVvAdv/wAI5qbp5Ity/wBsO/7g+/8A+yR1jfEWPxV8X/2LtN1TUobifUrO9+2SfJ5ck9vH5ke/Z/wPvXVp+3F4R0rwPo/2WO81DVpEggn02GGSOSDrv/ef6t6qPxSJ+wdV8df2hj8LrPR7XTdNuNW8QeIOLKzf935f+/09/wB3/OuV0X9pbxb4J8YabpXxG8N2ejQaxJstb2zf93H/AL43yf171i/tGX1z4O+NHgP4g3mnXn9jxwxx3SPGfMsnzJ9//pp+86D/AJ51l/tD/EvS/wBpvV/DHhjwe1xqlwL37RNL5LpHbJ/q+N9TH4glsjvPjl+0hrHwq+MGi6DY6Tb6taapa7/JRJPtEk7vIiJHJv8AL6on/LOqngL9pHxdbfGO18I+NPDdnpVxqieZavbP5hjz9z+N/M+5WV8aocftp+AY+32VPw+e4qT40/8AJ7XgH/r0T/0OeqXQKm8v8JsfFH9pfxF4J+Of/CK6XolvrH2q0T7JCnmJcSTuP7+/y/L/AM+1Hwg/aM8Saz8WLjwZ4y0Gz0vVRD5kAtu/7vf/AH3/AOWeP3lYuqf8pBbH/sHf+0JKdqxx/wAFBLH/ALBfX/thJSp7R+f6h2NHxd+0l4q8RfEDVtC+Hfhuz1waC+y9ubyT92ZP+mfzx/59K6f4OftG2fxF8H6xqGqW/wDY994a3/2rbuf+Pfy/4/8Axx+9eAeHLXSvhp8XfF2leLPE/jDwj5l19otZtJndI7xPMk+/sR/7/wD6HXf/AAv+Hvhrxh8MvHd14N1LxRqV7rVq9pO+sf8ALSfEkn3ymZOlL7BX2wH7UnxC8U6RdeJPDvgyzfwjZyP5k1y/+kyRx/8AA/8A2nJUH7UnxR8QeMv2e9J1Kz0q40rS9Ufy9USb5Li2f/lmn/LPzI5Pn/5Z/wD14PgF+0/4b+EfwU/sfWjcW+u6E88f2AwyGS4k8yST7/8AAPn8v95Wt+0f43k+LX7I/wDbUWm6hpsc13BJ5N1/rPL3+X5h/wCmfH41FX4UOn8TO+/Zl1TxRqnwztf+El02z037PBAmnC2f/j4tfLTY7/PJz+deidK4X9nj4j6P8Qfhnpq6VcedJpdrBaXS7HT7PJs+5XdVvU+IzpgOv4V4H/wUY/5IRpv/AGHoP/RF5Xvg6/hXgf8AwUY/5IRpv/Yeg/8ARF5XbgP96iZYr+BI+J6KKK+5PmQooooAKKKKACiiigAooooAKKKKACiiigAooooAKKKKACiiigAooooAKKKKACiiinHcArpvgt/yWTwj/wBhuy/9KErma6b4Lf8AJZPCP/Ybsv8A0oSscR8EiqfxHM0UUVqtgluFFFFBIUUUUAFFFFABRRRQAUUUUAFFFFABRRRQAUUUUAFFFFABRRRQAUUUUAFFFFABRRRQB9Xf8Eyv9R46/wCumn/+3dfU1fLP/BMr/UeOv+umn/8At3X1NXxObf7xL5H0eB/hBUN/YwarZyW1zDHcW9xH5bwzR+ZHIlTUV5rOk5cfA/wb/wBCj4XHYf8AEshzn67P/r10lraQ2FusMEMdvbpyiRx+XGlSUUAUNM8KaVo2q3V7Z6bp9rfagc3U0Nqkclx7PJ/y0qjc/C/w3fap9ruPD2h3F95nmfaW09JJD9JNlbtFAB2Prj0H5YrJsvh9oGmaydQtNF0eC+/1n2qGxRJMf79a1FAEd3aw39vJDcQxz28n+sR0EiP9fzqj4b8GaR4RMh0nSdP03zz8/wBktUt9/wBTHWlRQBn3/hLSdU1y31G403T5tSs+ILx7ZHuIP9x6L/wlpWq65BqVxpunzalaf6i8e1R7i3/65vWhRQBn/wDCKaVLr8erNpun/wBqRpsjvPsqfaAn+/8A6yj/AIRLSpfEMeqNpun/ANqRp5aXn2VPtGz/AH/v1oUUAZfiLwbo/i3y/wC1tL0vVPL5T7ZapcGL/v5V/T7C30uzS2tYbe0hj+5DBGI44vYdqlooAydT+Huga7qn2680PR7u9j/5eZbJHkPtv7VoXVjDfWb2txDHcQSJskiZBJHJ/T8KmooAz9A8J6X4Rt5IdL0zT9Ngkk8x47O1S3jkHplK0Cef1oooAB1/CvA/+CjH/JCNN/7D0H/oi8r3wdfwrwP/AIKMf8kI03/sPQf+iLyu7L/95iY4r+BI+J6KKK+6PmQooooAKKKKACiiigAooooAKKKKACiiigAooooAKKKKACiiigAooooAKKKKACiiigANdL8FT5fxh8Jf9hu1/wDR8dc0OldF8H/+SteGf+wxa/8Ao+Os8R8BVP4jnaKKK0WwS3CiiigkKKKKACiiigAooooAKKKKACiiigAooooAKKKKACiiigAooooAKKKKACiiigAooooA+rv+CZX+o8df9dNP/wDbuvqavln/AIJlf6jx1/100/8A9u6+pq+Jzb/eJfI+jwP8IKKKK806QooooAKKKKACiiigAooooAKKKKACiiigAooooAKKKKACiiigAHX8K8D/AOCjH/JCNN/7D0H/AKIvK98HX8K8D/4KMf8AJCNN/wCw9B/6IvK7sv8A95iY4r+BI+J6KKK+6PmQooooAKKKKACiiigAooooAKKKKACiiigAooooAKKKKACiiigAooooAKKKKACiiigAHSui+D//ACVrwz/2GLX/ANHx1zo6V0Xwf/5K14Z/7DFr/wCj46yqfAVT+I52iiitVsEtwooooJCiiigAooooAKKKKACiiigAooooAKKKKACiiigAooooAKKKKACiiigAooooAKKKKAPq7/gmV/qPHX/XTT//AG7r6mr5Z/4Jlf6jx1/100//ANu6+pq+Jzb/AHiXyPo8D/CCiiivNOkKKKKACiiigAooooAKKKKACiiigAooooAKKKKACiiigAooooAB1/CvA/8Agox/yQjTf+w9B/6IvK98HWvA/wDgo5/yQfT/APsOwf8Aoi7ruy//AHmJhiv4Ej4noo7/AI0V90fNBRRRQAUUUUAFFFFABRRRQAUUUUAFFFFABRRRQAUUUUAFFFFABRRRQAUUUUAFFFFAAOldF8H/APkrXhn/ALDFr/6PjrnR0rovg/8A8la8M/8AYYtf/R8dZVPgKp/Ec7RRRWq2CW4UUUUEhRRRQAUUUUAFFFFABRRRQAUUUUAFFFFABRRRQAUUUUAFFFFABRRRQAUUUUAFH6+xHWiigD0L9nP4+3f7P3jCS+jh+3abqCfZ7228zy/Mj/56f9dI8/hX0rF/wUc8B+Vh9N8WRv8A9ekPH/keviiivPxGX0qs+eR1U8ZUhpA+1x/wUY8Bn/mHeMP/AABg/wDj9L/w8X8B/wDQP8Yf+AMH/wAfr4norH+xcMV/aFY+2P8Ah4v4D/6B/jD/AMAYP/j9H/DxfwH/ANA/xh/4Awf/AB+vieij+xcPuP8AtCsfbH/DxfwH/wBA/wAYf+AMH/x+j/h4v4D/AOgf4w/8AYP/AI/XxOK0fCXhe58Z6zHZ2uxH2O8k0r+XHAifvJHd/wC5H/nvR/Y+H3L+v1mfY/8Aw8X8B/8AQP8AGH/gDB/8fo/4eL+A/wDoH+MP/AGD/wCP18rv4c8DW37uXxV4knkj+89t4fjktn/3C91G/wD5D70DRfAeP+Rj8YDv/wAi1B/8m1n/AGXhw+uVj6o/4eL+A/8AoH+MP/AGD/4/R/w8X8B/9A/xh/4Awf8Ax+vlf+xfAf8A0MnjD/wm4P8A5No/sXwH/wBDJ4w/8JuD/wCTaP7MwwfXKx9Uf8PF/Af/AED/ABh/4Awf/H6P+Hi/gP8A6B/jD/wBg/8Aj9fK/wDYvgP/AKGTxh/4TcH/AMm0f2L4D/6GTxh/4TcH/wAm0f2Xhw+uVj6o/wCHi/gP/oH+MP8AwBg/+P0f8PF/Af8A0D/GH/gDB/8AH6+V/wCxfAf/AEMnjD/wm4P/AJNo/sXwH/0MnjD/AMJuD/5No/svDh9crH1R/wAPF/Af/QP8Yf8AgDB/8fo/4eL+A/8AoH+MP/AGD/4/Xyv/AGL4D/6GTxh/4TcH/wAm0f2L4D/6GTxh/wCE3B/8m0f2Xhw+uVj6o/4eL+A/+gf4w/8AAGD/AOP0f8PF/Af/AED/ABh/4Awf/H6+V/7F8B/9DJ4w/wDCbg/+TaP7F8B/9DJ4w/8ACbg/+TaP7Lw4fXKx9Uf8PF/Af/QP8Yf+AMH/AMfoH/BRfwH/ANA7xh/4Awf/AB+vlf8AsXwH/wBDJ4w/8JuD/wCTaP7F8B/9DJ4w/wDCbg/+TaP7Lw4vrlY+qP8Ah494DX/mG+MOP+nKD/4/XgP7Uv7Uk37QN/a21rbSaboenyb4IXf95cP/AH3rlf8AhF/BuqZhs/FWsQXWPkfUdEjt7cf77pdTvH/37/PNczrejXXhzWLixvIfs91av5cieh/z/npW2Hy/DwlzRIrYirOFpFU9fpRR/jiivUOMKKKKACiiigAooooAKKKKACiiigAooooAKKKKACiiigAooooAKKKKACiiigAooooAK6b4K/vPi/4U3f8AQYtcf9/465mum+C3/JZPCP8A2G7L/wBKErPEfAVT+I5miiitFsEtwooooJCiiigAooooAKKKKACiiigAooooAKKKKACiiigAooooAKKKKACiiigAooooAKKKKBPYD0/r6V9Nfsffs0fCvx5+zD8UPiX8UJviB9h+H97p9pHbeFbm1juJ/tcnl/8ALdH/AOWmz/nnXzKOf8cdK+4P2B/is/wX/wCCbX7Q/iFfDnhfxM9nqeg/8S3xJp8d/p9z5k5T95BJ9/8A1nme0mKxrXdOS9PzRrTf75N/1ozhvHv7LXwh+K37Lnib4jfBa8+KEd/4I1WysNV0fxalrcSXiXz+RA9q9rH9/wAz+D6+9cV8S/8Agm78bPhD8O77xV4h8B3lno+mQx3GotHfWs9xp6P/ABzwQTyXEH/A07d69R+C/wDwU31nxZ8fPhfpviaw8D+Bfhho/iyx1bUdH8KaBBpmnSOj/wDH3Oiff8v/AFn/AGzr2L4Xfs7+Nv2VP2kfjZ8WviV9it/hrq+i6/HHqs2qQ3Fv4w+2mT7JDB8/77zPkk9c/WuCpWrUbt+f4W0+ZvGEKkuXyj+Lf5Hz18Bf+CTfxa+KfiDwPc6p4ej0fwf4wnspv7VfWtOjk/s6eRP38ELzeZIfLf7nl+Z0j968k/aq+AV5+zR8e/Eng+8X93pt6/2FxewXjyWvmSeQ7vB+7MnljHl/X93X1X8Y9Uj0/wDba/Ytku7jy7Wz8G+CJN0z/u4x9r/efyz+VfNn7enwv174Wftd+P7PxJpNxpd1qGvXup20c3/Lzazzu6P/ANc5I66vaTc1H1/AJU4xptLyPIicnd/hXYfDQeX4R8fvH/rE0FP/AE42Edcf1H5D68V2Hw0/5E/4gd/+JBB/6dLCtpXUDmp2vqdZ+xt+y3H+05401j+1tc/4Rnwb4P0efXvEmsGD7R9ktE/uJ/HJJ9xI+9eiaV8IP2afjdo/iDTfBfiz4ieA/FWn2U99pVz49vtO/sfWfL/5YeZAieRPJ/B+8c1J/wAE1fFmj6zYfFr4V6trOl+HJvi54Y/s7SNSv5Ps9vHqMEm+CB3/AOWccg3x4+taPw9/4Jaa98LhrniT9oO3u/hz8P8Aw/ZTN9pi1C1N3rF1s/cWlr/rDIJH55T/AFfviuetK1R3fL7ptTjzUvd/m/yMTwn+y38Nfgv+z/4Z8efGvVPHH2r4gJJceGvDfhaOCO8+yRybPtV3NNHIiJJ1SPy/f3j3I/2F/APxat/h742+GWveLL74deJfGVl4P8RWGsJBHrnhueeSP94ZET7PJHJHJ8j7P+eddN8TPgtrH/BRj9mb4Q6x8K4bfxB4p+HPhqPwf4l8MrdQJqFpHA8nkXSI/l+ZHJv+/H/8cx3H7PPhGb9h74b+D/hj4yuNPh+JXxQ+KPh2+n8PW18l5caJp1rdxyI91s/dxySSD7nXZWPM+bm+1zfD/dv/AJamns7u0NI8v6f56Hz7/wAFIf2HtP8A2P8A9o+x8M+DbjWNf8N+ILVLjSJryRHuJJvPkgng3oiRvJHcRyc+X/y0j6V7F+0F/wAEtfhb8AviD8L9N1z4jXuh6PquiajqXi7Ur+6tf9fp2yOe106Py4/3kk7yRxxyeZz/AH8V7Np+oeH/AIteN/iFr3ih7eST9lf4ma/4o8l/9ZeadP586QR/89D/AGlAn/fw15f8YPhS/wC278F/2adN1rxhp3h3xP4k8PeKdRsrq/g/d6xqv9peYlrv3x+T58nmfvPWuaNWtaML9fzTaNK1GEZy5e35NJ/15ng/7Rn7Mnw50/8AZT0P4vfDWb4gabo2oeIpPD8+m+MEtRcXb+R56XVrPAkccifu/Lk/28182mvv79r8+PtL/wCCfF9Z/tKfZP8AhZUXiKFPAEN79k/tiC1/5ff9T/y6f9dP+Wmz/plXwD/njpXoYOfMpJnPielgooorsOcKP89OlFA60BqbXw+8BXHxH8TwaVa3NnZ3VxHJtFw7oj9f3dekTfsUeKo4976l4fjTr/rpv/iK8n0XWLrQNXtL+1k2Xlm8dwj+j9K+iPjJ+0ZY6n8F4P7LvLf+1tejEE8Kv+8s0/5aCT9I68vFyxEasVR26nZR9lye8fN93ELW8khR45/Lfy96f6t66r40ReV4ytdv/QB0eT/ylWdcnjH8q7D44f8AI32X/YB0X/01Wldi31OaVuXQ4/tRRRXQQFFFFABRRRQAUUUUAFFFFABRRRQAUUUUAFFFFABRRRQAUUUUAFFFFABRRRQAUUUU47gFdN8Fv+SyeEf+w3Zf+lCVzNdN8Fv+SyeEf+w3Zf8ApQlY4j4JFU/iOZPWijv+lFarYJbhRRRQSFFFFABRRRQAUUUUAFFFFABRRRQAUUUUAFFFFABRRRQAUUUUAFFFFABRRRQAUUUUAFFFFABRRRQAUUUUAGef88f5z+tdR8Kr+3D65pV5cpYx+I9P+wpczf6u3k8+3njD/wCx5kKJ/wAD+lcvRUzvPY0Owk/Z88cD/U+E/El1GD8k1tp8lxbP/wBc3T5JKX/hnzx4P+ZJ8YZ750ef/wCIrjqKz98n3TsP+GffHn/QkeMP/BPP/wDEUf8ADPvjz/oSPGH/AIJ5/wD4iuPoo98PcOw/4Z98ef8AQkeMP/BPP/8AEUf8M++PP+hI8Yf+Cef/AOIrj6KPfD3DsP8Ahn3x5/0JHjD/AME8/wD8RR/wz748/wChI8Yf+Cef/wCIrj6KPfD3DsP+GffHn/QkeMP/AATz/wDxFH/DPvjz/oSPGH/gnn/+Irj6KPfD3DsP+GffHn/QkeMP/BPP/wDEUf8ADPvjz/oSPGH/AIJ5/wD4iuPoo98PcOw/4Z98ef8AQkeMP/BPP/8AEUo/Z98ef9CT4w/8FE//AMRXHUUe+HudDrJvgP4wtRuv/DesaTB/Hc6lYyWdvGP9uR/kqj8UNeh8ReMJLi0bz7WytbWwgm8vZ56WtrHB5n/bTZ5lYNFaez/nDXoA4H/16KKKokKKKKACiiigAooooAKKKKACiiigAooooAKKKKACiiigAooooAKKKKACiiigAooopx3AK6b4Lf8AJZPCP/Ybsv8A0oSuZrpvgt/yWTwj/wBhuy/9KErHEfBIqn8RzNFFFarYJbhRRRQSFFFFABRRRQAUUUUAFFFFABRRRQAUUUUAFFFFABRRRQAUUUUAFFFFABRRRQAUUUUAFFFFABRRRQAUUUUAFFFFABRRRQAUUUUAFFFFABRRRQAUUUUAFFFFABRRRQAUUUUAFFFFABRRRQAUUUUAFFFFABRRRQAUUUUAFFFFABRRRQAUUUUAFFFFABRRRQAUUUUAFFFFOO4BXTfBb/ksnhH/ALDdl/6UJXM103wW/wCSyeEf+w3Zf+lCVjiPgkVT+I5miiitVsEtwooooJCiiigAooooAKKKKACiiigAooooAKKKKACiiigAooooAKKKKACiiigAooooAKKKKACiiigAooooAKKKKACiiigAooooAKKKKACiiigAooooAKKKKACiiigAooooAKKKKACiiigAooooAKKKKACiiigAooooAKKKKACiiigAooooAKKKKACiiigAooooAKKKKACiiinHcArpvgt/yWTwj/2G7L/0oSuZrpvgt/yWTwj/ANhuy/8AShKxxHwSKp/EczRRRWq2CW4UUUUEhRRRQAUUUUAFFFFABRRRQAUUUUAFFFFABRRRQAUUUUAFFFFABRRRQAUUUUAFFFFABRRRQAUUUUAFFFFABRRRQAUUUUAFFFFABRRRQAUUUUAFFFFABRRRQAUUUUAFFFFABRRRQAUUUUAFFFFABRRRQAUUUUAFFFFABRRRQAUUUUAFFFFABRRRQAUUUUAFFFFABRRRTjuAV03wW/5LJ4R/7Ddl/wClCVzNdN8Fv+SyeEf+w3Zf+lCVjiPgkVT+I5miiitVsEtwooooJCg80E4r2D9kD9ka6/bD1HxVomh61Z2PjHStI/tLRNHlRP8AipHST54I3eRI45PL/ef8tKJe7FTfexUrtaHU/FP9iePTvgj+z/qvgu38SeIPGPxfh1HztO/d3EZngnjjjSFEj8xP3b/vPMd+3Wsb4jf8E9fix8B20e+8b+D7y10DUNUj02S503UbK/Ec7v8A6h3gnkjgk/66bOa+6vB2qWf7N/i79nP4XeL9Y0fwz8Q9N8B+JtJcy3ySf8I/qOo/8eO+RMRpJ8n/AJEryr9n34A+Lv2Hv2cvihbfFzT7fw/J481HRNM8O6Pc6jDJcapewaikkl1Gkbyfu448yb68z64+ZuK+1/4Fq1oa8kvZLn+K1vw3/rseJ+O/+CZ3xC8UfGDxxpnw28EeJLjw34V1f+yJxr+r6XHeWEn2fz/9LeOfyfufxx/J/q/3nmGtX4A/8EpvHnjf40eLfB/jbSbjw1feHPCc+uwQpqtl/psnkyfYfLd38uSCSRP3jx5jj8v5/Lr6P/4KJ3U1t8A/2rEiZ447j4r6VG4STiSP7DHx9K0/hro83i2D4J6VZKlxrniT9nfW9J06J3RJLy4kSTyIY9/f/GuOnjqzoczXX/2250woUfack+//ALdY/MDxH4YvPCXia+0e/SOPUtLuntJkhnSfy3STy5Pnj/dvx/zz/wD1/V/7Z3/BN3R/2dP2aNH8VaHrGqar4u0GeysPiFps0kb2+j3V9aRzweXsjSSOP59nz7/3mz3rlf8Agnf+zf8A8JH+23b2HjazfT9H+F8l14h8VR3B/wCPODTf3jxvj/p42R8V9NfAL9ov4JftifG34o+BYIfiZY6x+0ZBPBPN4kvbG40+0vU3z2PlpBAkieXJ+7j/AHknWu/E1qns17L/ABP/AC+ephGEVUlOW+sV/n8tD5J+Gf8AwTJ+N3xh8H6P4h8P+ClutH8RQ+fpdzJq9jbx3ib3j+Tz5k+f92/7vPmfSub+FP7D3xU+N3izxFovhzwfezal4PfyNaS8uoLGPSn37Nkk07pGknmJjy/MzX0d+13omreAfAv7H+gal59jqXh+0uoLiEvxb3ceqbJM/wDfH1/lXtH7aXwv1v8Aag0b47/Df4bxpqXjTR/isniTVNBhnS3uNU02TToIEnTzNnmeXcf8sz6+9YfXqlvd8/waX6io0uZ8kvi5V+Kb/Q+U/Bv/AATZ8UeEr/x5b/FXR9Y8K3WhfD3WPGGiQw3trJ9rnsXjj+fy/M+TzN/9zzP+WdcX8Kv+Cc/xq+NHw/tfE/hvwPPfaNqG+Syee9tbWTUdmQ/kwTOjz/8AbNJO1fenxC8Ea98M/hfY6D4muI7rxBo37M3iK0vdlwk/lyRzx/uPMT5H8v8A1f8A2zo1keNPjPpnwW8VfB34S/Bvx94d0/wvpdpH4i17zBceDr61/wBek7pep5EcEn7z93H/AN/OaSxc2uZf1q/8jT6utv62X+Z8B/Bv/gnt8YPj7ok2peGfBtzNY2+ovpMj399a6aZLpPvwp9pkTzHj/uR/pXlnjLwbqvgDxTqWia3Y3Gl6xo872l7Z3MflyW7py8b9efb/AOvX6Z+EP+E//ag8PXdxrHwt+E/7QXhn/hMdRnT/AIQbxJd6JqHhO9eePz54538uTyLiT9/H9/f9+ST7lfEH/BQrw5o/hL9sfx5puh+KtU8aabb3qbNV1HUPt9xcvsj8xHn/AOW4jfenmdf3fvXRRxc5S5J/1sEqMIQko/1ueoftU/sAaVoXx48K/C74N6P488WeNdQ0iDVtRGp3trJbFJ4I3TZsSPyI4xv3vJJ/crA+Mn/BOzXvgP8Asm6b4q8UaXrFr471Txsnh+ysLe6tb+zvLKSx89JIfI3+ZJ56bP3cnonl19gfFa6TxH+2J8UPBNheWem+MviB8FdO0Xw01zMlv9su/Igke0R3+5JPGlYfwN+GeufsM/s1fBX/AIXNDFo9rZ/G6DUvsFzcxz/2PA+nXCRvJsk/d/vP3/b+/XPHET+Ff1qTFe4pf3UvwufGPxP/AOCc/wAafg58PrrxP4j8D3Fho+lRxyXrxX1reXGnJJ9zz4YHe4g/7aRp74rS+Hn/AATA+OvxW8FaPr2h+Abi603xBGk+nB9Rsbe4ngd/L87yHmjk8v5/9Z5fl9Xr7G+Mlt8XPg2fjF4luPhL+zv4N8I6hpeowzeMbr7X5niyyupPuQOl6/nT3HyP/q87/v7BW1o37Pvjz42/8FSPhv8AHLwbc2918I7+PS57HW4dQgjt9PtY7WOB9O2eZ5iP5m+PyPL6yf79FPGTd+b+rG1TDwUVyHx3r37KPgm1/YM8R+PLePxpY/ELwP4og8L61Z3l7a3GlyzyeZv8iNId/fr5lfMv8u1fcfj3j/gnp+0Z/wBlkjH0/wBZXw4On41tltaVVTc/L8kzKtCMVCPr+bCiiivSRyBRRRQAUUUUAFFFFABRRRQAUUUUAFFFFABRRRQAUUUUAFFFFABRRRQAUUUUAFFFFABRRRQAUUUUAFFFFABRRRQAUUUUAFFFFABRRRQAUUUUAFFFFABRRRQAUUUUAFFFFABRRRQAUUUU47gFdN8Fv+SyeEf+w3Zf+lCVzNdN8Fv+SyeEf+w3Zf8ApQlY4j4JFU/iOZooorVbBLcKKKKCQoo6/wCetbeg+EbbVvDd9rGo69o+gabp9zBavPfx3UnmTzxzyIieRBJxiCSlUqQjDmmVG89jEorb/szwkf8Ampng/wD8AtZ/+QqT+y/CX/RTPB//AIBaz/8AIVc31qj/ADF+wmzFora/svwl/wBFM8H/APgFrP8A8hUf2X4S/wCimeD/APwC1n/5Co+tUf5h+wqGLRW1/ZfhL/opng//AMAtZ/8AkKj+y/CX/RTPB/8A4Baz/wDIVH1qj/MH1eoYv+f8/wCe9exfs/ftA+A/h/8AD/VvC/j74S6X8Q7G7vUv7W/g1V9F1jTn2eXsF0iSSPBz/qP+en7yvN/7L8Jf9FM8H/8AgFrP/wAhUf2X4S/6KZ4P/wDALWf/AJCrP61Ql9oFRqJ3O5/av/abk/ac8X6PdWvh+y8I+HPCekQaDoOiW0zzjTrGDzPLR53/AHjv5kj/ALyvLPz9s1tf2X4S/wCimeD/APwC1n/5Co/svwl/0Uzwf/4Baz/8hVVPEYWPwsuVOtIxaM4P6/5/Titr+y/CX/RTPB//AIBaz/8AIVH9l+Ev+imeD/8AwC1n/wCQqr61Rf2iPq9RHrn7cH7XGg/theIPD+t2Xgefwr4g03T4NN1G5fXv7Qi1BIII0g2J5CeR9yT/AJ6f6z8/CTwfX69a2v7L8Jf9FM8H/wDgFrP/AMhUf2X4S/6KZ4P/APALWf8A5CqYYjDR+Ev2dWSsYtfV3gj/AIKE/D/4feINF8Z6V8AfDdj8UNDskgtNYs9aktdHjukTZHff2YkezzP+2n+s+evmv+y/CX/RTPB//gFrP/yFR/ZfhL/opng//wAAtZ/+QqJVsNP4pDp0akT2LWv2zNHu/wBi7UvhXZeC7y11jxBrcGu634kl177R/aF0nmfP9m8n939//npXgf8An/P+e1bX9l+Ev+imeD//AAC1n/5Co/svwl/0Uzwf/wCAWs//ACFUU6+Hp83s2KdOtL4zFora/svwl/0Uzwf/AOAWs/8AyFR/ZfhL/opng/8A8AtY4/OyrVYujb4iPq8zForptG8D6L4ouJ7fSfHXhfVL63srq/S1itdSjkuI4IHuJNhktY0/1aSdZK5kdP8AP/660p4iM/gM6lOUNwooorYkKKKKACiiigAooooAKKKKACiiigAooooAKKKKACiiigAooooAKKKKACiiigAooooAKKKKACiiigAooooAKKKKACiiigAooooAKKKKACiiigAooooAKKKKACiiigAooopx3AK6b4Lf8lk8I/8AYbsv/ShK5mum+C3/ACWTwj/2G7L/ANKErHEfBIqn8RzNFFFarYJbhRRRQSA6VpeLf+Tade/7GXR//SXUqzR0rS8W/wDJtOvf9jLo/wD6S6lXHmH8E6sP8Z403WkpW60h6f41836npBRXpn7LXw08L/FX4rafpPijWb7SdOuJYYlSzg864v3eaOHyE3/JDne7edJ/q0jY7JH2I/sPwy/Ym8N+KP2w/it4Dkh8Va5pfgGPXJdLs9NuUj1PVms5jHDFv8iQb34zsh684FeLjc9o4apKlNaxVzz8RmFKjJxlulc+UqK779ofwlZ+AviHNpNr4R8XeCpLGFFu9M8SX3n38cj5feP9GtfLjkjdMIUz334cVwPavUwuI9rRVZfaOzDyU6ftEFFHX/8AVXQfDLQ9F8R+LrS017Wn0PS23NdXUNkbuSPajvtjhDpvd+I0G9E8yQb3SP8AeCq1T2VP2hcp8kfaMwC2QPakr688e/sSeDdC/wCChXgT4a2F14iHhXxVbaZNM9xcwvfRfaoFd9jiIJxu/ufpXj/7VHwlt/hPe6TDD8N/iP8AD2WZbgyL4svvtD36Zjx5P+hWuwJ8+8/Pnen3K8XA8R4fFTpwpbSV+mzvb8uh5uDzihiJRjS+1Hm++/8AkeR0UD/PFA6173oemtgoqSwEKXcPnxtJC0nzIrbJJE9N9fWHjz9hjSdU+FHhLUtH8N+NPAPijxR4ntdB03SvFupR3H9rQTxb/tkX+h2zeTG7RI77HTE8frXl4/NqWDlGNZb/ANepx4rHUsO17TaR8l0V9lfGT9grwjpfwJ+IniLwjD4yhm+HN7FbfbtVuoJrXxXAk32W6ns4UhR4/KmeN8b5lSNxvcPjPxqev41OVZ1Qx6k6G8Pd/X9f6ZWXZhQxkZTo/Z/r9Qoop0aebIq92YD8+K9SUkldnRzWVwjG91Wm9hX1N8cv2I7P4A/CCK4vfB3xQ17Wf7Ntbm+8QW6x2Ph/RLm5WN0t9xtp/tPl+ciO3nQHzMp9e88P/wDBMjw/4ot9Y8Ew/wDCUN440LwxHq1z4gE8a6DFqMkC3SacIPJ8x3e2JG9JvM8zzH8ny43r5WpxfgIQVVv3X/6TG2vpqvvPFnxDgYwjNy0f9c34o+Yf2Wv+Ssyf9gHW/wD0z3daFUv2X0MXxclU9V0LXAfr/Y93n/P1q7X6JlMlKMpLqdmKd9Qooor2DjCiiigAooooAKKKKACiiigAooooAKKKKACiignigPQKKu+HPC+peLNQSz0nTdQ1S6k+7DZwSXEn/fEfFek6P+w/8VNdtlmt/B9xHHJ/z83cEEn/AHw71jUrQj8RXspy6HlNFewf8MCfFoH/AJFHP/cTsR+nn0f8MDfFr/oUP/KpY/8Ax+s/rlH+Y0+rz/lPH6K9g/4YG+LX/Qof+VSx/wDj9H/DA3xa/wChQ/8AKpY//H6PrlH+YPq8/wCU8for2D/hgb4tf9Ch/wCVSx/+P0f8MDfFr/oUP/KpY/8Ax+j65R/mD6vP+U8for2D/hgb4tf9Ch/5VLH/AOP0f8MDfFr/AKFD/wAqlj/8fo+uUf5g+rz/AJTx+ivYP+GBvi1/0KH/AJVLH/4/R/wwN8Wv+hQ/8qlj/wDH6PrlH+YPq8/5Tx+ivYP+GBvi1/0KH/lUsf8A4/R/wwN8Wv8AoUP/ACqWP/x+hYyj/OH1ef8AKeP0V7B/wwJ8Wj/zKJ/8Glj/APH6yPFP7HvxL8G2/mXng/WJI+ubMx3eD/2x31osRS6SF7CZ5tRTrq1a1nkhljkjkjfy2Ro/9XTTya2unsZWa3CiiigAooooAKKKKACiiigAooooAKKKKACiiigAooopx3AK6b4Lf8lk8I/9huy/9KErma6b4Lf8lk8I/wDYbsv/AEoSscR8EiqfxHM//qx6UUUVqtgluFFFFBIDpWl4t/5Np17/ALGXR/8A0l1Ks0dK0vFv/JtOvf8AYy6P/wCkupVyY7+EdGH+M8abrSZx+HOfT/PFK3Wkr5l7Hqa9D0L9mPxH4Y8EfGXRda8VahrNjpuj3UV8n9mabHfTzPFKjiPZJPCURyX+ff1/g9O2/aC8W/C/40ftQ+JPFUPifx1p+heKNQvNZnJ8KWr3VlPNM8iQJH9vCOnz4L+Yn+50rwfHGaMcV5WJymFTEfWVJptW1t/kcNTBqdX219bWPaP2vP2hdJ+NDeCtI0G11BdI8BeH4dBtdS1EIt9qO2SSQvIis6QrvkcJCHfZ/wA9DmvFz1/p6CiiuzB4WnhaSoQ1TNqdGNCmqUA7/rWv4ETR5vF9iuvahqOm6P5oa5urCyS+uI/9yF54Uc+29KyKK2rRVSn7NnRU9+HKz6a/bd+NXwt/aZ+K/h/X9J1zx1Y20NjZaRqAm8NWvmW0NtAI/Nh2ahiR3x/q32d/3lc78bf2hvDl7+zd4f8Ahb4Sk8Qazpem6zNrl1qmt2kdpP8AaHTyRDDbRzTpFCifPITI5kd/+Wez5/CFbbSV4eE4fw9CFKmm3GHw2/4Y8vC5TQpRp0vs0/hD/I/z/ntQP8j1/wA+tFFfQHqbblvRILW61W3W+uLiG1Lp500UO+SNf43RN6b/APvtPwzX0n4K/ax8J/sx/DcaF4BvvFXiy4v/ABFp2uXdxr+lQadb6f8AYWLRLBDFc3WZJHYhphJHhE2bH35T5horycxyunjklW+Ht/Wu5x4zBUsXHlrfD2PsL9qX9t7wf8TPBPxFPh+Txff6x8SFsbNrXV4rWCz8MWNvNHdG0tXikcyIZkwmI4AEAwHctXx8TkL7DHv+NJRjillOTUMth7Oh1/yS/JIWW5bSwVL2dBW2/Ll/JBTopDFIrL95SCKbRXqyjzRaZ2NJ6M+yPE37fvhPUr7XvHG7xhdeOvE3gZfB9zoc1tD/AGPaSNapavNDc+e8hhGzzkg8gfO2N9aXjD/go/4b8XWGj+Np/wDhLP8AhYGg+E5tA0zQhawf2Fa381v9lk1JZg4f5oR5nkvbOd6InneXGm34lor5P/U/BXi+X4dF6Oy5fSyPB/1dwLcXy7f+k7cvoej/ALMEvnfF6Zj95tD1wn2/4k93V2s/9lr/AJKzJ/2Adb/9M93WhX6NlMVGMox2O/FK2iCiiivYOMKKKKACiiigAooooAKKKKACiiigAoNFHUUm7K41q7Im0+wm1S9gt7WCSee4k2Qwwx+ZI7/3K+vP2af+CZMmux2upePPtH7z500S2fy5P+28n/tOL/v5XqX/AAT8/YjX4daRH4k8Q2v/ABU14nmJ5sf/ACB4/wC5H1+eT/lpz/0z/wCun11p9jHpdvthTYnp/n/D/wCt89mGZz+CiethsGvimcT4D+Bmm+AtHjsNNs7DRrGP/l2s4PLrpIvBGnx/wySf8DrYzRXj8ztqejoZv/CHaYf+XfH/AG0ej/hDdM/54f8AkR60qKxAzf8AhDdM/wCeH/kR6P8AhDdM/wCeH/kR60qKAM3/AIQ3TP8Anh/5Eej/AIQ3TP8Anh/5EetKigDN/wCEN0z/AJ4f+RHo/wCEN0z/AJ4f+RHrSooAzf8AhDdM/wCeH/kR6B4N0sf8sP8AyI9aXXj17etfS37LX7JlnLo0Hi7xpD/osn7zT9OmHFz/ANNJP0/d0wPH/g1+xPrfxq2XVnppsdKJ5v7x3jjk90/56f8A6q958L/8Ezvh/wCF4Y5PEmo3+pXHUok32WL/AOOf+RK9i1nxvc3yeTAPstov7tUWsY/vPwrIDmY/2I/ghHHsbQvMfpv/ALRvv/i6x/Ef/BOL4V+KLfbpN5quhz5+TyL3zMH/AHJzj/8AXXfUUczFZbs+Gf2vf+CMFz4k0GZpNM07x3Yxp+7ltYfI1Sz/AOuf/LT0/wBW/wDwD1/J39qX9gDXvgP9q1bSfP1nQLPzPtRdPLvLD/rumMuP9uP8kr+lrR/FF5o0v7qTzI8Y2MMj8K88/aW/ZQ8O/tQaPNqelx2+leMoE++U/d3n/TOT/wCOf5PdhMwrUnZ7GFfDwqrQ/lkFFfWX/BR79hm5+A3ii+8Q6Rpn9m6bDP5Gq6akHlnS5/8AVl06fJJn1/dyD/v38m4wP/r9a+ww+IjWhzQPFqU5U58oUUUVsYhRRRQAUUUUAFFFFABRRRQAUUUUAFFFFOO4BXTfBb/ksnhH/sN2X/pQlczXTfBb/ksnhH/sN2X/AKUJWOI+CRVP4jmaKKK1WwS3CiiigkOp/wDrVseHPHd94Z0q7s7ddLurPUXSeeK+0u11CPenmeXJsnjk8v8A17/9/Kx6KmpThPSZprujpv8AhaN5/wBAbwOP+5M0r/5Fo/4Wjef9AfwP/wCEbpX/AMi1zNFYfVKP8o/rEzpv+Fo3n/QH8D/+EbpX/wAi0f8AC0bz/oD+B/8AwjdK/wDkWuZopfU6P8ofWJnTf8LRvP8AoD+B/wDwjdK/+RaP+Fo3n/QH8D/+EbpX/wAi1zNFH1Oj/IH1iZ03/C0bz/oD+B//AAjdK/8AkWj/AIWjef8AQH8D/wDhG6V/8i1zNFH1Oj/KH1iodN/wtG8/6A/gf/wjdK/+RaP+Fo3n/QH8D/8AhG6V/wDItczRR9Uo/wAgfWJnTf8AC0bz/oD+B/8AwjdK/wDkWj/haN5/0B/A/wD4Rulf/ItczRT+qUf5A+sVDpv+Fo3n/QH8D/8AhG6V/wDItH/C0bz/AKA/gf8A8I3Sv/kWuZopfU6P8ofWJnTf8LRvP+gP4H/8I3Sv/kWj/haN5/0B/A//AIRulf8AyLXM0UfU6P8AKH1iodN/wtG8/wCgP4H/APCN0r/5Fo/4Wjef9AfwP/4Rulf/ACLXM0U/qdH+QPrFQ6b/AIWjef8AQH8D/wDhG6V/8i0D4o3mf+QP4H/8I3Sv/kWuZoo+p0esRfWKh00Pxa1K1im+zWnhSxa4hntJJrPwvptncbJI5I5PLdIfMjPlu8dcz/Tjgf5H/wCqiit6dKEP4ZPtJz3CiiiqJCiiigAooooAKKKKACijOOfT9K6r4N/BLxd+0N45g8N+C9B1DxHrlxHvjtrdP9Wn995P9XGn+3J/Sltqw1eiOVor2X41f8E/vi7+z74Ik8R+J/B8kHh+Of7PNf2Go2upQWb+kz2skmz/ALaZ70/wb/wT2+MPxA+H3hzxRpHhD7VpfiyeODSHbU7KK4v3kfZ+7hef7Rs8zHz+X5fPmf6usniKa3kVGnOJ4uOtfRf/AATd/Z4/4XL8Z/7YvY/M0nww6TlH5826/gz/ANc/Lkf28tP79eQfG74F+KP2efHEnhvxZZ2Wm6zFAk8kNtqNrfiOOT0eB5I/w/Kv0Y/4JgfC/wD4QP8AZk0+/lgMd14gme/k3jkeYfLT/wAhpHXHmGL5KHNA6sPh/wB7eZ9FWFgthbrDF9xKmPWgn/Givkea+p7gUUUUAFFFFABRRRQAUUUUAFH/AOvnoKKOvtQB6p+yL8IIfir8R/tGoKZND8Pp9qvVf7k/Xy4P+2n/ALJX1lr2tPrN7ub93HH8kaD/AJZ+grzX9lrw7/wifwJsf4bjxBO+oT/7n+rj/wDQPM/7aV3g/oKzAP8AJPrRRRQAUUUUAFSWt01hcJNC/lvGc4qOigLngv8AwUm/Z4034v8Aw3k8VLYwSC4j/s3X4tnNxHJ+7R//AGn+Edfzu/Hj4S3PwR+LOseG7rzJP7Pn/cysP+PiF/3kb/8AfFf1NXOjL4t0TUdDn/1GuWz2cn/TLzOUf/v5X4E/8FlfhUfDfjjw34h+zeXcXCTabdH/AJ5SJJ5kaf8Aj81exk+IcK3IcOOp88eY+Kx/WirWmaXca9qdrY2FrcX19eTJb29tCnmSXEj/AHEjT/lo/wDntXvWq/8ABKr4/aP4fuL6T4c3kn2O1+1T2cOo2NxqEcf/AF5JN5/5x19XKcYu0jx6dOcvhPnuinzo8Um1z5cnf3ph4NO99ipcwUUUUGYUUUUAFFFFABRRRQAUUUU47gFdN8Fv+SyeEf8AsN2X/pQlczXTfBb/AJLJ4R/7Ddl/6UJWOI+CRVP4jmaKKK1WwS3CiiigkKKKKACiiigAooooAKKKKACiiigAooooAKKKKACiiigAooooAKKKKACiiigAooooAKKKKACiiigAooooAKKKKAAHFfS37Lms6x4b/wCCf37Sd5oMlxDPJdeGrC9ubY+XJHYz3F/5yb/+ecjxwRyV809B/n/P416N+zd+1L4u/Za8W32peGZdPuLPWLb7Bq+lalapd6XrFr08ieF/9Ylc+JourDlRtQlaV2e5f8Ea7+9v/wBp3XPD11m48F+IPCeqR+K7aZv9HksUtX+eSP8A6ZybP++6+z/g/wDtGXN98ef2N9Nbwn8O44/GHhR7t7qHw1ClxpfyT/JYv/y6p8n+rj9DX56ePf8Agod4o8RfDLWPCfhnwf8ADf4X6V4kTy9aHg/Q30+41iDH+onmd5H8v/Yj8vvTfCv/AAUO8beEvHXwk8QWul+F5L34L6Y+k6Ij2k3l3sEiSc3X7/8AeSfP/wAs/L/CuDFYeVWfN2/4P+ZrTqwSkn3/AMv8jzX48/EGb4ofFvXNbm0rw/o73E/lmz0TT0sLOLZ8nyQp8iD5P+/lfrF+yXamw/Zg+HqL0/4R6xkP/A4Ekr8c73UJNVv5rhj89w7u+3p9fzr9dv2FPFMfi79kfwHcq27ydLjsX9jCPI/9krDNqXJQid1GpCdeUonrBoozxx0or5079eoUUUUAFFFFABRRRQAUUUUAFBooH/6qAPtz4W/u/hh4Y299Itf/AERHW4DkVx/7PusR618IPD7L/wAs7X7O/wBU/d/+yV2A/SswCiiigAooooAKKKM4+lAAen4cV+OP/BeawU+C5Jl/g8czxp/3xd//ABFfsfNIYotzfInavxG/4Le+PE1Xw34bs/MO/WNeutW2euxP/t9duV/7zFmGM/hWPGf+CNNha3X7ZEl15cU+vaZ4X1e+8PQOnmeZqKWn7sRj+/5e+vD/AILfEPxhp/7THh3xFo19qlz40l16C4gufPk+0Xl1JN/HJ/rJC+/ZIT/frmfh78Qtc+EnjjSfEvh3VLjR9c0eaO8sby2f95byV9ESf8FVPFVrrU/iDS/hz8F9D8dXEb/8VbYeF/L1iOZ/vzJveS3S4k/v7K+vlGcavtI+87HhU5OVKVJdz6s/bXv/AAT+zb4Q+NHjLSPhv8N/FOv/APC3o9JtrnXtEgvo7MT6PBPdJs/jPn+d+7k+TzH8yvkj/gpr4O0HR/G/w18UaD4d0fwr/wALE+H+l+JdR03R7T7Pp9vdT+Zv8hP+Wafu4/3YrzLVP2pfE+vfADUfh3f/AGK+07VvFf8AwmF1qU2+S/ub14fIfzH3+X5fHmf6vzPM/wCWlVfjr+0ZrX7Qdt4Ph1m30u0j8D+GrXwvZG0jdN9pB5mySTe8n7z9532H/pnzWNLDzpOL/wAP5W/M6qtaDjJf1v8A5HAnr/hRQev49+ooruOEKKKKACiiigAooooAKKKKcdwCum+C3/JZPCP/AGG7L/0oSuZrpvgt/wAlk8I/9huy/wDShKxxHwSKp/EczRRRWq2CW4UUUUEgP1rtPhn+zp8QvjDpc2oeD/AfjTxVY2c/kTXOkaJc38cb/wByR0Rxvri+gr1f9kL4yeLvAPxn8G6XonirxJo2l6h4lsTd2dhqc1vb3f7+OPLoj+XJ8mOtDlOS9wJS5Y83nYxvHf7KnxQ+FvhybWPFHw3+IHhvR7V0jnv9W8O3Vnbxb/kT55E8vrUej/st/E7xF4O/4SXTfh148vvD4g+0f2rbaDdSWfl/89PORPL8v+tfZ3xB1jVvjv8A8Fr7r4Z+KvFHiC+8AXnjnE+iXOqTyae6QHz0h8nfs2SSJs/7aV4T8bf2+vjBbftia54ks/GniTTb7R9eng07Sob6dLOyggn8uO0+yodnl+Wmzy/+WleXhcVOpGOnxanZUowhOUf5f+CeQ/DT9nL4hfGTTJr/AMIeA/Gniqxs5/s01zo2i3V+kb/883eNHHmf4e3FP4mfBHxl8FprWHxl4P8AFHhKS83m1j1fS57Hz/8Ac8xE8z/9Vfol8JovHXxQ/Yb+NFxea34f/Z28Y6p8TYL+9e/u7rwtZ6c8ljA7p/y0nTfxJsrx39q74q6b4J/YPj+F3iP4uaX8bPiBqHiyPXoLzTNRuNTs/D9qkHl+Wl7On7zzP7n/AE0ej+0J89nHt+FgjRhyJvz/AFPlf4afs+fED402l1N4N8E+MPFsOnPsum0fSJ7+O3ftv8hH2dQKZ8S/gP45+CqWknjHwX4s8Ix3n/Hr/bGjz2P2j/cE6IZK+zP+Ccnh/VPEf/BNz43Weh+PNH+GepTeINE2a/qmsTaRb2Xzn5PPgSR0Mn3M9OfxrpdM0yx8e/BPSv2f/GHxy0v4veNPib420qSyutK1CfWrfwnao/7+eO6mT/WSJvTy/wD7OtqmImqlo/3fxt/mc+F5Z0lUlvr+F/8AI/OH/wDX160f/rr7m8OfCr4D/tQ/Ev4jfCjwf8M9Q8F6/wCG9O1Cfw94qbxLdXlxqE+nf8/UL/6Okdxsf/V/6uu28L/sU/C3XvghoWp+F/hLqHxY8Oz+F47jW/GHhXxf53iTR9UeDzHT+yHnRP3cgEezZJmOj67G3M/63/yK9jLbyv8Al/mfAsPwf8WyjR9nhXxJJ/wkkL3ek/8AEsm/4msKffkg+T50T/pn7VVvfAmt6X4QsfEN1ousQ+H9TneCy1J7F47O9eP/AFiJP9x5I6/Tf9jjS9B+Husfs7XFxo+oa3da/wDDLxFOXv8AXb6SPTpI/tG/yIPO8uGORP3flx+X/rPM4krhPgv+y/4M/aq/Z3+ENzdW+ueGPCuoeKPFOq6jpVrr97eW9lp1qkk/2W2jmd0ST5BH5/l73/5aVl/afvtT6f5tfoOnRvGMv5v8k/1PzrxgY9OKP8cD3r6+sPAfwg/a9/Z/+KGq+BfhncfC3xN8M7GDXoWXxDdanb6xZeeUeOfz/uSR8P8Au+ePava/F37N37PGqft8+IP2ddL+Et5pV1cafOLXxUvii+kuLC7/ALN+3Jshd9kifwfvN4PHvW0sZt7u9/wLp4Xm05j85vC/hjUfG/iG00vRtN1DWNU1CTyLazs4XnuLh/7iIn7x/rVzx18OfEPwp8SSaP4o0HWPDerRpG76fqti9ncRJJ9x9j/vK9e/4JffN/wUI+Efv4hgxn+vr3/Kvc/+EY+Hc3wX+OHxb+Jfg/UPiN4g8L/Ep9G0+GfxFdWkckD7/wBxI6v/AKuP7/7v5/3caeZspYjGezlF2/p2X6nPh6fPUlD+uv8AkfCXQcfhQODX6Nf8KG/Zx/4aU+E/gL/hUusPH8cPD2na79sk8V3f/FJi+gk8uC1T/lt5bp5nmT7+XrmtI+C3wN+CHwn+Ba+KPhfc+PPEXxI17VdGvb9/EN9p8cUdrrH2Tz9kD/6zy5I+/l/u61lirLlcfI1jhm48ykfBltaPdTRwwpI8kj+WqKn+s710nxN+C3jL4K3VrD4z8J+KPCM+oJvtl1jS57GS4T/nonmJH5navtX4jfs5/BAeOPj78LfD3gHWNL1/4P8AhrUfEOneMJvENxcXl7PayI7xyWv/AB7+X+82f6vzP3f/AD0rzn/goTrN54i/ZX/ZevL68uL6+uPCl881zcyeZJJ/p39+sPrvM6UY/a/yb/QcsPySnCX9Wa/zPkrvRR/hxRXoXuc4UUUUAFFFFABRRRQAUUUUAFFFFABRRRQAUUUUAGf/AK9ff3/BHr40w3/hLxB4Dupv9M0+Y6tZRt/y0gf93In/AGzk2f8AfdfAP5fj0rqfg18WtV+CPxM0vxNosh+3aXN5mw/6ueP+NH/2JI/51zY6h7ajyG+GqclTnP2r70VzPwa+LWj/AB0+HGm+JtDm8yx1BPMKf8tIH/5aRv8A7cddNnP/ANfvXxko+z0PoU7q4UUUVmAUUUUAFFFFABRRRQAUUUUAe/fsZePE8jUvD9xJ+88z7Va/+1I//QK96zmvhXwx4jvPCWv2upWLbLqzfej/ANK+yPhj8StP+J3hiPULOT959y7h/wCWlvJQB0VFFFZgFFFFABRQelVdU1O10HTJ7y8mjhtbdN7u/wDBR6Acd+0b48TwP8Lr7bJ/pWqJ9khP/XT78n/fuv5+f+CnXxoj+LX7TF1Z2U3nab4Tg/spHX/VyT7/ADJ3/wC/mY/+AV+gf/BWf/goL/wgfhieTTZvL1zVEex0K2P+ss048y7k/wA/6zZX45yySXTs0km+ST53Zur19HkmC19rM8vH4j7I3t/niigdKK+hPLCiiigAooooAKKKKACiiigAooooAKKKKcdwCum+C3/JZPCP/Ybsv/ShK5mum+C3/JZPCP8A2G7L/wBKErHEfBIqn8RzNFFFarYJbhRRRQSANbfw58Xf8K9+Ifh/Xvs/2v8AsPUIL/yd/l/aPIeOQJv/AOAViE4H866D+y/Deg+BNP1zxBrOuWJ1TUbqxhh03R0uz+4S3kkkd5LqDn/SU9f9X2qalanSXNUKjF1XyHafG39qbUvid+1rrHxa0a1l8K6xqGtx67YwpdfaDp86PG6fPsj8z7n/ADzr2G7/AOChHwx1/wCIyfELWP2ddDvfiVu+3T38Pii7g0e81D/n7fT9n9/59nmfvMetfLX/AAlvw0H/ADHfHHpx4Xtcf+nGj/hLfhn/ANB7xx/4S9p/8sa836xhFCMY/Z9ep1Sp1ZTlOX2j3Tx7/wAFBNa+K37PXj/wf4m006prnxA8Xp4tutbF15f2Z0SNPISHZ9z93/z0r57HIHQfTt2/z1rQ/wCEu+Gf/Qe8cf8AhL2n/wAsaP8AhLvhn/0HvHH/AIS9p/8ALGnRxGEp7ClTrTVmenfD79qX/hAv2PviF8Kf7B+0/wDCd6pp2pf2r9t8v7F9lk37PJ2fPv8A99Pwrz/4X/EvVfgz8R9D8VaDN9k1nw9fQX9k7D/lpG+8Y/8A1/8A1qP/AAl3wz/6D3jj/wAJe0/+WNH/AAl3wz/6D3jj/wAJe0/+WNXHHYZScmZLCT5eVH094k/4KOeFdK/4TTXvAfwZ0/wV8QviBYz2GqeIf+Ehm1C2to7r/j6e1tXSOOGR/XzH8vipPhl/wUY8CfC/XNB8Yab8B/D9j8UPD+nG0tda03Xp7DS5J/L2fan0tIPLkk8v/WfvP3nNfLv/AAl3wz/6D3jj/wAJe0/+WNH/AAl3wz/6D3jj/wAJe0/+WNYe2wbjZ979TZUqrVvkfT3gz/gp/N4c8Y/CXVLzwZHq3/CttE1XRtQhfVBB/wAJBHfeZvk/dw/6L9//AG/x7HhP/gp1/wAKl8P+BNK8B+CY9D03wF4h1TVoLfU9X/tKO7sr1NkllJ+4T/lm/wB+vmH/AIS74Z/9B7xx/wCEvaf/ACxo/wCEu+Gf/Qe8cf8AhL2n/wAsaXtMClr/AFrcPZ1dH/W1j6C8eftw+E9L+D3irwf8KfhLb/DWPx5JB/wkN5N4iuNauJ7WOTzEtYTIieRH5n/XSrZ/4KMAf8FGLj4/f8If/wAfHmf8SL+18f6zTfsP/H15HH9//V/9M6+cv+Eu+Gf/AEHvHH/hL2n/AMsaP+Eu+Gf/AEHvHH/hL2n/AMsa0eJw/R/1IFTqrXzPav8Agl9/ykI+EY/6mGAYz/n612H7VXxQ8Q/ALwr8XPgn4i8H3Gn33izxz/wliX8975ciQb5NmYPL+fzE/eb/ADK+Zf8AhLfhn/0HvHH/AIS9p/8ALGj/AIS74Z/9B7xx/wCEvaf/ACxqa1bDVZxcpf1o/wBCMNh60JSl/XX/ADPez+33/wAZF/Bfx9/wiJP/AAp/w9pehfYTqn/IY+w+Z+83+R+48zf9zy5PLql8Rv24v+Fgab8Ibb/hGfsv/Cq9b1HVi/8AaPmf2n9q1GO+2Z8v935fl+Xv+evEf+Eu+Gf/AEHvHH/hL2n/AMsaP+Eu+Gf/AEHvHH/hL2n/AMsa2lisNfmY40a0Yyivtf8AAPf5P26X8RftF/GXxnb+Ef3/AMZ9C1Hw+lh/an/ILe98v955nkfvvL2f6vy467f/AIKbfDrWvhJ+zt+zT4b8R6ZcaXrmj+E763urOf8A1lu/2vvXyT/wlvwz/wCg944/8Je0/wDljR/wl3wz/wCg944/8Je0/wDljXM62H5qXL9j/Jr9SlTqylKU/tf8D/Izz+PvnvRWh/wl3wz/AOg944/8Je0/+WNH/CW/DM/8x7xxzwT/AMIvaf8Ayxrr+vUVuR9XqXsjPorotGsfCXjTQdeutB1vxJNdaBZR37w32iQWsbp9qt4Pvx3L/wDPf/nnXOjgV0UMRGr/AAzCpSlD4wooorYkKKKKACiiigAooooAKKKKACiiigAoHP58UUUa9A9D2T9j39sfW/2UfE7+Uv8AaPh3UZEGoaa78D/bT/nm/wDjX6gfBX48+F/2g/Cces+F9SjvrfrPD/q7izf+46f8s6/Fsfl7+lbfw9+JevfCnxRBrHh3VbzRtStzmOa2fJH+w/8Az0T/AGPrXl4zL4VVzL4zsw+LnBn7c9OPSivgb4P/APBYq+0+2gtvHHhiLUfKHz32lSeRJJ7eRJ8n/kSPpXtvhv8A4Kn/AAf1m3ja61TWNF7bbzS5n/8ARG8V4NTL60fsnqU8ZRmfRlFeFn/gpb8E/wDodD/4KL7/AOMUf8PLPgn/ANDof/BRff8Axis/qVb+QPbU/wCY90orwv8A4eWfBP8A6HQ/+Ci+/wDjFH/Dyz4J/wDQ6H/wUX3/AMYp/U6/8g/b0/5z3SivC/8Ah5Z8E/8AodD/AOCi+/8AjFH/AA8s+Cf/AEOh/wDBRff/ABij6nX/AJA9vT/nPdKK8L/4eWfBP/odD/4KL7/4xR/w8s+Cf/Q6H/wUX3/xij6nX/kD29P+c90B/wATWz4D+IOrfDnXY7/TJvJk6OjHEdyn9xzXzl/w8s+Cf/Q6H/wUX3/xij/h5Z8E/wDodD/4KL7/AOMU/qdf+QPb0/5z9Ivhn+0/oPjeKOG8mj0fUv8AnjM/7uT/AK5vXpkUgli8xf8AHj61+SP/AA8s+CY6eNP/ACkX3/xitnw3/wAFbfhj4T/5BvxK1C1TqETT9R8v/v35FZfUq7+wHt6f85+qdA/zzX5lp/wXH8GQW+yP4oSf+E7N/wDItcL8TP8AguZ4Vls5I4de8Ya/J/zxs7X7JHJ/v7/LP6Uf2fX/AJQ+sU1rzH6g/EH40+H/AIc2sg1C/SS6H3LOH95cP/8AG6+A/wDgof8A8FU9L+HNnPZ3U0V1q3+ssvD1tP8AP/sPdP8Awc+v/bOvgb45/wDBWTxt8RYZ7DwvZW/g+yuOXuUk8/UJP+2n/LP/ALZof+ulfLd9fS6pdPdXM0lxPcP5jzTvvkd/evVweU/arHLiMdpaB0fxj+L+vfHj4gXviTxBdGbUbz+BB8lun/LNI0/gT61yw6fpR1or6GK9mrHmSbbuFFFFWZhRRRQAUUUUAFFFFABRRRQAUUUUAFFFFOO4AetdL8FP+Su+Ef8AsNWv/o+Ouarpvgt/yWTwj/2G7L/0oSscR8EiqfxHM0UUVqtgluFFFFBIVP8AGP8A5IR4P/7D+r/+iNJqCp/jH/yQjwf/ANh/V/8A0RpNefmX8I6ML8Z5JRRRXz56gUUUd+/4Uc1tQe1wor6m/aO+D/w10b9iT4eeNPB+ialYXOq+INR0ye/1G6ZrzUIYREUd0Q+RD977kaZThd743v6x8Wf2Pfhvo/wD8ReJdP8ABcT+G4/Cmn6loOt2supP4kN3M4RHv7aSTyIbd3juP3vkJC6BPJd36/H/AOuOG5U5RlrKUXt8UZcv9dbHzv8ArLh+RWUrOUov/FGXKfANFfaP7Q/7GS/BL4YyWGh/DrQPEl9pfhuHWNd1678SSS6tbGWOOSaa302G6jZbaBpAu6a1k+48jny+B8XHqfXPNe1k+c0cxp+0o/D8v0f5npZfmFPF0/aUX7oUUDr+tfUH7O3w88B/Gj4MeOLe88Bw6Ivg3wdNqc3i99Uu5LuXVfOj+zq/z/ZVjmd/ISEQ+Zg/6x3TzK0zDNKeFjzSXNF/1/VjTE4ynQjzyWh8v0EYr7Mn/Yv/AOEL+Cng9tD+HPh7x54g8WaBJr11dav4ke1uok8uSRItPsYbyGWfyYY2dn2Tb3YJsTYVfufgl+wn4V+I8Pw30Wz+HF1rmi+OPDr3Gs/EBLu8P9ham5mAhykv2NfJaFF8qaPe+888x48CtxlgqVP21vdjzX26X8/L18jzKnE2FhT9ovh17dPn/wAHyPz6op9zH5NzIv8AdYj9f8/56s6j9M4zj8K+ujPnhzd1+f3HuxkmuZbMcuNrZ69qRTg19h/8E7P2TPB/jyGHXviLpcuraf4quLnR/DentczWwuJobd7i5vPkCPJDBtRCEcfPP7Vi/sa/CH4a/En4W/FGz1nR9U1bxfonhHVtetrm4uXtrTSWt418kwqj75nZ33v5mE+VU8tvv18xLi3CwqVaKjKThy3/AO3rxvv0s7njVuIKHtKlPlfucu23vaXXpbU+VmOWP1pK+yv2UP2XND8WfAjwz4mh+HbfFe61rxHJpviCMXV3DH4Vs49mzAtpo9kk6tM/nT5hTyFGzrXzz+1j8G7f9n39o7xl4NtbiS8s/D+rT21rK4AkkiD4Uvj+PaE3104HiPDYrEvCQXvL/wBtdn5/l5HTg84o167w0fiir/doed0DrQOBQOtfQvyPSPUP2b/+QN8Rf+xZj/8ATrplSVH+zf8A8gb4i/8AYsx/+nXTKkr3Mt+E8/FfEFFFFeocYUUUUAFFFFABRRRQAUUUUAFFFFABRRRQAUUUUAFFFFABRRRQAUUUUAFFFFABRRRQAUUUUAFFFFABRRRQAUUUUAFFFFABRRRQAUUUUAFFFFABRRRQAUUUUAFFFFABRRRTjuAV03wW/wCSyeEf+w3Zf+lCVzNdN8Fv+SyeEf8AsN2X/pQlY4j4JFU/iOZoo70VqtgluFFFFBIVP8Y/+SEeD/8AsP6v/wCiNJqCp/jH/wAkI8H/APYf1f8A9EaTXDmX8FHThfjPJKKKK+dPTCj8/wAKKKPIND6M8eftf+BfFv7L+g/De0+H/ii1XwvdXGoWF/N4shmVbmbG/wA5P7PTzEwB8iSIP9vpXReLf+CkOm69qHjfxFb+Brm28deO/DkXhvVNQk10SadFCIYYZWitPIR0d0hX78z7HP0A+U0PzU3PFfNR4RwHSOusvif2mpPr1aWmx47yHBpX5erfxP7TvLr3R9NeJv8AgoJZ6tpusatD4RvF8f8AiHwqfCmoazJre+wlgkhS1e4Fn5Cuk7wLsyZ9nJfy6+ZWcu+fXv7/AORj3oor1sBlWGwUeWhH9f8AgW8jswuCoYeHJQj+J2mm/tF+PtM+HT+C7Xxn4qtPCMiOkmixapNHYujvudDCHCfO/PTmvYtV/bL8D6n+zDonw1bwD4s0+10mMXN/JpPiyG1TW74Ln7ZcI9hI7H+4m/EcY68lz81A4o3fNWOMyXC4iUZzjfld9NNe9gr5fhqzjzL4fe7a/qfTfgL/AIKD2HhKLwTrM3gue88f/D7R30XRtWTWvs9i8O2ZIZLm0ELyO6ec33Jk3/Jx68f8Gf2nfD/7P+lpq/h/wjqv/CxY7Oe2ttdvvECz2Fk0yFHuYLJLaN/O2O2zfM6Jv37H+THim6lLZG78Kwjw1gbONvi+LVvq9NXtq9NjFZTg4xklH4td392vTV6bA7M8jFjlskn2NNP/AOuiivahGyS/ryPSjyrTY+jP2cP+CjXi74Eaj4SjvrPw94h8O+D4JobKxl0PTY7iJJUfcFvPszzJ+8l3v8/z7v8Ab4PgN+2v4Z+Fk/jS/wBc8C6xrWteOtKvNEv5tL1uz0OyhtrnZuENslg6I+V7HZjjZ6fOfajtXi1OGcunKVVws5fFbRb36eb+Z50sowk5ynyfFby8+h698GPjf4H+EniObXJPBOt65qOn6hJe6JBfeI400+FVx9mS6hW1SS62SYZ/LmgMgGNiDOfPfiL471L4oeNdW8RaxcfbtW1q7mvb24IVftE0z73f5P8AbfPHrWHRXZhcro0arrw+Jbbm9PD0oVPaQ+IOn9aB1ooHWvQ16nUeofs3/wDIG+Iv/Ysx/wDp10ypKj/Zv/5A3xF/7FmP/wBOumVJXu5b8LPPxXxBRRRXpnGFFFFABRRRQAUUUUAFFFFABRRRQAUUUUAFFFFABRRRQAUUUUAB6V7n+z78A/gn8RvAP9pePPj9/wAK58QfapE/sf8A4Qe+1b93/wAs38+B9n7zj93jNeGUDr+lTU8i5H3N8d/+CWvwX/Zl1/StM8b/ALUX9h32sacmq2K/8K1vpvtNrJ5myT9xNJj7knfFfGPj3R9K0Dxxqtjoesf8JBo9neyQWOqfZHtP7QhR/wB3P5D/ALxPM4k2GvuP/gsp4Nm+Iv7XPwT8P2rxpdeIPBWiadA79Eee6nT/ANn9O1T/ALWXx3+G/wDwTt+NI+D/AIO+Bvwr8ZWvg+C1j17WPGej/wBpaprE8lvHO+yb/lh+7fp+8j6fu+K8/DYiT+1zfF+B11KcVq/5Y/ij8/Rx+f5++aK/Tbw3+xx8NdL/AOCl37PuveH/AAxYXHwy+NGgz+II/DerQJf29o/2GSR4PLcyfu/nhf8A66f8Arj/AAPF4R/bw/bntfgVYfCv4Z+CfAfh/wARXUj6lomkfZ/EGoWNik/7ie6/j8/ZH3j9hWn1z3uVb6/+S6SMpYflgpv+ubY/Pmiv0Q+CH7XPwf8Ajd+2pofw1v8A9n34R6f8Ob/xDBpuiX9po/kazE6T5tXu5us8cjom+OSM/u5B/rP4zwR8EPBdz8S/28YZfCXhaSHwfo+qPoSPpcPl6JIj3ex7X5P3H3E4jqY468eaUf7w/qul3/NGP/gR+d9FfYH/AASl+Gfhv4jeEv2hJPEXh/Q9cfR/hze3+nyX9lHef2dPGkmyeDzB8j/7aete/fsufsKax8Nf2GPB/jjwH8D/AAf8bPiV8RfMvrp/FslrPpfh+y6RxxwzzR75JP8Anon+3n/lnGbrY2FPWXX+v0IoYZ1Ph6X/AAt/mfmDRX6If8FIv2JLrT/2L9H+L2ufCvw/8GfH+j6xHpOvaLoE0H9j6pBJ9y6ghgeSOD95+72eZ2f/AGK/O89a1w+IjW1gTXw/JqFFFFdBkFFFFABRRRQAUUUUAFFFFABRRRQAUUUUAFFFFABRRRTjuAV03wW/5LJ4R/7Ddl/6UJXM103wW/5LJ4R/7Ddl/wClCVjiPgkVT+I5miiitVsEtwooooJD/P8AkVveGPih4o8E6fJbaP4g13R7WSTe8NnqU1vHI/8Af2RvWDRUySnozS76HYn9oPx4T/yO/i8+/wDa8/P/AI/R/wANB+PP+h28X/8Ag4n/APi646is/q9PrEn2kzsf+Gg/Hn/Q7eL/APwcT/8AxdH/AA0H48/6Hbxf/wCDif8A+LrjqKPq9P8AkD2kzsf+Gg/Hn/Q7eL//AAcT/wDxdH/DQfjz/odvF/8A4OJ//i646ij6vT/kD2kzsf8AhoPx5/0O3i//AMHE/wD8XR/w0H48/wCh28X/APg4n/8Ai646ij6vT/kH7SZ2P/DQfjz/AKHbxf8A+Dif/wCLo/4aD8ef9Dt4v/8ABxP/APF1x1FH1en/ACC9pM7H/hoPx5/0O3i//wAHE/8A8XR/w0H48/6Hbxf/AODif/4uuOoo+r0/5A9pM7H/AIaD8ef9Dt4v/wDBxP8A/F0f8NB+PP8AodvF/wD4OJ//AIuuOoo+r0/5A9pM7H/hoPx5/wBDt4v/APBxP/8AF0f8NB+PP+h28X/+Dif/AOLrjqKPq9P+QftKh2P/AA0H48/6Hbxf/wCDif8A+Lo/4aD8ef8AQ7eL/wDwcT//ABdcdRR9Xp/yC9pM7H/hoPx5/wBDt4v/APBxP/8AF0f8NB+Owf8AkdvGH/g4n/8Ai646ihYen0iP2kzote+L3i3xRpclhqvirxJqVjccSW11qk08cv1SR653OT/9aiitPZ8mqFqFFFFUSFFFFABRRRQAUUUUAFFFFABRRRQAUUUUAFFFFABRRRQAUUUUAFBooo6WYa9D68/4KbftdeGPi/8AtE/C7xd8N9e/tWTwf4X0qCSb7DNb+RfWs8knl7JkjEnGzriu1/aB8Ufsx/t+/ESw+KHiP4qa78IfE2sQQR+KfD7eF7vVvPmgjRPMtZoR5cZ2Jj95/wB+6+DqK5/qkFqtzb28uv8AXKfoNo3/AAUi+HWsf8FIPg7rkP2zwr8Gvg/o8+h6XLd2r3Fx5P2SePz3jgSST95Jsj4z/q6+d/gh+1+n7M/7f0nxU0WH+2NKj8RX07w/c/tCyneRJOH/ANW4R/wfNeA0HpU08FCM+Zef/k2sgliHOPIvL/yU/SX9lb4c/sr6p+334V8Z+FPif4l1i61jXkutF8DN4Xmgk0u9kcunn3z/ALiS3gk/5Zx/3I/nk/jwPDf7TXgb4I/8FAP2pvCfxIm1DTfB/wAVLvWPD11qtlDJcSaU/nv8+xP3kkf7yT84/c18TfAn4yal+zx8YPDfjbRoNPutV8L3qX9pDdxvJBI8fTeEdH/8iflVf4yfFW/+OnxX8SeMNXhs4NV8T6hPqV1DZo6W8ck775NnmO/7vk9fasvqPv8AL9nllH8jaOKTpyX2uZS/8Bufcv7NvxQ/Zp/Ys+G/xa0PR/ivrHjvxB4/8G6jplrqg8L3Wmadbvs2QWmx/Mk8yR337/8AV/u8e1cP4O+Pvwb/AGuf2M/Bvwx+Lni7VPhl4q+F7yR6D4lh0SfVrO8snf54Hgg/eb/kTp3jj/effSvi08H/AOvRVrBwmvfJWKtHlh5/j/wx9F/tSxfs8fD/AOC+j+FfhXcax8Q/Gn2r7Xq3ji7tbrTIBB0FrBZO/wD4/ImOfv8A/PP5070UVtSo8mxzzqcySCiiitiQooooAKKKKACiiigAooooAKKKKACiiigAooooAKKKKcdwCum+C3/JZPCP/Ybsv/ShK5mum+C3/JZPCP8A2G7L/wBKErHEfBIqn8RzNFFFarYJbhRRRQSFFFFABRRRQAUUUUAFFFFABRRRQAUUUUAFFFFABRRRQAUUUUAFFFFABRRRQAUUUUAFFFFABRRRQAUUUUAFFFFABRRRQAUUUUAFFFFABRRRQAUUUUAFFFFABRRRQAUUUUAFFFFABRRRQAUUUUAFFFFABRRRQAUUUUAFFFFABRRRQAUUUUAFFFFABRRRQAUUUUAFFFFOO4BXTfBb/ksnhH/sN2X/AKUJXM103wW/5LJ4R/7Ddl/6UJWOI+CRVP4jmaKKK1WwS3CiiigkKKKKACiiigAooooAKKKKACiiigAooooAKKKKACiiigAooooAKKKKACiiigAooooAKKKKACiiigAooooAKKKKACiiigAooooAKKKKACiiigAooooAKKKKACiiigAooooAKKKKACiiigAooooAKKKKACiiigAooooAKKKKACiiigAooooAKKKKACiiigAooooAKKKKcdwCum+C3/JZPCP/AGG7L/0oSuZrpvgt/wAlk8I/9huy/wDShKxxHwSKp/EczRRRWq2CW4UUUUEhRRRQAUUUUAFFFFABRRRQAUUUUAFFFFABRRRQAUUUUAFFFFABRRRQAUUUUAFFFFABRRRQAUUUUAFFFFABRRRQAUUUUAFFFFABRRRQAUUUUAFFFFABRRRQAUUUUAFFFFABRRRQAUUUUAFFFFABRRRQAUUUUAFFFFABRRRQAUUUUAFFFFABRRRQAUUUUAFFFFABRRRTjuAV03wW/wCSyeEf+w3Zf+lCVzNdN8Fv+SyeEf8AsN2X/pQlY4j4JFU/iOZooorVbBLcKKKKCQooooAKKKKACiiigAooooAKKKKACiiigAooooAKKKKACiiigAooooAKKKKACiiigAooooAKKKKACiiigAooooAKKKKACiiigAooooAKKKKACiiigAooooAKKKKACiiigAooooAKKKKACiiigAooooAKKKKACiiigAooooAKKKKACiiigAooooAKKKKACiiigAooopx3AK6b4Lf8lk8I/wDYbsv/AEoSuZrpvgt/yWTwj/2G7L/0oSscR8EiqfxHM0UYxRWq2CW4UUdadFHJdTosaeY8nyKi/wDLT60XtqybX0Q2iutj+AXjyRN6+CfFskef+gPNz/45Uh/Z98d9vBPjD/wUT/8AxFY/WKfUv2NTocdRXYf8M++PP+hI8Yf+Cef/AOIo/wCGffHn/QkeMP8AwTz/APxFH1ikHsahx9Fdh/wz748/6Ejxh/4J5/8A4ij/AIZ98ef9CR4w/wDBPP8A/EUfWKQexqHH0V2H/DPvjz/oSPGH/gnn/wDiKP8Ahn3x5/0JHjD/AME8/wD8RR9YpB7GocfRXYf8M++PP+hI8Yf+Cef/AOIo/wCGffHn/QkeMP8AwTz/APxFH1mmHsahx9FdiP2fPHh/5knxgP8AuET/APxFY3if4fa94K8v+2tE1jR/tX3fttk9vv8A+/lVGtTF7Gp1MeiignFaaPYnXqFFanhfwZrPje+kt9F0vU9Ymj/eSJZ2r3Ekf/futw/s8ePj/wAyP4w/HRJ+f/HKuNOpL4UZyqKG8jj6K7D/AIZ38ff9CP4w/wDBJP8A/EUf8M7+Pv8AoR/GH/gkn/8AiKr2M+xPtoPZnH0V2H/DO/j7/oR/GH/gkn/+Io/4Z38ff9CP4w/8Ek//AMRR7GfYftodzj6K7D/hnfx9/wBCP4w/8Ek//wARR/wzv4+/6Efxh/4JJ/8A4ij2M+we2h3OPorsP+Gd/H3/AEI/jD/wST//ABFH/DO/j7/oR/GH/gkn/wDiKPYz7B7aHc4+iuw/4Z38ff8AQj+MP/BJP/8AEUf8M8ePh/zI/jD/AMEk3/xFP2Mt2L20XomcfRU2qaXdaLqElteW9xaXVvJ5ckE6bJE/4BUPT1/GsfU29AoorY8MfD7XvGvmf2Lomsax9l+99isnuNn/AH7qZSS3NLN7GPRXYn9nzx4P+ZJ8YH/uET//ABFJ/wAM++PP+hI8Yf8Agnn/APiKz+sU+oexqHH0V2H/AAz748/6Ejxh/wCCef8A+Io/4Z98ef8AQkeMP/BPP/8AEUfWKQvY1Dj6K7D/AIZ98ef9CR4w/wDBPP8A/EUf8M++PP8AoSPGH/gnn/8AiKPrFIPY1Dj6K7D/AIZ98ef9CR4w/wDBPP8A/EUf8M++PP8AoSPGH/gnn/8AiKPrFIPY1Dj6K7D/AIZ98ef9CR4w/wDBPP8A/EUo/Z98d9/BPjD/AMFE/wD8RR9apj9jU6nHUV1snwC8eRpvbwT4tjjz/wBAebj/AMcrlJY5LWd1kTy3j+Rkb/ln9K09rTnsEua2o2ijpRVehmFFFFABRRRQAUUUUAFFFFABRRRQAUUUHp7Hih7XAKK+6r//AIJgWfxQ0T4T6/o9v/whfgP/AIVra+LPHviebz7qO3ffcefJHG7v5lxJHH/qE9a+Xv2n/GPw78U/EIQfC/wjP4Z8K6XD9jgmvLya8v8AWD3upxI/lo8nTy49kf0xXNDEQlLkibTw8ow5zzaij+H+I/5/+v8ApXu37DX7NHh/426r4x8TeN7zULX4e/DPRJNd1s6aIxeagf8AVwWsAk/1bySfx1vKpCEeeRmrynynhNFfU/hf4t/swfF7WLrw/r3wlvPhJY3kDmx8Vad4o1LW7jSpkj+Tz7WTzI545JPk/dp3rmPhL/wTx174l/DvQPE2peOfhf4A03xZdTW+hJ4q1t7O41jY/lySIiQP+73/ACb5NnNZ/WlvKJp7I+f6K+orr9h3V/AfwS+KWm+JPC3h/wD4THwf4u0vw+dYfXbuOTTvtXH7u2SP7PPBJ8knmSSJJHn/AFfpY8e/8EjvHngO88Vab/wmfwr1jxd4Psp9TvfDGm688msPax/O7pB5P9z955fmeZ5f/LOsfr9HZf1on+oo05y9yP8AWrX6HyrRQP8APtRXZdPVGQUUUUAFFFFABRRRQAUUUU47gFdN8Fv+SyeEf+w3Zf8ApQlczXTfBb/ksnhH/sN2X/pQlY4j4JFU/iOZzmiiitVsEtwIyP8APNfUn/BMX4fab4k8beJNbvIY57vQ4YEti6f6vz/M3v8A+OV8tivr/wD4JUf6zx5/3Dv/AGvXn5k/9nkb4P8AjH2DRQP60V8TzM+jCiiijmYBRRRRzMAoooo5mAUUUUuaQB/+rGOtYfxL+H2m/FHwXfaLrEMc1reQeWfk/wBX/t1uUkn+pf6VUJSjJEy+Fn5ADpR/j196O9B6V+iUtk/Q+Wlu/mfpp+yL8PtN8C/s/wDhj7DDHG+q6fBqV0+z948k6RvXpgOR9ea439n/AP5IJ4H/AOxe07/0ljrsu9fHZxWqvF1LP7R7eWwTw8bhRRRXm+1n3Oz2cewUUUUe1n3H7OPYKKKKPaz7h7OPYKKKKPaz7h7OPYKKKKPaz7j9nG1mj5T/AOCn/wAPtNHgTQ/EywxR6rHqMemvMif6xJI5JPn9vk/8fr4rNfeH/BUL/k37R/8AsYoP/RFxXwf3r77CynPB05S/rU+Xqe7WlGAHpX6yfDT4fab8LvBdjoujwxw2tnB5Y+T/AFn+3X5N96/X+P8A1KfSvF4gk7xsellf2hf/ANWMdKKKK+Z5meuFFFFHMxhRRRRzMAoooo5mAUUUUczAK+I/+CnXw+03w3428N63ZwxwXeuQzpclE/1nkeXsf/x+vtw/1r4+/wCCq/8ArPAf/cR/9oV6mUt/WInLjv4J8gAYH+eKKDRX2R86FFFFABRRRQAUUUUAFFFFABRRRQAUD/P+f89qKKHqrMZ94/FT/goprfwCtv2YpPBviq11zw/4T8B2R17w9balHJaXE8nmQXVpdJHx5nkbE2Sfc+/XgX7e3wv8B+Dfixa+Ifhf4i0PWPAnji0/tnTrC2vUe78PyP8A6yxuoUfzIJI+kfmf8s8/8868Lornp4SMKntDeVb2i5PJfge3+KPjz8GdU/Z/j8PaX8B/7G8ef2fawP4w/wCE1vp/MnjKefP9idPs/wC82SfJ/wAs/Mrb/YE+NvhPwjY/Eb4c+PNQ/sPwr8WNEGkvrYtfP/se+gfzLWd48b3Tfx+tfOtFVOjB8yv8X6EynJ2f8p+lH7CviTXv2BPEFqde/aW+Df8AwqHR72TU7zR/D2tQ6tf63I8f3EgSH7R/zz/ufhWX8NtL+D918P8Awz4w8Jzfs73Wqa5d3194yuPijqM8mqaXJ9qkkSODS9/lyeXH/q/Ljk8zPvX510VisDzPn5veNPrHKuQ/T/8Aas+PXgPXb34/Sab408H30fiDx/4Q1PS/s2rwP/aEEEEHnzx7H+dI/wDlp/zz/CuQ8NfGrwbF/wAFk/ix4mbxZ4Xj8M6hpurx2usPqcH9n3Dvp2xI459/lyb5P3dfnfRXPHK42fvfZa+9Jfoc/tHzc395S+5t/qH+e9FFFelCPLFR7BJ3bYUUUVRIUUUUAFFFFABRRRTjuAV03wW/5LJ4R/7Ddl/6UJXM103wW/5LJ4R/7Ddl/wClCVjiPgkVT+I5miiitVsEtwFfX/8AwSo/1njz/uHf+16+QBX1/wD8EqP9Z48/7h3/ALXrzM0/3eR1YD+KfYI/rRQP60V8Tc+gCiiMnzfn5j/lX0X4d8O/s1+LddsdN021/aCvtQ1CdIIbaJNLeSV358vFaONkB86UV71+3b+zr4F/Zy8baH4f8H6p4g1HWpLWSfV7TUZoJ5LF38v7Og8lEj8z7/8AfzhK8v8AFHwN8beCdD/tTWfB/ifR9P73d3pE8Fv/AN/JEqAOVorqfDXwN8beNdNtLzR/CHijWLS83iCa00ieaO4KH95sdE/eGP1+lM8L/Bfxl4y1C+t9H8J+KNWu9LfyL2G00ueeSzf+5JGifIaAOZoq9r3hy+8JavcWGqWN5pt9bvsntbyCS3uE/wB9JKonr+NABSSf6l/pS0kn+pf6VUPiQpbM/IDvQOtHegda/RqeyPlKmz+Z+p37P/8AyQTwP/2L2nf+ksddl3rjf2f/APkgngf/ALF7Tv8A0ljrsu9fD5p/vlT1Z9Blv+60/wDCFFFAOD/KvPOwKK9C/ZT+E2m/HH9oHwz4T1ae8g03WrmSCeS0kSO4j/dySfJvR/8AnnUPjf4I6tafFDxhpXhnR/EGu6f4Y1ubTfOhtXn2Hz5LeDzHjT78mz/tpQBwdFb/AI3+E/ir4bQwP4i8M+INBiuBiB9S0+a1Mn+5vT/PFe6/DT9i3SfjR+0jpXhrTdK+J/h3wz/ZMd9qk2v6Ykd3HIUkACbF2IkmweW8nP3/AEoH8LsfNdFanjTwfqnw/wDE1zpesaffaXfQP89vfWrwTrGf9Wdkn4Vln+vfr+VBVSPLLlCiiikQfN//AAVC/wCTftH/AOxig/8ARFxXwf3r7w/4Khf8m/aP/wBjFB/6IuK+D+9ff4H/AHOn/XVnytb/AHmp/XRB3r9f4/8AUp9K/IDvX6/x/wCpT6V4vEG8T1Mp2kLRR/npXrX7EfwD0f8AaU+PuneFdeutStNPvLWe4Z7F0S4yibx99H4/xr55++j1J1OV27nktFfSGheFP2XfEPiMaQ2tfGHw+zP5C3uopp0tnHJ/t7EeT8wa8z/ab/Z01T9mn4qzeGr2aPUI5ES70+7hRWjv4XyEcpyOORUGijynndFdR4p+BvjbwRon9qaz4P8AFGjaev8Ay93mkTwW4/4HImaTw78FvGXjDT7K60jwj4o1W0v/ADBazWelz3Edx5f39hjTMhj9aCTmKK660/Z98eX/AIgu9Ht/BPjCbVrNEe6tI9Ime4t0k+5I8ezzErDn8I6rbeJP7El03UE1gz+R9ga1k+0b/wDnnsx5nmUAZtFdH42+DnjD4aafBc+I/CviTw/bXD7Em1HTJrSKR/8AgaVznegAP9a+Pv8Agqv/AKzwH/3Ef/aFfYJ/rXx9/wAFV/8AWeA/+4j/AO0K9LJ/95ic+P8A4J8gGig0V9sfNhRRRQAUUA8/5Feqfsi/tGWv7MnxIvtevPDcfipLzTpLD7G919n8rzHSTzN/lyf3P/IlTV5ow90qnroeV0V9uf8AD3fRAP8Akjun/wDg/wD/ALlo/wCHvGi/9Ed0/wD8H/8A9y15/wBYxP8Az6/8mOpYej/MfEdFfbn/AA940X/ojun/APg//wDuWj/h7xov/RHdP/8AB/8A/ctH1jE/8+vxH9Xo/wA58R0V9uf8PeNF/wCiO6f/AOD/AP8AuWj/AIe8aL/0R3T/APwf/wD3LR9YxP8Az6/EPq9H+c+I6K+3P+HvGi/9Ed0//wAH/wD9y0f8PeNF/wCiO6f/AOD/AP8AuWj6xif+fX4h9Xo/znxHRn6euT2r7c/4e8aL/wBEd0//AMH/AP8ActB/4K8aH3+Dun/hr/8A9y0fWMT/AM+v/JhfV6O/MWf+De/4IeDP2gf2/wD/AIRnx54Y0fxb4fuPDt072Gq2yXFuH8+Dy3/66dK/eH/h0B+y6eP+FD/Df0x/Zf44+lfib+zb/wAF0tK+CHxj0PxFH8KbexS3n2XU0Gr/AGiRIJP9ZhPJj8z/AL+Cv3Rh/wCChPwtX9lN/jC3iTT4/CMVr58k32jq+z7n0rw8w+tSqKbjY9LC+x5eQ/AP/g4b+B3gz9nj/goL/wAI54D8MaT4S0C38NWVwlhpVr9nty8kk/mP/wBdOtfCw49PTjvX6MftLf8ABdDS/jl8Z9c8RP8AClL6Gefy7WabV/s8kkEf3Ds8mTy/k/6aGuD/AOHu+ij/AJo7p/8A4P8A/wC5a9bC1MXCny+yv/28cNSlRlPm5z4jor7c/wCHvGi/9Ed0/wD8H/8A9y0f8PeNF/6I7p//AIP/AP7lrb6xiV/y6/En6vR/mPiOivtz/h7xov8A0R3T/wDwf/8A3LR/w940X/ojun/+D/8A+5aPrGJ/59fiL6vR/nPiOivtz/h7xov/AER3T/8Awf8A/wBy0f8AD3jRf+iO6f8A+D//AO5aPrGJ/wCfX4h9Xo/znxHRX25/w940X/ojun/+D/8A+5aP+HvGi/8ARHdP/wDB/wD/AHLR9YxH/Pr/AMmH9Xo/znxHRX25/wAPd9EI/wCSO6f/AOD/AP8AuWvnf9rr9oy1/ab+JFjr1n4bj8KpZ6dHYfY0uvtHm+W7yeZv8uP+/wD+Q62w+IrSl70TKpSh9mR5XRQTz/k0V2rc5vUK6b4Lf8lk8I/9huy/9KErmT1rpfgp/wAld8I/9hq1/wDR8dY4j4JFU/iOaooorVbBLcBX1/8A8EqP9Z48/wC4d/7Xr5AFfX//AASo/wBZ48/7h3/tevMzT/d5HVgP4p9gj+tFA/rRn/GvivU+h66AOvv2r66+Cnh2w/YQ+CC/FDxJawy/ELxNC0Hg7TJ/9Zp0cifvLl07cY4/2tn/AC0r5d+HXia38H+PtD1a902PWLXTL2C6nsHfZHdoj7/L+r+lfRXxY/bp+Gfx08X/ANveLPgfcaxqvkLD5r+Nr2MKqn7iJHH5afQEZ960l8HuiXx+8H/BNWzj+L37X+peIPFFx/aWoaZpd1riT3C/aDJdb449+3q+wSb/AMa9I+Efx68DeF/HOsXfjL9oq+8eaD4htprPUtDvvC+qfZ5C/Ty0fekf/AErwaP9q/w78OPiN4d8S/C/4dR+AtQ0eSYXqy69datb6nA//LGRH8vy0/1hzxyRXRWP7dfhPwDqera94D+Eum+FvGurQPB/ara3Pdx2u8fO8Nq6BI+R2/8ArVnryAjrfHfxO1f4V/8ABNnwDH4S1/VNPXUPE1/H9us55LSeeBJ7gpg/f5/dv/wGoP2q/ih4k+Cv7PPwd0nwrrWsaHD4l0UeINTu7O8kt7jUryby5JHeZP3j5Mh57/hXi3jb9o9/G/7NPhX4eS6Xsk8O6nc6k+qvfeZ9r8+SR9mzZ+7+/wD3/Sug8E/tfaPdfCLSvB3xC8BWfxA0/wAOyP8A2NcnVn027sI3/gDxpJvTHGR/hUUeb3r/AN37rf5j6v5nafthanJ8Wf2Ofg98Qtcy3i28kutKurzyxvv4YJJAjuP+Wn+r/wDIj18t9P8APSvUP2lP2nLz9oO80a1i0ex8M+GfDFt9l0XSLOTzI7OP2f8Ajk/d4xXl46f4dqqPxSmJ6RjAKST/AFL/AEpaST/Uv9Kun8SE9mfkB3oHWjvQOtfo1PZHylTZ/M/U79n/AP5IJ4H/AOxe07/0ljrsu9cb+z//AMkE8D/9i9p3/pLHXZd6+HzT/fKnqz6DL/8Adaf+EKKKBXny7HYz2j/gngM/toeAv+v2THt+4kr3b4Z/EHUfhb4f/a817SZpbXVLHW0jtZU/1kEj312m9P8Av5n8K+Vf2dfi/wD8KE+M+geMP7N/tP8AsSaSf7H5/wBn+0fJIn3/AC5P79dcf2r93hf4xab/AGD/AMlY1FL/AH/bf+QZsupJ/L+5+/8A9Zsx8n4d6j8Eov8ArY0p8vtfe8j0rwn8Rdc+Kv8AwTV+KjeJNU1DxBNpGuae9ncajdPPJbl549+1259f+/lfQlpq11Y/8FNPB9jb3l1HZ3ngKEzwpM6Rz7FuDGXT/lpivhnwR+0P/wAIb+zR41+HP9j+d/wmF9a3X2/7T5f2TyHjk8vy9g8z7n/PTtXoGr/8FAri7/am8M/Eq28Lxw/8I/pCaPJpjajv+2pskR/3mz5Pv/3P4Kp8vNdf1pY4/ZyS/rvc8J8b+ItS8WeLL7UNUvrzUb6R8Pc3k73Ekn/bR6y66b4seKNC8ZeN7rUvDfh2TwvpdwI9unNqD32yT/loQ8iJ+Vcyf1HXisKfwndWqc0ucKKKKoxPm/8A4Khf8m/aP/2MUH/oi4r4P7194f8ABUL/AJN+0f8A7GKD/wBEXFfB/evv8D/udP8Ar7TPla3+81P66IO9fr/H/qU+lfkB3r9f4/8AUp9K8XPvsnqZTtIU9K+kv+CT3/J5+j/9eV7/AOia+ba9I/ZP/aE/4Zi+Mlj4u/sf+2mtIJ7YWf2n7Jv3ps+/sevn4HpVI3SfY4HX+fEGof8AXeT8P3nX/wCvX6WeEvAun6l8dPg3b+JI4zr3g34ayalIlwN8lvOn2eNHdP4jGfM/GvlnQf2uvhD4U8Rf2xpX7P8AYR6pHJ5kE194qur6BH/vmCSMx/lj2ri4/wBtTxxD+0g3xMa5hfXsGI27qfsnk/6v7Lt67PfIrOnrGP8AXRr9TapLmk5/1ufR3wk+PfgXwt451i78Z/tFXnjzw/4itZrTUtEvvC+qC3l3/wDPJH3on/AE9a5nx38VdY+Ev/BM7wPb+D9a1HTodT8R6hD9vs5JLea6t0nuJE+f76eZhK4+y/bq8J+AdU1bXvAfwl03wr401aF4P7VbW57qO13/AH3htnj2JyPboB7V5144/aQk8cfs0+Fvh3Lpm2Tw7qd1qT6q175n2vzpJH8vy/L+T7/9/wDnzjLnTXL/AHfzD+vwPoH9sn9obxx4e/Z3+Bd1p/ibWtO1DXdC+16jeW11JDcahMkcWxndP3j/AH3/AO+817F8SoI/CXxc+JXxCsbeGTxX4f8AhrZ31lcshfy5pvtMckw/29kEY47cV8M/HP8AaK/4XP8ADX4d+Hv7I/s8eANMfTRc/avtH9oB/LG/ZsTZ/q/R/wAa9A1r/golqt58dLbxdZeHbW200+HofDep6NdXX2u31K1QyF97+XGI/wDWd/8A9ez95P5/qZfy/wBdjr/2Dfin4g/aJ1H4g+BfHGuah4m8O6t4bur9/wC1Lh7r7JOjoI5keT/Vj95+YSvkQ8/nXv2q/tm6B4V8A+INF+Gvw00/wDP4qh+y6nqL6xNqc8kPI8mPzETZx6/rXgOMf561lH4zf7AH+tfH3/BVf/WeA/8AuI/+0K+wT/Wvj7/gqv8A6zwH/wBxH/2hXr5R/vMTjzD+CfIBooNFfbHzYUUUUAFFFFTUZVPzCiiis/ZzD3Qoooo98aCiiip9+ZfuhRRRVe+TqFFFFD57aCV+oZ/z6V0X/C2fFH/Cs/8AhC/7c1D/AIRX7b9t/szf/o/nf3652iiNOTiufzKVTX3Qz/n1ooooTnBIXuc4UUUUoc95FPk6BRRRT98nqFFFFT78n7pXuhRRRVe+TqFFFFHv9QCiiit47mYV03wW/wCSyeEf+w3Zf+lCVzNdN8Fv+SyeEf8AsN2X/pQlY4j4JFU/iOZooorVbBLcBX1//wAEqP8AWePP+4d/7Xr5AFfX/wDwSo/1njz/ALh3/tevMzX/AHeR1YD+KfYI/rRQP60V8UfQBRRRQAUUUUAFFFFABRRRQAUkn+pf6UtJJ/qX+lVD4kKWzPyA70DrR3oHWv0ansj5Sps/mfqd+z//AMkE8D/9i9p3/pLHXZd6439n/wD5IJ4H/wCxe07/ANJY67LvXw+af75U9WfQZb/utP8AwhRRRXnnYFFFFABRRRQAUUUUAFFFFID5v/4Khf8AJv2j/wDYxQf+iLivg/vX3h/wVC/5N+0f/sYoP/RFxXwf3r7/AAP+50/66s+Vrf7zU/rog71+v8f+pT6V+QHev1/j/wBSn0rxc/3ieple0haKKK+bPWCiiigAooooAKKKKACiiigAP9a+Pv8Agqv/AKzwH/3Ef/aFfYJ/rXx9/wAFV/8AWeA/+4j/AO0K9LJ/95ic+P8A4J8gGig0V9sfNhRRRR/wAAfh+I/yPz9K+x/Cf7F3wW8GH4W+E/ib4i+Itr8RPivpdrqdpNpEdr/Znh9L5/LsY7tJ08ybv5mySP8ADivjjnNfovr37NPiD9sP4r/s+/Frwimn3fgPS/D2g2nijVn1GCOPw3Ppz/6Uk/mP+78uNN/P+srlxDdk5d/8zSjzczXS3+R8FfF74Z3/AMFviz4j8I6p5baj4X1SbTZ3T/VyPBJ5e/8ApXO9v88V6n+258VbH43/ALX3xG8V6W0c2l6xr13cWUyZxJBv2Rvz/wA9I68sqsNOcqUZT+IvERjCq4RDNOhi86Ty17/pTaK6H1ObofU37Uv/AATssf2Vf2QtP8W6l4ts9c8fyeK00LV9N0q6juNP0PfayT/Z5H8v95d/u4/M/eeXH5n/AG0r5ZPB/wAa+lpv+UPS/wDZYf8A3D1801nT5lOcZ/1ojoq/CgoFFGcevvjvWhiz1T9kv4SeDfir431Z/iD4sTwj4S8N6RPq97JDPBHqOp7P9Xa2Mc/7t7iT0967r45/s5/DS+/ZUtfi58K7zxxb6TZ+Jf8AhFtU0rxV9lebz3g+0RzwTQxxx+Xs48vy/wCVZf8AwT1/Yf1b9uv42PoNvdXGnaHo9r/aWt3sKeZPHB/cgT/lpPJkxp9PavWP+CmHwv8Aip4D+F/h/Srj4XXnwq+B/hG++yaDYzaha3Fxd3bpJ/pV88bv5l5JGj9MRp9z/rpx16j9rGHMdGFjzQk+X+v61Pi3OR/jRQOnAwP5f/WorsOcOn+ele7fs4/CT4R3Hwf1Txh8UPEHiSa4XWE0bR/C3hK7tY9cu5Nm97uRJ45NkH/LPHl/vJPrXhJ5/wA/5/ya+nf2KP2b/iD4u8FyfEj4I+JPtfxS8L6rJaz+HbaCFNQs7GeH/j+jkmk/eJ87x+X5fNTV+C5VP4jiv27v2ZNN/ZP+N6aDo2oapfaTqmj2uu2SarB9n1DT47pA/kXSJ/q7iOvF/wBf8/5/Svq7/grddWN18W/Bf9oSaPcfFKPwnap8QptJ8j7PJrH8fmeR+787Zs8zy6+URx7e1Y4Wc5U/eNq1PlncKB1/+t1ooBwf8810LyOf1PqT/gnr/wAE97P9qvT9c8QeMNW1Dw/4Vs7W6t9LeB0S81vUYLWSfyId8cnyRom95PL/ALiV8t81+oX7G/7S/wAE/jn+0H4S0vw34e+KHh//AIQvwbqmm6Xpz6jY/wBj28H2GeS6k2eT5n2i4+eTzDJ/rK/NX4hvoMvjPUm8KW+sQeHfPxp6arMkl4kf+2yJGnmdP9XXn0a85YuUf7v6s29nH2XN/WyMeignP+f5dsUZ/wAnp+deir3MVqaHhfw5ceMvFGnaTZr5l3ql0lpAn/TSR/Ljr7M/bI/Ys+Cv7MmjeLre38J/tOT3eg+ZY6d4nubWy/4Re4vdnlp+/wDJj3x+Z+7/AHf7yvlP4BXS6f8AHTwfNL4i/wCERjt9btZP7bksku49H/fR/wCl+S/7uTy/v+Wa/RLQfBvxg+A/jj44eLfjt4wvPEfwk1fw3qlpHfahrEEmn+L55/8Ajy+w2qSeWkkn34/Lj+T7lefjKk4xUvX9Dow0OaTj6H5enr7f5/zzRRnPv/n/AD+tFd9O9tTGXxNBXTfBb/ksnhH/ALDdl/6UJXM103wW/wCSyeEf+w3Zf+lCVliPgkFP4jmaKKK1WwS3DOP89K+sv+CWHiOzsfEfjLTZJkjvtQgtZ4E/56Inn+Z/6GlfJucfn2FXfD+vah4W1eC/024uLO+tX8yGaCTZIn41z4zD+2pcqNMPU5J87P1zPX8elFfm7H+3h8V4otn/AAlsn/gttef/ACHTf+G9Pix/0NX/AJTrX/4xXzf9g1eh6n9qRP0kor83P+G9fix/0NX/AJTrT/4xR/w3r8WP+hq/8p1p/wDGKP7Bqh/akD9I6K/Nz/hvX4sf9DV/5TrT/wCMUf8ADevxY/6Gr/ynWn/xij+waof2pA/SOivzc/4b1+LH/Q1f+U60/wDjFH/DevxY/wChq/8AKdaf/GKP7Bqh/akD9I6K/Nz/AIb1+LH/AENX/lOtP/jFH/DevxY/6Gr/AMp1p/8AGKP7BrB/akD9I/wz61R8T+I7Twl4bvtS1CaOGxs4XuJ3f+BMV+dX/DenxYJ/5GrH0060z/6IrnPiV+0v46+L+lx2niDxBPfWPeFEjt4nP/TTy44/Mp0chq+0TkDzONrI4U0dePXijGP6cUHpX1cbKy9DxpO7uj9Qv2YPEdn4p/Z38GzWc0c6waPa2kgT+B0Ty3T/AL7Su+Nflf8ADD47+MPg35//AAjOtXGmx3P34Qkc8cmf9h96V2X/AA3r8Wv+hrz9NLsf5eTXkYrKIYitKtzfEdFDMJ0aMY8p+j1FfnD/AMN6/Fr/AKGr/wApdj/8Yo/4b1+LX/Q1f+Uux/8AjFcv+r8Fpzfh/wAE3/tSf8v9fcfo9RX5w/8ADevxa/6Gr/yl2P8A8Yo/4b1+LX/Q1f8AlLsf/jFP+wYfzfh/wQ/tSf8AL/X3H6PUV+cP/Devxa/6Gr/yl2P/AMYo/wCG9fi1/wBDV/5S7H/4xR/YMP5vw/4If2pP+X+vuP0eor84f+G9fi1/0NX/AJS7H/4xR/w3r8Wv+hq/8pdj/wDGKP7Bh/N+H/BD+1J/y/19x+j1A4/AZr84f+G9fi1/0NX/AJS7H/4xQf29vi1/0NX/AJS7HP8A6JqXkEP5v/Jf+CH9qTvbl/r7j6C/4KieIrOL4R6HpLzR/brjWEu0i/2EgkSST/x9K+G+1bHjbx5q/wARvEEmra9qNxqF9LwZpX/T/pnWPnNfQU6caVGNGH2TzfeqTlKQCv1y8MeI7Txb4bsdS0+aOaxvIUuIHT+NMV+RuM/14ruvhr+0v46+EGlyWnh/xBPY2PaF0juIkP8A0z8yOTy687MsBPEw9w7sHiVRP1G/DHpRX5uf8N6fFgH/AJGrP1060z/6Io/4b1+LH/Q1f+U60/8AjFeN/YNU7v7UgfpHRX5uf8N6/Fj/AKGr/wAp1p/8Yo/4b1+LH/Q1f+U60/8AjFH9g1Q/tSB+kdFfm5/w3r8WP+hq/wDKdaf/ABij/hvX4sf9DV/5TrT/AOMUf2DVD+1IH6R0V+bn/DevxY/6Gr/ynWn/AMYo/wCG9fix/wBDV/5TrT/4xR/YNUP7UgfpHRX5uf8ADevxY/6Gr/ynWn/xik/4b0+LH/Q1f+U61/8AjFL+waof2nB7n6SDr+PSvjH/AIKn+I7O+8R+DdNjmSS+0+C6nnT/AJ5o/keX/wCgPXlcn7eHxXli2f8ACWyf+C214/8AIdeXeINe1DxTq89/qVxcXl9dP5k008m+R/xrty/KJUqvPMwxGPjOPLApZz/nrRRnP59xRX0B5gUUUUAFFFFABRRRQAUUUUAFFFFABRRRQAUUUUAFFFFABRRRQAUUUUAFFFFABRRRQAUUUUAFFFFABRRRTjuAV03wW/5LJ4R/7Ddl/wClCVzNdN8Fv+SyeEf+w3Zf+lCVjiPgkVT+I5miiitVsEtwooooJCiiigAooooAKKKKACiiigAooooAKKKKACiiigAooooAKKKKACiiigAooooAKKKKACiiigAooooAKKKKACiiigAooooAKKKKACiiigAooooAKKKKACiiigAooooAKKKKACiiigAooooAKKKKACiiigAooooAKKKKACiiigAooooAKKKKACiiigAooooAKKKKACiiinHcArpvgt/yWTwj/wBhuy/9KErma6b4Lf8AJZPCP/Ybsv8A0oSscR8EiqfxHM0UD/PtRWq2CW4UUUUEhRRRQAUUUUAFFFFABRRRQAUUUUAFFFFABRRRQAUUUUAFFFFABRRRQAUUUUAFFFFABRRRQAUUUUAFFFFABRRRQAUUUUAFFFFABRRRQAUUUUAFFFFABRRRQAUUUUAFFFFABRRRQAUUUUAFFFFABRRRQAUUUUAFFFFABRRRQAUUUUAFFFFABRRRQAUUUUAFFFFABRRRTjuAV03wW/5LJ4R/7Ddl/wClCVzNdN8Fv+SyeEf+w3Zf+lCVjiPgkVT+I5miiitVsEtwooooJCiiigAooooAKKKKACiiigAooooAKKKKACiiigAooooAKKKKACiiigAooooAKKKKACiiigAooooAKKKKACiiigAooooAKKKKACiiigAooooAKKKKACiiigAooooAKKKKACiiigAooooAKKKKACiiigAooooAKKKKACiiigAooooAKKKKACiiigAooooAKKKKACiiinHcArpvgt/yWTwj/wBhuy/9KErma6b4Lf8AJZPCP/Ybsv8A0oSscR8EiqfxHM0UUVqtgluFFFFBIUUUUAFFFFABRRRQAUUUUAFFFFABRRRQAUUUUAFFFFABRRRQAUUUUAFFFFABRRRQAUUUUAFFFFABRRRQAUUUUAFFFFABRRRQAUUUUAFFFFABRRRQAUUUUAFFFFABRRRQAUUUUAFFFFABRRRQAUUUUAFFFFABRRRQAUUUUAFFFFABRRRQAUUUUAFFFFABRRRQAUUUU47gFdN8Fv8AksnhH/sN2X/pQlczXTfBb/ksnhH/ALDdl/6UJWOI+CRVP4jme9FFFarYJbhRRRQSFFFFABRRRQAUUUUAFFFFABRRRQAUUUUAFFFFABRRRQAUUUUAFFFFABRRRQAUUUUAFFFFABRRRQAUUUUAFFFFABRRRQAUUUUAFFFFABRRRQAUUUUAFFFFABRRRQAUUUUAFFFFABRRRQAUUUUAFFFFABRRRQAUUUUAFFFFABRRRQAUUUUAFFFFABRRRQAUUUUAFFFFOO4AetdL8FP+Su+Ef+w1a/8Ao+Ouarpvgt/yWTwj/wBhuy/9KErHEfBIqn8RzNFFFarYJbhRRRQSFFFFABRRRQAUUUUAFFFFABRRRQAUUUUAFFFFABRRRQAUUUUAFFFFABRRRQAUUUUAFFFFABRRRQAUUUUAFFFFABRRRQAUUUUAFFFFABRRRQAUUUUAFFFFABRRRQAUUUUAFFFFABRRRQAUUUUAFFFFABRRRQAUUHp/Wui0f4N+LvEdgl5pvhXxJqNrJ92a10uaSN/o8aVEq0YbmkU7aHO0V2H/AAz548H/ADJHjD/wTz//ABFH/DPvjz/oSPGH/gnn/wDiKj6zTYvY1Dj6K7D/AIZ98ef9CR4w/wDBPP8A/EUf8M++PP8AoSPGH/gnn/8AiKPrFIPY1Dj6K7D/AIZ98ef9CR4w/wDBPP8A/EUf8M++PP8AoSPGH/gnn/8AiKPrFIPY1Dj6K7D/AIZ98ef9CR4w/wDBPP8A/EUf8M++PP8AoSPGH/gnn/8AiKPrFIPY1Dj6K7D/AIZ98ef9CR4w/wDBPP8A/EUf8M+ePD/zJHjD/wAE8/8A8RR9ZprYfsanU4+iui1j4N+LvDlg95qXhXxJp1rH96a60uaONPq8iVzo6f1qo1lPYT5gooorWO5AV03wW/5LJ4R/7Ddl/wClCVzNdN8Fv+SyeEf+w3Zf+lCVjiPgkVT+I5miiitVsEtwooHWu7/Zy/Zz8TftS/Eu38K+FIbMX3kPd3NzeT/Z7PT7VPvzzv8A8s0jqZNrUnXocJRX0L8Vf+Cc/iT4ffCvWPGWg+NvhZ8TNH8NlBrX/CGeIv7UuNHST93HNMjxx/u9/wDHHivnrr2HTP8AkdKzhiIS+EqdOcWFFd14u+AeseDPgN4P+IV1daXJo3jO9vrGyhikk+0I9r5fmeYmzy/+WnyfO/41wvetObuHstLhRR/+v6V2fxj+BmtfAufwymufYhJ4s8O2viSyS2n8zyrW637PM/2/kNHN1DWxxlFfQnwS/wCCdmt/GL4D2vxJuviF8K/A/hu/1WfSYH8VaxNYSvOieZsykEif+RO/SsD9pb9ijxJ+zJ4Z8P8AiCbW/B3jDwt4okeCy17wrqf9oae88eC8G/ZHses/rEOblHCnOUeeB41RQOn+eaK25l0I16hRRRU8yHysKKKKd0KzCiiimAUUUUAFFFFABRRRQAUUUUAFFFFABRRRQAUUUUAFFBGa9F8Z/sya94I/Zr8HfFK6vNHfw/401G602xtoZ5PtkT2kmyTzI9nl+X/wN/xqalSMfjKXvnnVFC/L3984/l/kf4dT8Yvhd/wpz4iX3h3/AISDwr4q+xpG/wDaPh7Uft+n3HmJG/7ufy4/M8vf5cnT94PajmuUro5aiu0/Z9+B2tftI/FfTfBvhv7HHquqRzSJJez+XbxxwQSXD+Y//XNH/KuLIwOh/HqKOZfAwd9wor2j4m/sH+OvhX+yx4V+Lmqf2WfDPi2REhtoZpJNQtI38zyJJ49nlpHJ5Emz53/GvF85/nR7SD0ZPL9sKKOv8q7r9nr9n3Wv2lvGt14f0G60u1vrPSr3V3e/d0jEFrB58n+rjk/ebE96JVFCPNINThaKD1/zxRT5g1Cij9fb1r1r4+fsg6t+zn8N/BXiDWPFXgu+n8caXa6zZaJYXU8mqQWt1HvSeZHgjjjj+TZ+7kk/eA0pe7qL4jyWiu68Ofs/a14j/Z68RfEq3utLj0PwvqlrpNzE7v8AbHnnSSSPy02eX5Y2f89K4UHIqfbe9yi5Xy8wUUda9a0b9kHVfEf7KWufFrT/ABV4LvNJ8LvBHquiJdTf2xYefdeRB5ieT5f7z/Wf6z/V1VR8secpXseS0Uf5+v4UVXmSFFFFABRRRQAUUUUAFAODRR3/ABpx3A9F/ZK8CWPxH/aG8M6PqiedY3E7yTp/z02QPJs/8cr9N7W0S1t0jhXZHH9xF9K/OH9gj/k6/wAK/wDbz/6Sz1+kVfKZ837TQ9vLdg7+9FFFeHzM9EKKKKOZgFFFFHMwCiiijmYBR396KKOaQiO6tEurd45l3xyffRvSvzI/a18CWPw4/aG8TaPpaeTY286SQJ/zz3wJJs/8fr9O6/N39vf/AJOv8Vf9u3/pLBXt5C26ruedmXwo8hJyaKO/40V9ZHc8UK6b4Lf8lk8I/wDYbsv/AEoSuZrpvgt/yWTwj/2G7L/0oSscR8EiqfxHM0UUVqtgluGM/wAsY6171+wDr/xC8HfEDxV4h8B+FtP8cWul+Grr/hLNFu5I9l7o8nlxzps8yN5D/q/ueZJXgvX/AD/Sum+EHxl8VfALx7aeKPButah4f13T+YLu3k/8hyd3j/2JKVS8o8qD7Vz6v+HPhz4Y/tQfCz4qXHwt0r4ifA/xJ4f8KXWrapZ23iWTU/DesWUHl77Wd32XH7z+COTenrX1D8Sv2jPAf7JHxo8I/CjTf+Ft3fhlNI05LXwZ4e8I6PqWj+LIJ7ePfJ+8fz7qSf5/Mk7yfp+ffxn/AOCk3xs/aH8BXXhjxV46uL7Q7uTfdWdnp1rp8d7/AL/2WCPf/uP71J4C/wCCmPxy+HPw7sfC+j/EC8tdL0u1ewst9laz3lhBJ/BBdPA86J/1zk/d+9eZLCTkdTrxjp/XQ+3P2aPhh4M+IU/wB0u80G8i8N6f4u8e3+l+HtXtU+0B4PLkhtZ4HfPmR7D8nmf6xK4/x5+1d4D/AGufhB4t8K+JJvjx4+jW+sZI9Y1rwbpVvbeAn+1eW7vNavvgjkj3x+W/Svhuw/ag8f6Xo/hHT7XxNqFrB4H1G61bRHhRI59Pu55I5J388R+Y/mbP+WknWum+OX/BQT4wftJeCn8PeMPGMmpaFcXX2y6tLbTrWwjvJ/8AnpP9lgj8/wD7aeZRLBTcomntoOKh/XU+vf2gv2kvjZo/7bfjj4G/Dzw74f1XwPo9lPp2neCbzT4Y9Lt9OS0jf7V5mYNj/wDLeN9/+s/7915D/wAFaPjl4u+JcnwZ0/XtfvNSsLn4c6Jrrwzfx311BJ59x/10k8v/AOvXles/8FHPjX4j+Fk/gu88eahNodxp39kzf6La/bJ7T/ng97s+0SJ/sGTiuO+Jf7UPjr4y/Dbwz4T8TaxHq2h+EII7TSEfTrSO4s4Y4/Ljj8+NPPePy/4Hkqo4acYRf8v/AATL20WpL+uh9c/D+X4Wx/8ABHXwX/wtiD4gTaMfiHfC1HhKe1jn8/7J/wAtPtSSRmPy9/FdX+wj+1V4M8ZftW/BD4U/DLwxrGh+BPC+q6prM9z4ivku9U1i+k0qdN7+WNkf7v5NkdfBOofHfxVqvwS034c3Grb/AAbpeqSaza2BtIMx3ToUd9+zzPuf8s/M8uofg38Y/En7P/xL07xb4T1H+y/EGkGT7LeeQlx5fmJIknyOkif6t3962eF5ub+9/kYUK3JGMf63PtzwR+1/8RtX/Y++LHxm/tf+0vib4e1qy8L2eqixg8zwxo87ySSeRHs2R+ZJ+78zr/q/7lesfBCX/he/wg+Hvxv8WaPpXiD406X4S8WX+jvLpyRyeJJ9O8sWM7wIn79497+X2r84/gT+1B48/Zp8R6jqvgvxFcaPeaxAIL5PJhuLe7j/AOebwzo8cn/bRK9U+Dn7ZusfFX9q/Q/GHxc+J3jTw/No9i8Gk+IdFtYP+Kfn8v8Acf6FHH5b2nHzwRp+8zXO8HNX5Xt/kdf1iHNzSX9X/r7j6T+A37UHj79qX9iTW9V8fXg1u60/4m+FrS21iSyjt7i4j+1RyeRI6Im/y9+/P/LPzx7Ctv4n/Hj4yeO/+Cg3xi03RvEPgfSvCvwmTUdQgv8AxLp+/T/B6fu45L6FIY/Me7+eTy/Mjf8A1j9a8w/au/4KEIP2aI/CWl/Fz/hbni7UPEtrrp1Sz8J/2Fpehw2r+YkccLwpvmkuP3jybK+ZfC37cPxR8E/HDXPiRpfiq4tPGPilHj1e8+x2skeoRyf6xJIdnkSJ/wBs65aOFqSqyly/zfkv8mNzUYXv/L+b/wAz9Bb/AFlPi/8ACL9n/wAVX3xL/wCFxaro/wAcdL0y08Tv4ak0iSOB/Lke1QTokk6b40ff/wDG6z9L/bN8deKJf2vY7680e5tfhPPJd+ELObSLWS38PTwajcQRzwJs+/8Ax+Y//LQ18TeMf+Ck3xr8fJo6av4z+1W/h/V7TXtLh/sexS30++tf9Q8EaQ+Wmf7mNkn8feuKtv2oPHVgfiAYta2/8LQ8z/hJ/wDQof8Aia+ZP9o67Pk+d9+Y/LroeDnUjb1/T/IUsTFcvy/Nnun7f3xH1X45/sn/ALOfjzxRNHqHjHXLLXrXVNV8hI7jUEtb6NIN/l/f8uN6+Tf8OnpXSeKfi/4h8Y/Dvwz4V1LUvtegeC/tX9kW3kJH9k+1P5k/zogkfzJP+en+Nc2OBXfRp8luXzOapU5tgooorcxCiiigAooooAKKKKACiiigAooooAKOooo/yTjpR6AdT8MPg34n+NEuuL4Z0mTVX8N6RPr2oRpPGht7GDyw7/O/7z78fyR/vPSv0R/Y78EaD8Rf2dP2O9B8SWNvqVpeeK/FN+lhcJ+71GSBJ5E9d6eeicdK/PL4I/HTxd+zn8QLXxV4L1q48P65Zo6JcRRpJ+7k/wBZHJG37t0/6ZvXTfGb9tf4ofH3x3ofibxR4w1G+1zwvxpFzarBYHS/3m/zIEgRI45MnHmD26Vx4ijKt7hth5Qg+eZ9Q/Cn9pHx5+3D8H/2hdF+MHl65o3g/wAJ3XiDS3m0+C3/AOEX1SCeNIIIJETenmfvE2f9M/8ArpXun7S/xd1z4B+JP2yPFXhme3tPEGlweBRZXLwJObOSSDZ5ieYPv+XJIK/P/wCNP/BQn4xftBeB7jw34u8Zz32h3EyXV1bW2nWlh9skj+5JP5MEfnj/AK6b/wAax/iD+2d8S/ihB41h1/xJ9uT4if2d/wAJF/xLraP7f9hP+i/cj+Ty/SPYZP46zjhZKPLf+rr/ACOz6xBXP0U/Zq+PHirx98RP2WfHmoarv8VfEHwv4w03xJfwQxxyavBp3nyWvn+Wn/LOSON6/Ov4TeEvE/7cX7WGh6PqOoXmq+JPHmtpHeX748z95/rp8/8ATNN8n/AKj8Gfth/Ej4e/8K//ALH8SSWP/Crze/8ACNbLGD/iX/an33X/ACz/AH3mf7e/8c1H4X/az+IHgf42ah8RdJ1i307xlqyTJNqFtpdrGD58flvsTyPLgfZ/HHHH26Vp9XtP2kI9/wA2/wBTmnU5o8p+mmteE/Dv7SPxk+MXw1tfij8J9R8K+OPDVr4b8G+G7DU55L/R7rSk8y1/d+Sif6zz5JPLevn3xb+0/wDEb9jL/gnV+z3beD9SbwrrlxqHiK31Gb7DBJeYg1H/AFHzo/yeZJ88f/TP618OeBPHesfC7xvpXiTQb+TTdc0O6S/srxOJLe4jk8yOT5/8a6343/tX+PP2h9O06y8Ya5Hq1ro17e39qiadaWnlz30/n3Un7iOP/WSZfgDrWVPCtNOXvbc3yNfbQStyn6HftYzSfsmXP7SfxK+Glhp+leO/+Eh0CwfULa1gkk0CyvbGOeeeBHT5PtE/7vzK1vhx8UfEHxp8J/s/eKvF0McfiDWPh78QHupktUt/t/yJGk3lx4+d0j3/AO39+vlf9ln9sybxH49+IHizxv8AGzXPhz8RvEFra2kGsf8ACOwanoWqQJH5ckF1pyWr/P5aJ5b7P+elXv21v+Cjuoa1r/gG38A+P9Q8Xal4N0DUdN1HxZdaJBaR6u+o/wCuSC1kj/cwRokaR/u465qmHl/D6X/9ta/M0lWhOKkl8Nv+3tUz3PR/j54P/Ye/Zw+BGm6XrnxQ8Mx+MPDcGu3P/CJeGtK1O38SXzv++S7kun3u8f3PL/5Zp5dFh+0Z4Q+ED+O7PQ4fip+yjb+JPF39pWXiPUPACXFvJ/okBk0qeD95Inlv5jxonyeW9fE/wR/4KHfGT9nfwRB4c8JeMpLHQ7OeS6tLO5061v47R3/jh86CTyM+kezmk+Gn/BQ/4yfCX+3P7G8bXkkfiPUf7W1FNSsrXV47m67z7LpHMcnX505+taywk5SlJ/1rczjiFZR/rY1f+CmHgfXvBv7XviBvEaeE/t3iCG11aOfw3avaafeQTwJ5c6QSfvEkf77p/f319g+HNFtbz9o34a68ulWeua/4M/ZmsfEPhqzuYPtEcmqQQSeR+7/5aSR75Hx/sV+b/wAVfit4h+N3j/UfE/irVrzXPEGsPvury5P7yT3/AOmf+57V9L/tTftGaDCnwP8AiF8L/iVJB488D+DdI8N3Wm22nXVvcaVPawSb38518h4/n2bPn8zJ/wCWZFdPLONGNH+tmZynB1Ob+tGj2n4I/GnxR+27+xnMnxbvP7ctbz4teGtFn1ia1SCS8tZJ/wB5BI6JHv8ALD/9s/tFehfFr9rDwKfjR8RvhHq2lfHDxhomnw3ulf8ACAab4H0aTS9KggjHkT2vkz+ekcH7t45/cSV8FfGP/god8YP2gvAcnhfxX4w+3aBLdR3Zs4dIsbWPz0kkkR/3MEex/nfj/lpVvxZ/wU3+OXjf4d3XhnVPiBeXWlahZJp10/2K1S8urX/nnJdJB57p/wBdJP3ma5fqcpNt/wBaJfoaxxUYpen6t/qfXt3+0F4y/Zl/aZ/Z2+E/w7htI/hrrmieHZ59Nj06Ge38UPfSR/art32eY8nmeZ8/8Hl1wfxTP/Fq/wBvz38baP06f8hu7rd/Za/bW8GfCDwH8Ofs/wC0b4s8P+HfC9rHPq3gnUvCMep6p58bh5rSx1FIP3dpP9yP508tK8v8RftD/D/Xf2UP2iNQl8YW/wDwnfxw8RWOrWvhb+y7rzNLjh1Wef8AeXXl+Q/7iTf/AKzP51Lpu7j/AF8Sf6FU6l6Dj6fkz47oo7UV7F7nnBRRRQAUUUUAFFFFABR3/Gijv+NOO4Hr37BH/J1/hX/t5/8ASWev0ir83f2CP+Tr/Cv/AG8/+ks9fpFXyeffxD28t2Ciij/DNeEeiFFfQHww/Zo8B+HP2erH4lfFLX/ENvpviC5ks9G0vw/GjXkxR3R5HebMf8En0/56VY+JH7LPgjxb8DLv4gfCPW/EWqWukXkNrq2j61Ch1C3ed9ibBDiNz5jpx3/56UVPdYHzvRXtv7TH7G+pfAH4ceCda/s/xJP/AG5pMd1rU9zp7rb6ddPjZav8mUfP/PTuK88l+BHjqLwudcbwb4sTQ/I8/wC3DR5/sezrv37Nnl4oA5Wiug8L/CvxR430/wC26N4b8QazaecloJrPTpp4zP8A8896J/rP+mftUfjf4a+I/hpdw2/iLQdc0Ga4TfBDqNlJaSSp06Sf56UAYdFFFABX5u/t7/8AJ1/ir/t2/wDSWCv0ir83f29/+Tr/ABV/27f+ksFe3kH8Y8/MvhPIe/40Ud/xor66O54YV03wW/5LJ4R/7Ddl/wClCVzNdN8Fv+SyeEf+w3Zf+lCVjiPgkVT+I5miiitVsEt7AenrXr37Hn7Nf/DRfji6hvJpINH0dEkvZIf9ZJ5n+rT/AMcevIRX1/8A8EqP9Z48/wC4d/7XrjzCtOlh5Tib4Onz1uRnr8f7Avwnjix/wi8kn+2dUuuf/H6P+GBvhT/0Kv8A5VLr/wCLr2If1or41Y2v/Oe37GH8p47/AMMDfCn/AKFX/wAqt1/8XR/wwN8Kf+hV/wDKrdf/ABdexUU/rlf+cPYw/lPHf+GBvhT/ANCr/wCVW6/+Lo/4YG+FP/Qq/wDlVuv/AIuvYqKPrlf+cPYw/lPHf+GBvhT/ANCr/wCVW6/+Lo/4YG+FP/Qq/wDlVuv/AIuvYqKPrlf+cPYw/lPHf+GBvhT/ANCr/wCVW6/+Lo/4YG+FP/Qq/wDlVuv/AIuvYqKPrlf+cPYw/lPHf+GBvhT/ANCr/wCVW6/+Lo/4YG+FP/Qq/wDlVuv/AIuvYqKPrlf+cPYw/lPHf+GBvhT/ANCr/wCVW6/+Lo/4YG+FP/Qq/wDlVuv/AIuvYqKPrtf+cPYw/lPHf+GBvhT/ANCr/wCVW6/+Lo/4YG+FP/Qq/wDlVuv/AIuvYqKPrlf+cPYw/lPHf+GBvhT/ANCr/wCVW6/+Lo/4YG+FP/Qq/wDlVuv/AIuvYqKPrlf+cPYw/lPHf+GBvhT/ANCr/wCVW6/+Lo/4YG+FP/Qq/wDlVuv/AIuvYqKPrlf+cPYw/lPHf+GBvhT/ANCr/wCVW6/+Lo/4YG+FP/Qq/wDlVuv/AIuvYqKPrlf+cPYw/lPHf+GBvhT/ANCr/wCVW6/+Lo/4YG+FP/Qq/wDlVuv/AIuvYqKPrtf+cPq8P5Tx3/hgX4Ukf8ir9D/at1/8XXlP7V/7BPh7w58OL7xF4MguNNn0eD7RdWTzvPHcQJw/3/n8zp7c19cVx/7Q/wDyQDxx/wBgG9/9EPWuHx9b2iXMRWw8FBtH5X/5H06/1ooPSivt4u6TPn5bhR1/x9KKKYvU+1P2R/2R/h78Uf2e/D+ua5oP27VLv7V9om+2zx7/AC55I0+SN/7iV6UP2BfhSv8AzKv/AJVLr/4uj9gf/k03wp9br/0qnr2Lt+FfF4zGV1Xkuc+goUKbhG8Tx3/hgb4U/wDQq/8AlVuv/i6P+GBvhT/0Kv8A5Vbr/wCLr2KiuVYyvb4zT2EP5Tx3/hgb4U/9Cr/5Vbr/AOLo/wCGBvhT/wBCr/5Vbr/4uvYqKf12v/OHsYfynjv/AAwN8Kf+hV/8qt1/8XR/wwN8Kf8AoVf/ACq3X/xdexUUfXK/84exh/KeO/8ADA3wp/6FX/yq3X/xdH/DA3wp/wChV/8AKrdf/F17FRS+uV/5w9jD+U8d/wCGBvhT/wBCr/5Vbr/4uj/hgb4U/wDQq/8AlVuv/i69ioo+uV/5w9jD+U8d/wCGBvhT/wBCr/5Vbr/4uj/hgb4U/wDQq/8AlVuv/i69ioo+uV/5w9jD+U8d/wCGBvhT/wBCr/5Vbr/4uj/hgb4U/wDQq/8AlVuv/i69iop/XK/84exh/KeO/wDDA3wp/wChV/8AKrdf/F0f8MDfCn/oVf8Ayq3X/wAXXsVFL65W/nD2MP5Tx3/hgb4U/wDQq/8AlVuv/i6P+GBvhT/0Kv8A5Vbr/wCLr2Kin9cr/wA4exh/KeO/8MDfCn/oVf8Ayq3X/wAXR/wwN8Kf+hV/8qt1/wDF17FRR9cr/wA4exh/KeO/8MDfCn/oVf8Ayq3X/wAXQf2BfhSR/wAir/5Vbr/4uvYqKPrlf+YPYQt8J+df7eHwk8PfBf4w6dpPhux/s6xudIju5E8+Sf8AeefOn/LR/wDYjrxPOa+jv+CoB/4yB0r/ALAMP/o+4r5xr7HAVJzw0eY8PEaVrIKO/wCNFHf8a7luc569+wR/ydf4V/7ef/SWev0ir83f2CP+Tr/Cv/bz/wCks9fpFXyWffxD28t+EKOv1oo/z/n/AD2rwz0T6e8EfGXXP2f/AID+GfD/AMUvhpo/jT4c+JN+peH/ALRcxx3EAf77wyR+ZsH7zPz+XJ+8qx4j+C3wq+PXwe8UeOvhHH4l8J614Fgjv9Q0jUJvtCGHkl4Z98jh/wB2/JkI+T/V9M8f8IP21YfCvwmj8C+OPBGj/ETwtaSNJp8V5dPaT2LPnhJtj9cn/wCtS/Ev9syw1H4R3ngr4f8AgHS/h3oOrBf7XeG9e+ur/Z9xJJZER9n1yevPWlUerFF6H0brkl18U/i1+y9oOu6lqGpaPrnh+G/1GzluXkt9QuIIBOkk0f8Ay0/eJ/y04zXk+mftdfEKT9v2OGTxBqjaZP4r/saTR2uH+yC2+1+T5Ih+5nZzn1zXD+I/200174deB7VfC32Pxt8ObeC30jxFFqzkRpA8fyPa7NknyJ08z+tdQf2/PCcPjqTxxD8G9DX4iSR+Z/bJ1iY2huvL/wBf9iCeXvx/00/7aVPL7/P5y/ES96PyR7V441mb9l74D/tCN4Kk/sl7fxhBDbSWnyjT1njt9/ln+D78icfc615L4b8a6t8cf+CbvxCbxffXWtXXg3W7KfSr+/n+0XCGd4o3Te/s7/8AfddN+z38ZY7T9hz4ueLvFmkW/jSPVvE8MmqWFzK8DXon+z7/AN4gyj/P5if88+ORivEfjD+1ZaeMPhLa+APBvhCz8B+E47r7de2yag9/PqE/995pEj9O/XNRGMoLln5foaRXvc3r+p40OP8A6/rS0df6+9Fak9Ar83f29/8Ak6/xV/27f+ksFfpFX5u/t7/8nX+Kv+3b/wBJYK9vIP4x5+ZfCeQ9/wAaKO/40V9dHc8MK6b4Lf8AJZPCP/Ybsv8A0oSuZrpvgt/yWTwj/wBhuy/9KErHEfBIqn8RzNFFFarYJbgK+v8A/glR/rPHn/cO/wDa9fIAr6//AOCVH+s8ef8AcO/9r15ma/7vI6sB/FPsEf1ooH9aK+KPoAooooAKKKKACiiigAooooAKKKKACiiigAooooAKKKKACiiigAooooAKKKKACuP/AGh/+SAeOP8AsA3v/oh67CuP/aH/AOSAeOP+wDe/+iHrbD/xYGdf+GfleelFB6UV+hLY+ZluFFFFDJP0e/YH/wCTTfCn1uv/AEqnr2Lt+FeO/sD/APJpvhT63X/pVPXsXb8K+Bxn8aR9Fh/giFFFFcp1BRRRQAUUUUAFFFFABRRRQAUUUUAFFFFABRRRQAUUUUAFFFFABRRRQgPg3/gqAf8AjIHSv+wDD/6PuK+ca+jv+CoB/wCMgdK/7AMP/o+4r5xr7zAf7rE+cxf8aQUd/wAaKO/412x3OY9e/YI/5Ov8K/8Abz/6Sz1+kVfm7+wR/wAnX+Ff+3n/ANJZ6/SKvk8+/iHtZd8AUUUV4R6QUUUUAFGcc+nNFFAGta+NdY0/wzc6Lb6vqlvod+8c9zYpdSRWdw6fxyR/6t81kjpRRQAUUUUAFfm7+3v/AMnX+Kv+3b/0lgr9Iq/N39vf/k6/xV/27f8ApLBXt5B/GPPzP4DyHv8AjRR3/Givro7nhgetdL8FP+Su+Ef+w1a/+j465qum+C3/ACWTwj/2G7L/ANKErHEfBIqn8RzNFAorVbBLcBX1/wD8EqDiTx5/3Dj/AOlFfIAr7A/4JT/63x3/ANw7uB/z8ev868vNv93kdWX/AMY/Sr4CfAXwfq/wX8Q/ELx5feKDoGi6hDpKaf4ehSS8kmePeXd5v3ax8j/H1pfGP4V/D668D6D4i+Geu6tqX9sXv9mzeH9Xkhk1uCf+B/LgPzxyf9czXY/sa+A/iBd+A9U134Q+NfI8YQXXkah4V2wJ9stdmUuv3z+XN02Z8uvbLq4s/hprXwz8UfGbQfB/hX4ir4uQyf2cYIbi408wSf6VdJC/lkRzlBv/AOmf4V8a4+9f0Pep/D958t+Mv2IPin4E8PSatqnhOeCztwnnst7azyWe/wC556I/mIOer96v/tY/sn337Ntt4TumEz2+uaTDNdPLeWsxjvnTfPAkav8A6uPCfvPTpJX0h8T7T4k/DQ/EzV5vAfwa8O+Hb6zvbefxHN5ySa/az5Plo8dy8jzyff5T79cl8Uv2UdU/aJX4fXlreRWKt8MtOXRnbY8etahBD89ij+Ymx/nzz6HpS+KF/wCupr9o8Z8R/syrN8CfhRrXhyHWNV8TfES61G0ksUCSRjyJ9ibE2b8cfP5kn5Vl/FD9jz4i/BfQI9X8TeGpbPS/P+yPcw3sN2lu/wDcfyHk2fWTP0r60+Gwh/Z6PwJ8D+LLzTdA8XWth4hikR7pZBpk16f9Fd5Iz8nmc15n4L+DPiT9lf8AZ7+LA+JFumlw+LLaHTNIs57qCeTVL3zi/npHG/JjyH3Vd4qreP8AXl+pD2j/AF8zzvxl+xJ4q174yeLdB8B+GdeuLHwu1ql1DrGo2P2y086DennyI/kY+/8A6v8A5Z/6zitj4Mf8E9PFfiP4zHw1400248Pwf2TNqpmiu7WQzIUfy9jb3jf94R/q/wDVj869k/aouZba3/axMTSR+ZP4WR9snSPy481N+zLI1/4W/Z3hLb7zUPD3i60tt8nMj+YNif1qpU/clKHb9LkS2/rufMvhT9h74peNvtbab4Z85LO+fTZGk1S1RHmTl0hd5v33cZj8yvMdd0C98Ja5dabqVvJY6lp8zwXUMyfvLaSP/WR/p6mvtP4GfCXxzL8KfDnhzxJ8M9D+IWk+H9UuYIEsNbfTNc8HT+fvfz5P3f8Avps/7+fcr5m/a30bTtB/aO8WWWk69eeKLKC++TUby6+1XFx+7TzN8/8AH5cmU3/7Fc+8kWecn/69FB//AFf/AKu1FUAUUUUAFFFFABRRRQAUUUUAFFFFABWVrHjfTdBvPJurryZ/7nkua1f/ANdcj8WvDn9p6PHeR/8AHxZ/f/3KANnRvG+m69eeTa3XnT/3PJcVhftDf8m/+N/+wDe/+iZKk+Enhz+y9Ie8k/4+Lz7n+5Tf2h/+SAeN/T+wb3/0RJW2H/iwM6/8M/K89KKD0or9CWx8zLcKKKKGSfo9+wP/AMmm+FPrdf8ApVPXsXb8K8d/YH/5NN8KfW6/9Kp69i7fhXwOM/jSPoqHwRCiiiuU6gooo6n+dABRWP4j2aNrFjqT/u44/wDR539Ek5/9GU/wvF5WlyXkn7uTUH+1t/0z/wAx0AatFQaZqltrNmlzav8AaLeT+Kp/5f0oAKK4sxxHWfsg/wCQBJdZHyfu/P8A+ef/AFzrqb/WbfRTAkzeR9pfyo+OtAFuijOOe386q66LOLTHa9hjngj+fY6eYKALVFZXhXQI9Mt5Jmgt7ee8fzHSGPiPP8FW7HWbXVLieG3l8ySzfy50/wCeftQBaooyM9fxrlfFcv2DWHksfMSeSH/TRCn+rT+//wBdKAOqoqrotra2elW62Xl/ZfLHl7OlWj1oAKKKKACiiihdQPg3/gqAf+MgdK/7AMP/AKPuK+ca+jv+CoB/4yB0r/sAw/8Ao+4r5xr7zAf7rE+cxn8aQUAkf40UV2HMeofsXeI7Pwt+054Vur+byIPOnt/Mbs7wSRp/4+9fpgetfj/2/CvUPDn7aXxO8MaPDY2Xiq4+zwfd8+1guJPxeSPf/SvFzLK54iXPA9HB4yFKHJI/TCivzc/4b0+LGf8Akaj+OnWn/wAYo/4b1+LH/Q1f+U60/wDjFeZ/YNU6f7UgfpHRX5uf8N6/Fj/oav8AynWn/wAYo/4b1+LH/Q1f+U60/wDjFP8AsGqH9qQP0jor83P+G9fix/0NX/lOtP8A4xR/w3r8WP8Aoav/ACnWn/xij+waof2pA/SOivzc/wCG9fix/wBDV/5TrT/4xR/w3r8WP+hq/wDKdaf/ABij+waof2pA/SOivzc/4b1+LH/Q1f8AlOtP/jFH/DenxYz/AMjUfw060/8AjFL+wKwf2pA/SMda/M/9tHxHZ+Kf2nPFV1YTefB50Fv5i93SCON//H0o8R/tpfE7xPo81je+Krj7PP8Ae8i1gt5PweOPf/SvL+34V6WW5XLDy5pnNjMbCrDliBJP+NFFFe4tzzgrpvgt/wAlk8I/9huy/wDShK5mum+C3/JZPCP/AGG7L/0oSscR8EiqfxHM0UUVqtgluAr6/wD+CVH+s8ef9w7/ANr18gCvr/8A4JUf6zx5/wBw7/2vXmZr/u8jqwH8U+wR/Wigf1or4o+gCiiigAooooAKKKKACiiigAooooAKKKKACiiigAooooAKKKKACiiigAooooAK4/8AaH/5IB44/wCwDe/+iHrsK4/9of8A5IB44/7AN7/6IetsP/FgZ1/4Z+V56UUHpRX6Etj5mW4UUUUMk/R79gf/AJNN8KfW6/8ASqevYu34V47+wP8A8mm+FPrdf+lU9exdvwr4HGfxpH0VD4IhRRRXKdQUGiigDN13S5tdj+x/6PHYyf659/7z/rnV+5ikFvIsEkcEnVHdN/NPooAq6Fo8Og6ZHaxH93H/AB/89P8AP9atHjpjI7ntRRQBANLtvsYtfssH2POPI2fJ9M1U1nQf7antfNkjNrC4fyBH/rH/AN+tKigAb/I9ajurKG+g2TQxzx/3HTzB+VSUUAVbTRbXSvM+y28Fu8nA2QbMVHo+g/2Xc3V1IwmuryTzJ3RNgq9RQAfzJ6+hqOK1hieRlhjje4++5j/1n41JRQBHbWsFjBtt1jt0zyix+XzUg6f/AF6KKACiiigAooooXUD4N/4KgH/jIHSv+wDD/wCj7ivnGvo7/gqAf+MgdK/7AMP/AKPuK+ca+8wH+6xPnMZ/GkFA6/zoors1exzGx4C8EX/xH8X6boulx77/AFWbyIfavsbw5/wS58KxaPb/ANra94gmvin797OSG3jx/wBc5Ekr5/8A2Dz/AMZZeFf+3r/0lnr9Iq+dzbHVqMuWB6mAw0Jx55nzYP8Agl/4C/6DHjD6/aoBn/yBS/8ADr/wF/0GPGH/AIFwf/GK+kqK8n+0MT/Oeh9To/ynzb/w6/8AAX/QY8Yf+BcH/wAYo/4df+Av+gx4w/8AAuD/AOMV9JUUf2hif5w+p0v5D5t/4df+Av8AoMeMP/AuD/4xR/w6/wDAX/QY8Yf+BcH/AMYr6Soo/tDE/wA4fU6X8h82/wDDr/wF/wBBjxh/4Fwf/GKP+HX/AIC/6DHjD/wLg/8AjFfSVFH9oYn+cPqdL+Q+bf8Ah1/4C/6DHjD/AMC4P/jFIf8Agl/4C/6DHjD6/aoDj/yBX0nRS/tDFb8wfVKP8p8u+I/+CXPhWXR7j+yde8QQ3wT9w95JDcR4/wCucaR18c+PfBF/8OPF+paLqkey/wBKm8ib3r9aK/N39vA/8ZZeKv8At1/9JYK9jKcbWqy5ZHn5hhowhzQPIT1/lRRRX0fU8vcK6b4Lf8lk8I/9huy/9KErma6b4Lf8lk8I/wDYbsv/AEoSsMR8EiqfxHM0UUVqtgluAr6//wCCVH+s8ef9w7/2vXyAelfXn/BKWZDc+PI/+Wmyy/8Aa9eZmn+7yOrAfxT7EH9aKO1FfFH0AUUUUAFFFFABRRRQAUUUUAFFFFABRRRQAUUUUAFFFFABRRRQAUUUUAFFFFKWwBXH/tD/APJAPHH/AGAb3/0Q9dhXF/tFy+X8APHG793nQb38f3D1vh/4sDOv/DPyzPSigHj8KK/QlsfMy3Ciiihkn6PfsD/8mm+FPrdf+lU9exdvwrx39gf/AJNN8KfW6/8ASqevYu34V8Djf40j6Kh8EQooorlOoKKKKACiiigAooooAKKKKACiiigAooooAKKKKACiiigAooooAKKKKF1A+Df+CoB/4yB0r/sAw/8Ao+4r5xr6O/4KgH/jIHSv+wDD/wCj7ivnGvvMB/usT5zF/wAaQUd/xoo7/jXbHc5j179gj/k6/wAK/wDbz/6Sz1+kVfm7+wR/ydf4V/7ef/SWev0ir5PPv4h7WXfAFFFFeEekFFGf8emavaF4cvvFurw6fpdhealfXH+otrOGS4kk/wCAR0AUaK67xd8B/HPgPR5NQ17wZ4s0exi/1lzf6RNbxx/8DdK5Hr/npQAUUUUAFFFFABX5u/t7/wDJ1/ir/t2/9JYK/SKvzd/b3/5Ov8Vf9u3/AKSwV7eQ/wAY8/M/gPIe/wCNFHf8aK+uW54YV03wW/5LJ4R/7Ddl/wClCVzNdN8Fv+SyeEf+w3Zf+lCVjiPgkVT+I5miiitU9AluB6f55rsPgv8AGnW/gR40j1jRZI/MKbJoZv8AV3Kf8864+ilUpwnDkmEZcjufXkX/AAVZYJ83gaPzP+wx1/8AIH+FSD/gq1IB/wAiH/5W/wD7RXx/RXmf2Thv5Dq+vVj7A/4etv8A9CF/5W//ALRR/wAPW3/6EL/yt/8A2ivj+ij+ycN/IH1+sfYH/D1t/wDoQv8Ayt//AGij/h62/wD0IX/lb/8AtFfH9FH9k4b+QPr9Y+wP+Hrb/wDQhf8Alb/+0Uf8PW3/AOhC/wDK3/8AaK+P6KP7Jw38gfX6x9gf8PW3/wChC/8AK3/9oo/4etv/ANCF/wCVv/7RXx/RR/ZOG/kD6/WPsD/h62//AEIX/lb/APtFH/D1t/8AoQv/ACt//aK+P6KP7Jw38gfX6x9gf8PW3/6EL/yt/wD2ij/h62//AEIX/lb/APtFfH9FH9k4b+QPr9Y+wP8Ah62//Qhf+Vv/AO0Uf8PW3/6EL/yt/wD2ivj+ij+ycN/IH1+sfYH/AA9bf/oQv/K3/wDaKP8Ah62//Qhf+Vv/AO0V8f0Uf2Thv5A+v1j7A/4etv8A9CF/5W//ALRR/wAPW3/6EL/yt/8A2ivj+ij+ycN/IH1+sfYH/D1t/wDoQv8Ayt//AGij/h62/wD0IX/lb/8AtFfH9FH9k4b+QPr9Y+wP+Hrb/wDQhf8Alb/+0Uf8PW3/AOhC/wDK3/8AaK+P6KP7Jw3WAfX6x9gf8PW5D/zIZ/DW+f8A0RXmv7Rf7d+vfHjw1JodrpsXh/S7ji6RJvtD3H+xv2R/u68JorSnlmHhLnjEipjK0tAz/nOaKKK9A5goxn/9WaKKNQ6n0d8Af+Cgv/CkvhNpfhj/AIRP+1f7N8//AEn+1Ps/meZPJJ9zyZP79dkf+Crbj/mQu3/Qb/D/AJ4V8f0V59TLcPOfPOJ0RxdaB9gf8PW3/wChC/8AK3/9oo/4etv/ANCF/wCVv/7RXx/RWf8AZOH/AJDT6/WPsD/h62//AEIX/lb/APtFH/D1t/8AoQv/ACt//aK+P6KP7Jw38gfX6x9gf8PW3/6EL/yt/wD2ij/h62//AEIX/lb/APtFfH9FH9k4b+QPr9Y+wP8Ah62//Qhf+Vv/AO0Uf8PW3/6EL/yt/wD2ivj+ij+ycN/IH1+sfYH/AA9bf/oQv/K3/wDaKP8Ah62//Qhf+Vv/AO0V8f0Uf2Thv5A+v1j7A/4etv8A9CF/5W//ALRR/wAPW3/6EL/yt/8A2ivj+ij+ycN/IH1+sfYH/D1t/wDoQv8Ayt//AGij/h62/wD0IX/lb/8AtFfH9FH9k4b+QPr9Y+wP+Hrb/wDQhf8Alb/+0Uf8PW3/AOhC/wDK3/8AaK+P6KP7Jw38gfX6x9gf8PW3/wChC/8AK3/9oo/4etv/ANCF/wCVv/7RXx/RR/ZOG/kD6/WPsD/h62//AEIX/lb/APtFH/D1t/8AoQv/ACt//aK+P6KP7Jw38gfX6x9gf8PW3/6EL/yt/wD2ij/h63Jn/kQ8f9xv+vkV8f0Uf2Thlryj+v1j0j9qD9oL/hpD4gWmt/2V/Y/2XTo7DyftX2jzNjySb9/lx/3683AwPpx/k0UV6VOnCEOSmclSpz++FHf8aKO/41cST179gj/k6/wr/wBvP/pLPX6RV+bv7BH/ACdf4V/7ef8A0lnr9Iq+Tz7+Ie3lvwhRRRXhep6PoFfWdp4juP2PP2CPC+seGZP7P8bfFa7nlm1VE/0i0soB9yBv4P8Alnwf+ej18mHpX1V8Pn039sX9knQfhzFrGl6Z8QvA99M+jRalP5Eet2r/AOsgjf8Av9OOf9XHwOqC/hvlFH+KuY4H4Ift1+OPhT4z+1a1rGseNNDuEeDUNF1TVHuIL5Xj7b/M2fr+WKtfB/8AZ78I+N/APiv4peNLrWPDfgGw1F7Wz03Ryk+oXUz/ALxIEkf5P3ccifPJ+J719B/ss+Dv2ivgBd6DpPim903wj8LdBmeW/OoXOl7fJ8zzHTzFLyAuXfkEY9RWV4plsP2y/hb8UPA/hDU9Pu/E2n+O7rxRpFsbpI/7dtn+TMLv/vv9PkpSvZW/rVDjv739bnifxQ/Zu8F6/wDs+TfEr4X6r4jutH0e+jsNZ07XlhN3YO+Nkm+D93IgMi+vbnsPByc19aa54Gn/AGQP2FvG3hnxpPaWPjH4haha/YtGjuknntoYHjk89wnCf8tD+KV8l/04+lP7fuhH4PeCiiigAr83f29/+Tr/ABV/27f+ksFfpFX5u/t7/wDJ1/ir/t2/9JYK9vIP4x5+ZfCeQ9/xoo7/AI0V9dHc8MK6b4Lf8lk8I/8AYbsv/ShK5mum+C3/ACWTwj/2G7L/ANKErHEfBIqn8RzNFFFarYJbhRRRQSFFFFABRRRQAUUUUAFFFFABRRRQAUUUUAFFFFABRRRQAUUUUAFFFFABRRRQAUUUUAFFFFABRRRQAUUUUAFFFFABRRRQAUUUUAFFFFABRRRQAUUUUAFFFFABRRRQAUUUUAFFFFABRRRQAUUUUAFFFFABR3/Gijv+NNbgevfsEf8AJ1/hX/t5/wDSWev0ir83f2CP+Tr/AAr/ANvP/pLPX6RV8nn38Q9rLvgCiiivCPSCiiigAooooAKKKKACiiigAr83f29/+Tr/ABV/27f+ksFfpFX5u/t7/wDJ1/ir/t2/9JYK9vIP4x5+ZfCeQ9/xoo7/AI0V9dHc8MK6b4Lf8lk8I/8AYbsv/ShK5mum+C3/ACWTwj/2G7L/ANKErHEfBIqn8RzNFFFarYJbhRRRQSFFFFABRRRQAUUUUAFFFFABRRRQAUUUUAFFFFABRRRQAUUUUAFFFFABRRRQAUUUUAFFFFABRRRQAUUUUAFFFFABRRRQAUUUUAFFFFABRRRQAUUUUAFFFFABRRRQAUUUUAFFFFABRRRQAUUUUAFFFFABR3/Gij+px9KPQD179gj/AJOv8K/9vP8A6Sz1+kVflD8JfiNefCb4k6T4ks18240ubzNjjKyJ9x4/++HzX3d4b/4KE/DDWtHt5rzWLjSbqRPntp9PnkkT/v2jx/zNfNZzhK1SalCJ6+BxEIQcZ6HuFFeO/wDDfHwpH/M1fnpV1/8AEUf8N8/Cn/oav/KVdf8AxFeMsHW/kO36xD+c9iorx3/hvn4U/wDQ1f8AlKuv/iKP+G+fhT/0NX/lKuv/AIin9Tr/AMgfWIfznsVFeO/8N8/Cn/oav/KVdf8AxFH/AA3z8Kf+hq/8pV1/8RR9Tr/yB9Yh/OexUV47/wAN8/Cn/oav/KVdf/EUf8N8/Cn/AKGr/wApV1/8RR9Tr/yB9Yh/OexUV47/AMN8/Cn/AKGr/wApV1/8RR/w3x8KT/zNX5aVdf8AxFP6nX6QBV6fWR7FX5u/t7/8nX+Kv+3b/wBJYK+svEn/AAUJ+GGi6PcTWesXGrXUafJbQafPHI//AH8RI/5GvhH4tfEa8+LPxJ1bxJeL5Vxqk3mbEGFjT7iR/wDfCZr2MlwtaEnKUThx2JhOPLE53v8AjRR/Q4+tFfSrc8nYK6b4Lf8AJZPCP/Ybsv8A0oSuZrpvgt/yWTwj/wBhuy/9KErHEfBIqn8RzNFFFarYJbhRRRQSFFFFABRRRQAUUUUAFFFFABRRRQAUUUUAFFFFABRRRQAUUUUAFFFFABRRRQAUUUUAFFFFABRRRQAUUUUAFFFFABRRRQAUUUUAFFFFABRRRQAUUUUAFFFFABRRRQAUUUUAFFFFABRRRQAUUUUAFFFFABRRRQAUUUUAFFFFABRRRQAUUUUAFFFFABRRRQAUUUUAFFFFOO4BXTfBb/ksnhH/ALDdl/6UJXM103wW/wCSyeEf+w3Zf+lCVjiPgkVT+I5miig9K1QSeoUVNpWl3Os6hDaWdtc3l1eSJBDDDH5kly8g+SNE/Ku8m/ZL+KkMe5/hj4/jjj9PDt1z/wCOf5xSlUjH4w+M89oq5rPhy/8ADssCajp95ZSXkCXcEdzDIhuYZM7Hj8z/AJZyD/lpVPOf89aPQeoUUVc1jw3qHhx7dNS0+8spLyBLqCO5gdPtMEn+rePf/BIM/vPejUWpToozn/PWimSFFFFABRRRQAUUUUAFFFFABRRRQAUUUUAFFFFABRRRQAUUUUAFFFFABRRRQAUUUUAFFFFABRRRQAUUUUAFFFFABRRRQAUUUUAFFFFABRRRQAUUUUAFFFFABRRRQAUUUUAFFFFABRRRQAUUUUAFFFFABRRRQAUUUUAFFFFABRRRQAUUUUAFFFFOO4BXTfBb/ksnhH/sN2X/AKUJXM103wW/5LJ4R/7Ddl/6UJWOI+CRVP4jmaKKK1iEt2I39K9l+IXP7D3w3/7GXXP/AECw/wA9RXjfWtjUPiDrGqeB9N8N3F5u0bR7qe7srbyU/dPP5e9/M/1n8CVNT33qVT92pzP+tD608UeHPCvxb+JHw98E6t4Zt57vUfhhYz/28by7jvLOeDSpJ02JG/keX+4/5aRyD55P3lc7F8F/hL8NdP8AB2m+MtS8MWkfiXw7a6vqt/cz65Jrtm91B5kb2qWsEljsjzH8km/zNj/vP+efhNp+0H4usPGOk69Dqnl6poel/wBi2M/2WD/RrXyJINmzZs/1cjx7/wDWGtHw7+1T488JeHtN02z1e3jTR4HtNOuZtLtJ9Q0pH++kF08Ynt/vyD93Inl1xSo1ua0fL9f80ae2h/XyPUfC/wAJfA3xB+E8Fn4J0rwv4s8Rx6Di9hvNbvdJ8SRah/pDvPBHJ/oF1bxpH/q443k2f7dWovhN8LvC/iDTbPVI/D+ma1rvgnQL/R4fENzqMejz3t35b3TzyWr+en7v/V/vI4P7+MV5DbftSeONP8MQaSuq2+yz059JgvH0y1k1S3tX8z9wl7In2tE+d08vzP8AVvs55pNK/ag8baVI/wDxNLO8hk0u00ZrO/0u1vLO5tbQfuEeCdJI5JI/+WbyR+Z/00pyo1r/ANeZXtIKNn/WxY/aB8Lr8NPHmqaa3g/S9Hg1iC1v9KEOtPq8dnDJ+832t0j7Hjf95/rN42esn7yvNu36d66bxl8X9e+IOo6lcaxdWd9PqkcFvI76faf6OkH3EgOz/RY8/wDLODZ+nPM5zz6+1dWH54wtIzqcvP7gUUUVpcx6hRRRQAUUUUAFFFFABRRRQAUUUUAFFFFABRRRQAUUUUAFFFFABRRRQAUUUUAFFFFABRRRQAUUUUAFFFFABRRRQAUUUUAFFFFABRRRQAUUUUAFFFFABRRRQAUUUUAFFFFABRRRQAUUUUAFFFFABRRRQAUUUUAFFFFABRRRQAUUUUAFFFFOO4BXTfBb/ksnhH/sN2X/AKUJXM103wW/5LJ4R/7Ddl/6UJWOI+CRVP4jme1FH+TRnBrVXsEtw/8A1fT/ADzX1r8QP2c9B8Ej7Tb/AAuvPFXwnubJ/snjnw1qE+qap8kHz3T+XdfZE8uf/WRyQJ+78z/lpH5lfJ+nyx2t3C8sMd3HG+94W3+XJ/sfJxXvHw7+N3w4+C3xfh+IHhF/Hml3luJJE8Ki1gks/nj+e1fUPtXmPBv/AOelv5hjz/10rnxXPyrkKo/HqeBg5P8Ahjnv/nH+Ne3fsoaFo/xF1SOx1nwP4Pn0Hw/A+p+IfEmpT6rG9pbRvz/qL5I9/wDyzjjjj/eSbOuXryHVjp72FrLa3V5JfT+ZJe27WqR28Hz/ALvY++Tf+79I4xH/ANNMV7FF8UPhvL+zvo/gm31vxx4ckkm+3eJHtPD1rf8A9s3X/LP94+owfuII/uR+WPnzJVVr8iuXDlUzC1T4U6T8T9T8QeL9Gm0P4bfD3+1P7P0oaxdXVwS/l+ZHAPISeeSTy/3jv/q4/M/1n+rrqvBv7G9/F4gsdH8VN4f06xk8ZadoVzqsN1dPeSpdwGePyNm+B4LhPuSSR7/MkT7kfmVJ8NP2m9F+HPwm1HwHpfjD4meGbGPWP7a07xFoNlHaXlxvgRJ4Lq1jvY/3fyfI/nuKkl/a90e2s8RSeONeurfx5pfiWG88Q3yXd5e2trB5f7+f/npJ/wA8yPkj/jkrnk6jdoeX6f8ABLjyfHL+9+pN8QP2UNNuvCb6b4Nhs9Y8QXHxG1Hw/bXMN1PHF9kS1jkjhk8/YD5e9xI5T/lnJ+8ljri9K/ZB1bxbqGjp4Z8UeE/FVpqmtp4emv8ATLi7+z6XdP8A6vz/AD4I5PLk+fY6I8f7t69K0f8Abc8L/DXxTa6h4es/EGqR2/jvUfFP+nwQ2Mv2W9tEgkj/AHc8my4j+f5/+ub/APTOsyx/a00fQPH/AIS1Ofx58bPHFjo/iSHV5rbXrtEt7e1gf/VpB9qn8+f/AKaeZBn/AJ5/vP3edP2138v0uVV5NOT+tzxH4ofD2P4a+LZ9H/tzR9cu7PzI7ltN88RwTI/lvAHnSPfJhP8AWIJI/wDppXb/AAf1T4V2nw3iTxVYyXfiKSfWP3m+6jjjj/s6P7D9x/L/AOPvf/7U/d1zPibwta+I/BuseMo7y4ja48RfY4LOaFP3kbpJPv8AM8z/AFkflp5kfl/xp+8riwenf0449K6oe9Hkkc9TkhPnifQltf8Agy6/Za/4TJPhR4Lk1geK49BSD7drn2eSD7K8+Nh1HzPM8z/pp+Vc54s/ZB1rR/8AhI/+Jv4P/tjwxAl/rXh+yup3vNEgf7+/emyTyN6b/Lnnkj/DNY2jfGiz0X9mqPwnFDef25b+Lo/EMc2yP7PsjtNnl/6zzPM8zJ/1fSu88XftIeA5vEPxG8X6PZ+KP+Et+JGnz2D6beQwjTtHe7/4+njut/mTfx7AbeP/AFlYVFOE/c2/4b/gm1PkmrzON8T/ALH3izwxb/EKa4/s6S3+G89qmoPDM/8Apfnv+7eAeX86eX+8/g+TPtS69+y3N4H1i+sPE3jbwH4bn0/7LFPDeXV1cXBeeD7Rs8iGF3/dx/6x/LEfmAx+YK9T0X9vHwyZPh7b6pomsSadb6fPY+PIYUj/AOKg/wBFjsIHT5/nEcaRv+82fvKyPB37XuhyjxVqGpXXijwb4m8SeJJ9Vk17w/p9rd6o9jJ/y4pcyPHJa+Xs/wBZG8n+s/eR8UpVK/QXuHKeI/2KNe8D2fiq58QeJPCGh2PhPVI9Ku7maa6uI7ueeH7RB5HkwPI8cidvX/WeXXVfCr9ji10u58XJ4u1Xw1faxoXg2+1p/D0F9dx3+lzfZfMgd/kjjfZmPzESR8eZ88dQ/tS/taeG/jf4f8Ww6TZ+ILefxB4l07XoBfxp+7jg077K8bvv/eSeZ+efy0pf2pfh7qvi/wAceObq28YR+LvHPhq60qfTYbSD+z7O6nh8uSeOfzw7p+7P7sxx+Xvk+/5dSvrHKrf1p/ncqPsfdvv/AMH/ACPMfF37Ml54D8L/AGrVPFHhC11iLS4dZ/sKa6nj1E2s+zYUd4fIeTY6SbI5/M8v/lnV79m/wvoN74E+Juva34f07xHP4W0SC7sba8nu47cu99bwfP5EySf6uST/AJaV11r+094b0v4L3/h241Txx4qtLjRPsll4b8SWVjqGn6RfeR9n+1Wt9I/nwJHvd40jt0P+rTzOa4T9n34meG/B3hTx9oPiabXLW18YaZBYQXOmafHfyW7pdwT/ADxvPB/c/wCenqfrrHm1uZ+5dfI37f4b6D8ffg/J4g8M6DZ+Dtf0PWrHRdQtLa6unsLyC9eRIJ0895545I5I/Lf53Ty8Vyt9+zdren3PxCha60VX+Gc8cGq/v5MXD/avsv7j5P8Anpj7/l/J+Nbk3xp8N/DDwFYeH/BCa5qUcut2uvaxqWqQx2El59l8zyLVIUnn2Rx75JN/mfvJJP8AYrt/FP7S3w1+z/FC702z8YapqPxMvbW/ks761hht7PZfR3c8AmSZ5JEk+f5/LT+D93Q/aRn7nw/8N/wS37Pr/W//AADz3VP2W7iLwp4i1LS/GXgjxFN4TtUu9U0/Srq6kubeN3jj3o7wJbzeW8n/ACwkkqD9sL4e6P8ACv8AaJ8QaBoNmLHSrNLLyIfOeTy99rBI/wA8n7z/AFjufWvYvGX7ang/VfAHxD0Wx1Dxx/ZvizT3tNF0GPSLHTNC8Ofv/PjSOGGfy3/jTzxHHJ/0zk3/ALvzn44/tTR/Eb4r69eaTaafB4c1/wCyxzvqXhrTr/VLdI7WCCQxu8bun3D5Yjnj/wCAVnRqVZVfeCXsoxOw+Gn7NPhHX/2bo7HUbOST4qeMNH1HxL4ddbh/MjtbXy9loYf9XJJcRpdSJwR+7rzPw9+y/f698M9D8VT+JPC+lWvie+k03S7a8kuvtl5OjpG8eyOGSOP/AFkZ8ySTyxXoGs/t/alpXx80rXvDOlaHaeFfDclraaPZ3Ph7TpNQj06D5PIFz5ElxHJJH5mDHIPL8ySsn4oftEeC9UHgqz8L6f4gs9G8JeK9R1qOG6hgjeO1nngnSBNjyfPHskj+tax9spNfzBL2bp36R/r8yDxT+w7qXhP/AISP7V45+H/l+C72Ox8Qut1eyf2Q8nmbDJ/ov7/zJE8v9x5j+Z98R/vNnmvxg+FWpfBfx3eeHtUmsLqa3gguI7m0d5YJ4J447iN03+XJ/q5E/wBYlej+Mf2itD8RaX8cIYLXVI3+JGt2upaWHRP9HjS7nn/f/vDsk2P/AMs/Mqp4x+NPg/4jftO+G/FGrWGsSeFNPtdKg1GzFoklzcfZLW3jdNnmbPLkkgB/1n+rkoo+2V+Ymr7K8uX+tTuPit+zR4S0D9m+fT9Ns5I/ij4H0vTtc8SOt08n2m1vvM3weT9yP7PvtPM/36868Lfsl634og0W1/trwvY+I/Ell9v0fw/dTTnUNVg2b02OkHkJJJ5eI43nR5P+BpXb+Dv2+tQv/jXquseMtK0O+8K+LEutP1u103w9p0F/LYzpInl/ao0juH8v93y8n7zy60rn9tGx17w94dDeNvjJ4Wk8N6LHpMmj+G7pLXT9V8hPLgnE/nf6LJJ+73nyJ/XjrWP+0Qf+I0fsrcn9f1ucV4C/ZH1K4/4V3qF1qnguS48eXUaaPompTXxk1D/Svs7xz+RB8ke//ppH+7zs+es3wX+y9J8QNfsNNj8Z/D/Q9Y1zUXsNN0q6urqS4leOfy+TBA/k+ZJ/qzcPG8g/Td8OftOaFpviz4H6hcW+sSL8M/8AkJnYkkl1/p0k/wC4+fMnyP8A8tNnAru/hN+2x4M+Ht74YvLebxp4Zj0fUXv9a07QdOtY/wDhKH+1TvHJdXvnxz+Xsn2eTJG8eE/5Z/6ytZe2X4ke5+R5P8afhLp/w/8AgD8Ob77D9l8Rapda3aau/nPJ5r2t1HHH/wAtCmE+f7n8q6Pxv+z7oI/Yr8HeNNIhkt/E0UE13q/795I721/tKe0STZzs8uQwJiPn565/9of46aP8VPA/hjSdLh1VJND1TW7p2vIETzI766jng+5JIC/l/wCs7egeur+FH7VXhXwrp/w10rXNL1rUND8PaPqmi+JbNET/AImKXV1JOnkfPn92/kSfvBH/AKqop+2nhY83xc3+YLljN8pe+Kv7Kmg+Fvgl8Pba1k0/SvGGqau9hr+qarqH2ezgf7LBd+XJv/dp5Ec3l/8APTzI3+/XF6X+yFqXie38M3HhzxV4P8Saf4o8Qp4bS8s3vYI7O+dPMRJ0ntUfy/L43xpJ/qzXU+Ev2vvDd/b+H38ZaDca/cR+LtY8Q6xC9rBcW8iXsEcaeXHJ+7d45P3nlyDy8xp+8Ndd/wANzeG4dO8Fw32sfETxddeGvG1r4purzUbK1gjEKI6Pa2lql1IkKR/u/LRJPL/1n+roj7aLFPk5Pd/rc820v9jzVodd0p7PWPA/iryvFFr4b1Gzhur7y9Pu53/dpdSeSkn2eTY8e+3kc/3JKD+xlqV1o+n6pqXi3wB4Zh8SavdaLpdteXV8PMngn8h4/wB3BII08z+N5Nn+r3yGr3wQ/ag0H4ZnVPt1nrE32zxzo/iRfIhjP+i2k9xJIg+fmT567j4i+J/AGu/s/fCvW/FDeLLVJPEWv6nZJptjBcfaIft0bvBJ5k6eRJ9z549//LT93JUOpW54839aK36m0qcOR8v9b3/Q8I8Xfs5+JPBPhe11TWFs7H7Rr114aks2Z/tFvdQeXv3/ALvy/L+f+/Xo3jL9kyLwd8M4NKvJtAtfGVv8QLrw1e6xcajJb6fFClrbv99/Lj8vzHeTf5fmc1Prn7VfhX42aNdL44t/EGl3UfjKfxZapo9rBeR3ME6RmS1k8yRNn+oj/f8Az/8AXOuj179tfwH4o8cSXmpeG9U1bR7jx5qPiWSzvLK1uIza3VilonySO6STxyJ5nlyfJ+7/ANZV1KmI5f68v+CRGNLS/wDW/wDwDgvhz+yDa+KPE3gu6bxl4b1nwb4l8UQ+Grq/0kX0b2k7+XJ5HlzWscm+SMfI/lyR+Z9/ZVjxh+yXqWqahDpvhOHwvq1vqnivUdF0+8trq7juJPIjjeRHN15caQRo/wDrPLEn7uT/AFkfl12Gvftt6DL4X8I202sfEHxdqvhvxxY+LGvNYtYLSDyE8zfa2trHNJHaxx/JsSP93/rP9XVGw/bJ8JeAtV0WTQ7DxBrFpp/ivWNamj1CCCwkktdRtY4HT5JJ/wB5H85x/wBc+tS6mJ+z/WxUfY6fj+P/AADi9D/Yt1vxxrOgw+GfE3g/xRY+INYk0KPUrCe6jt7O+2b9k/nwI/7yNJPLeON0zHWH4y/ZuuvCXhS115fFXhTWtDk1j+wb28sGupI9Hutnmfv98CPInl+Z89vvj/dv1r0r4NftNfD39ne88P2Wgp4w1jTY/FEfiDVb2+060tLjy4IJ4IIYIEnkjkP795JHkkT/AHK850f4q6Kf2d77wTe/2pb3GoeLLTWpLiG1SeOK1SF43GzfHvk+f7mep+/WynWbMlyf18/+AcA2jSXXiD+zbKSPUWkm8iB7ZH/0n955cezzP3n7wV9C/tXfs8eDPBnwr3+DYfM8QfDXUYPD3jKWG6e4S7nntY5PtX7z7kfnx3cGPevL/wBnz4h+HvhB8cbDxJqVtqGsad4fknvNOh+yJ5l3dRpJ9l89N/yJv2O/+s/1Z/1ldn4C/bMn1Sy8aaL49sNLvtD8caXNb3T6P4b06xvPtv8ArILp5IUgefy5/wDnpJ/HJ60sRz/ZCjy83vFPxb+xJr3hFtZtX8TeD77XNG0T/hIZ9Gtrq6kvPsOyN/M+eHyPMjR9+zzN/wC7/wBXUX7GfwvsPif4o8YQ3nhdfGF3o/hS61LS9K/0r9/dxvB5f7u1eOR/v/6vf3rc1r9qrw/f/Hjxl4qWz1j+z/EHgyTw9bI8CfaI55NNjtPMf95/q/MT04ri/wBmn4oaD8NdQ8ZQ+In1iCx8UeG7rQY5tNtUu5LZ53j+fy5J495+T+/+VUva8sr/AMo48nu2/rb/AIJsePPhrrFy+j6brXwp0f4OwavqMcEev6la65Z26P2SR7qedNh/651bj/YE8c2ni3SNB1SbQ9D1jX9an0HTrO/mnjkvPI+/dRiOOT/Rf4N5/wBZXK22i/Cmy1fTmm8TfEDUrE3KfbYf+EYtbOSSD+PZJ/aMnz19E/B39prQf2m/2pvhneXmiXGieJvD+rnTdKgtPns5dI8uTyIZHd9/nwD+Py/3m+spVKkY+6V7j0R5f8JP2QIbn4s+EftmseF/HHhW48WWvh7W/wCxLu7/ANDeST/VuXSCTy5PnKTx74/3Z/edDWNZ/sg6l4k1S02654X8NyeKNRurTw1puqXU8dxrGyfZ+7CI8cf7z5I3nkTzJBXVfDL9pLwD+z9rNrb+GofGGrabqHi+x17WJtTsYbe4gtbGSSSC1gSOd/Pk+d/Mnfy/9XH+74xVSL9ozwD4y1XwTrHii28WQ6j8Prqf7LbWNtBPb65B9qku4Ekd54/ssnmO6Sfu5/kpc9a/9f1uXKnCPNHy/wAziL39lrVNB+Gdv4o1rXvDehpqF7daba2F9PPHeXF1av5cifJC6J/vySJH/wBNBirtz+ytIPD2sapY+PPAOs2vhW6tIdbewnvpBpyTz+R5/wC8tfLmj3/xweYef+WlXvH37TOk/EDRvBL3+i3N9daF4o1TxBrFnP5cdneR3V3BP5KSf8AkT/V13nxL/bJ8J+I/hF4+8N2Oq+PL6HxQkB0TTZtIsdM0fw3HBdRzpAlrBO6f89PMn/d/6v8A1fz1pz1rKUjONOlzGN8dP2QF8JeN/H2h+DY9H8QWvh/VNH0yB55rr+1bea6EiJAnyJA8kkifvM/J+8j8v+OuS1j9jfW7CC+/s/xF4P1u60TULXTNatLC7mlk0eed/s8fmGSCOOSMSfu5JIJJP3g69K9C8TftseF7Txp4w8SaDZ+IbjUfFGv6B4hgt9QtILeO3msZJJJ4d8c0m+P/AFZjk8vP+x641v8AtDfD3wJf+KtQ8O2/iy61LxzqlrPdQ39rAkej2qX0d3PGjxzv9qk8xEj8ySODr71lT9tpz+X6f8EKvs9OX+t/+Acl8S/2QdY+G2i+Lpv+Ek8J63d+B7mO012w02aeS407e/lo/wC8gSN4/MynySSeX5nz++H8MPhDffEb4e+INQs7fQ5I7PVdLsWubyedLi3kunkSPyI0/d+X+7+fen/PPy66rxH+0ZoetT/HSSG21Qf8LMukuNL3on+j/wDEx+14n+f5P3f/ADzMn+GV8DPjppPwu+HHiPSL621C4vNX1vRNSge3RHjjSxnkd/M+c/vP3n7v6846VtD2vsnzeX6XCpya28yf4lfsg6x8M9H8Wzf8JJ4T1268DXUdpr1hp088lxp++TYkmXhRJI9/yfu3k8vzP3nStj9lT4SW3jv4RfErV4/AX/CwvEXh99K/svTSb58pPPJHO+yynSR/3afp7VV8R/tGaLq8/wAcmittU/4uXdJPpReNP3H/ABMftX7/APefu/k/55b65f4f/FPT/CXwC+IfhS4hvJNS8WNpbWLxxr9njNrPJI4c7+nz+vepj7WdP3/i939By9lzaHpHxP8A2eX1r4b+EvL8Af8ACAfErxB4ifSLTw4s10n9qWvl/JdmC+eSSH95mPf5nlyf8ArO+HX7I6TfEjwy0mteGPHHhn/hLrHw7rqaJdXZ+xefP5eyTelvJ5b/ADok8HmJ+7++ateE/wBr7TbLTPh7r2rabeal8QvhzqKRwXmyP7Prmlf88J595dJIxvRJPLk/d+tT/Dn9oj4e/Ae7jXwsvjDVbXWPFela1qc2pWVpbyWdjYz+ekEEaTv57yf89JNn+rT93Sj7aD17/wBfgKPJJK/9bnMfFD9lC8sb/wAQXPhPVPD3ie00fXk0q6sNKmnkuNLknndIEfzo0jk/eYTzI5JI/M/5aCoPEX7I2peHbXWHbxV4PvrjwxdwQeJLaznu5X8PefJs3z/uPLnjjk+ST7L5/lyevArprf8AaV8H/B8eI7zwHD4k1LUPFGtWWpOmuWsFvHpcFpdfa44EdJ5BPJJIiR7xs/dx/wCrqr4s+O/gbTLD4jal4Vt/FM/iD4mbLeaHU7SBLfRIJJ47u6RJkkeS6/eIkcf7uD93jpSo1K0bc/8AW3/BKl7HmVzV+Of7IKeEfHHj7RPBqaP4gtfD+qaPpsDzz3X9qW8915iJAnyRwSPJJH+848v94nl/x15t8T/2fX+F+n6k7+MPA+tX2j3yWGo6bpt7J9ss5P8ArnNBGk/lunlvJA8nl4r17xT+2v4YtvGXjDxLoVn4guNR8Ua9oPiKC21C0gt47eexeSSeAuk0m+P/AFflv5f/AGzryf4y6z8O/Ed7rmseHpvGlxrGuaj9rgtdQtbW1tNMR3kkdN6PPJd/880/dwf89P8AYqKLrXvL+tF/wQn7H7P9b/8AAO0/Yz+FXgbWdH1nxV8TreSbwx9tsvDdkqXTw/6ddP8APP8AJ/z7wJJJsrnbX9kDWJPEfxDs7/WNC8OWnw2ukg1i71V544xG8kkaOiQQSSP5mz/yJHVq/wD2pf8AhEvgx4P8H+EbHS/selxz32tT634e03UPtmozv/rE8+Of5I0SOPedkn6Y6r4v/tfeHPij8OvGW7TdYt/GPjjRNEtNYmS1hjs5L2xn+ef92/7tJIET/ln/AKytKntee8P6/rX8DOnyez5JmHY/sH69qv8AYcNr4s8CSat4o0d9c0jTXvbqO5v7VI5JN+Hg8tP3aSf6ySP/AFfauF+KvwNufhp4X8P65Drfh/xFofiTz0stQ0qSfyw8EnlyJIk8KSR/fQ/6vvXo2g/tVeHtM+Lvw516Wz1gWvhDwVJ4bvVWFPMkuvst3B5ifP8A6vzJkrg/G/xWsfEP7PXgTwnbxXkepeF73Vbi6eSNPs7pdSQeXs+f/Yq6TrOWv9b/APAH7vLp/Wh57/nv/U0UHg0V2LY5gooooAKKKKACiiinHcArpvgt/wAlk8I/9huy/wDShK5mum+C3/JZPCP/AGG7L/0oSscR8EiqfxHM0UUVqtgluOi/eSdvx6V754o/ZL8H6P8AHC++Glr8QtZ/4TKO6+wW0l/4aSz0u4uvL/dp50d87x+Zwm/yK8Ei/wCPiPr+FfV/xU8G6brH7dF94+uvGHgeHwPZ63DrL39r4m067uLmGDZJ5cdrBM87ySbPL+5XPXqOKj8/0NKfw6nzvoHwM8beLdQ1S20nwj4k1i40OfyNQSw0+e7NnJ/zzfYn7v7kn+cVX8EfCDxZ8TLO6ufDnhXxJ4gt7D/j5fTNLnu44P8Af2J+7719Q2vxl034vfDfwzqGh2Hw3k8Qaf4n1TVtRtvE/iebRX0ue6uvPgu4Nl7aRzR+X+73/vHj8sfWofBvxKb4p319/b83wr1DSf8AhL77Uo7nTfFj+EdU8PXU/l/8TG1kunQPGNnmJ5kc7/u/+Wdc6r1t5lThA+ZI/hzeap4f8Pzadp/iS/vvEF1PaQwppD/Z7x02fJavHJ+/k+f94gjj8v8Ad/f73tZ/Z88eaFqEFlfeCfGFjdXDyRwQXOjzxyybIzI/lp5f/LOP5/8Arma+nfCXxL8E6D4d8P6PpfjC3a4uH8Z6Zo2uancpHcafPdeXHY310/8ArIPMTzPn/wCmnWtn4G6g/wADPhX8If7e8W6BHJpereKZIJrfW4byDSt+lfu08+OSSDzPMff+7k/1lx/z0qZ4qcVzLc0p0VJ8vQ+ZfAP7LfiDVvito/hvxbYa54DTWYLqeC51XR5kwkEMk/7uOTy9/wBwp/20rA+Mfw1h+FPiDTbO31VNZj1DSLHV/Ojh+z+V9qhjn8sfO+PL3112s+LrO+/Yh0bSpNSt5tUtfG19OLN5/MuIoHsbf95szv8ALeQyV5xpfgzUNf8ADOrapawxtZaHHC96xnSOWPfJ5afuxIJH+fvH/KumPPzJyMvdUGkb/wAMvh94e17w1rGseJvFX/CP2OlvBbwW1lax3+qahPJ2jtZJoP3caI5d/M/udPMrubn9kBNB8QeILjVPEnk+C9E0W18Q/wBt22nfaLi8tb7Z9hSO1kkT9/Jv/wBXJJsTy3/edd9X9lf4TeHfGdzq3iLxLf8Ah+ax8PlPsvh678RWOkXGvzdfL8yd49kEf8b/AOs/gTn/AFfcHxjqnxIt/iv4X8W614PsfE3jSx06/wBIeHXrL+x4/sM/yWKTxzSW8H7j5ER3/g+f79RWlPn/AHf9f1uOPJy2kcNqX7Mug+HNX+2ah48tIfB9xoCa7p2pLZR/2hqkcj+R5EFlJN888c6SRvH9o8tPL37+awPit8B38Gaj4UbQby48TaX44so7vRH+xfZ7y4+fyHgkg3yFJN8ciYjkfzPSvZZfh/4V+JOseC/CureMPC8mlfC/wt/xNPK1+xtP7Yu57qSf7Da3U0iW8n30jknEnlp8/wDsVjax+0Fc/DP43/8ACSeIvDuh3Vvb6JJpHhex8LeK7C4j8LQfcR0ngN3H5kaO4/eR/wCsk3981n7epzf15lci5dP62POf2mv2dLj9mLxZoej3upW+qX2qaJBq032ZP3dk8jSRyQb9/wC88vZ/rK83PFe+/ta6p4b+KE/w1tvCTJHPp/gm0juXv/Etq8dts89/srvsgTz4/wB5/wBdN6eWkf8Ay08CPXtnvj/P6VtQlKUffM6nJ9kKKKK6jH1CiiigAooooAKKKKACiiigAooooAKKKKACiiigAooooAKKKKACiiigAooooAKKKKACiiigAooooAKKKKACiiigAooooAKKKKACiiigAooooAKKKKACiiigAooooAKKKKACiiigAooooAKKKKACiiigAooooAKKKKcdwCum+C3/ACWTwj/2G7L/ANKErma6b4Lf8lk8I/8AYbsv/ShKxxHwSKp/EczRnA9h1oorVbBLcn0rT5NY1G3t4mt0kuHjjR5pkgiy4/jd/kT/AK6SV6Td/sheNLDw7b6rPJ4KXSb13jgvD420P7PcOn30ST7V88ke9Pb95Xlzf0r2X4h/8mPfDf1/4SXXPw+SwrGopv4S6esuXyuebeNPh9rHw+k0qPWbM2v9safBqtl++jk32k/3JP3eBW/rX7MvjnQrfxVJdaDcKnguO1k1vZcQyHT0uk8yB/3b/vPk/wCef+rx89dl+1bpl54nHwlubCzvLq31PwPpdhZPDD5n2yaAyQPGn99/M/d7K+jNe+IOm+EviP8AHTULzy5tHj17wtourpjfH5P2We0uk9v4x+FYVMRLkuvX8Ujb2cfh/ra58kfAvSvHej2XiDxn4NhkjtPC9l/xN7p44JLeOCfEeyRJv3c8cnPybJP15xPiN8Xte+KraautXVv9l0hHgsrOzsobCzsjJJ5j+XBBHHGnmOPnfy/3g9K+qP8AhCH+AfwW+Jvw0k8oahpfhG61bWJIz9+efUbRIP8AyUhgf/t4kr4x74PPbHbPp+lFGUakuZkzjyxv/XQ9B8IfsveNvGejabeWum2lrHrr+XpaalrFjplxqn/XpDNOkk/39n7uOQ+YPL7Vnf8ACJeMPC/wv8QXDWdxY+H/AO14dK1hJfLjkjvkjkkSF0f95/fr0b9tPQtY8W/tB6NeaNbXl3pPijS9K/4RQ20b/wCkwfZYI0gg/wCmkcm+Py/+eldxr+u+Ifgj+zP8Q4dYvPD/AIu8UW/j+1tL3Ur+GPXrcz/YZPMP+lJJG8nybN8qf3+tN15cvN/W6HGn7/J/W1z5RPP/AOr/ADxV610GbUNHu75Ws/JsJI45EkvoI7h/M7RwO/mSfc/5Z/6v+Ovrb4hfC7Tfhr8QfHniC2tfA/hnwrLPpcAmm8MDXr1Lq6077X9l06yn/wBETzH/AOemzyxjy5OPLre+L/wc8L6P4h8Y7fCuj2Nx9s8ESSQvpEFpJbvdb/tSeT8/kb/47eP93+lH1t7/AOH9CI4fRv5nw6ST/wAC55B5/nXTeOPhLr3w+8PaPqWsW9naQeILVLuxh/tGCS4kgk+dJHhR/MRJOf8AWInXtXYftheKEm/aQ8T6bYaN4b0fS/C+t3Vjp9tpukWtpHGiT+X8+xP3/wBz/lpv7/Wvob4wagninxD4k1640Xw3rOueC/hnpGp6PZvoNqI1eeO0jnu3hRPLmjgST93HJvjjx/q6HVlyxf8AMONLmqSpP+tbHxHQRkf09a+x/C+g6Ofh1/wnOpeD/Cdv4m1D4Zajqslm+iQRWfnwajBBa6klls+zpJJH/cj2SeX6vJXjv7IPhuz+KP7SMOt+JG0q18P+HEn8U6432WOCzjgg/eeX5MCf6uSTy08uOP8A5af6urhiIte99n+v0CVHRcpw/wAZPgX4q+AfiCDSvGGjyaPfXlql3DC86SeZBJ/HvjeT+5XJ/ePHVjjpmvsLxHY237Q/wn03Xr7xV4b8ca14F8apd6p9gguo7dNL1S68zZJ9rgg3+Xd+Z18weXJWNrvw6tfBes/tM6lF4Z0uFPCWsWv9lm50iB7fT/M1T5EjSRCnlyR/8sx8kkef+WfTOnibtKXm/wAv8wlRuly/1v8A5HzN4p8J6l4I8QT6Vq1pcabqVvs862uU8uS2+TzP3if8s6zsY/pX2p+1Jcpp/jP46eMrfQfD+reJPD+taXpFq9zolpPb6XYzxySPdPC6bJpJJI408+eOR/3hqHxn4b0P4cfDvx54qj8GeE7XxHJ4Q8NatJYXOkQTW2j3t1dyRzyJDOnlxiRNj+Xyn7z2rP65aKl6fjqHsf6/A+MaK+wNf8E6JaaffeNrPwz4fuvE1v8ACvS/EkGmppUH9nm6nn+yXd79i2eQPLg/ebPL8vzPn8urXhLQdE/4V/8A8J5qPg/wnH4n1D4Z6jqz2D6LBHZefBqVvb2mopZ7PLjkeP8AuR+XJ5f/AE0etvrfK7/1rf8AyCNG/wDXp/mfGtFfaXgb+x/GHj/4R6ReeD/BH2Xx/wCEL2/17yPDtrby3k6R36I8bpHi1/1Mcn7gx/vKyvh74NsNL+IXwT8E2fg3wzrHhn4gaFBda3c3GlpPd6i8/mR3Tx3uz7RD9kjT/lg6eX5f7z1qVive5f66/wCRP1b3Lr/F+X+Z8hUDivrLwb8ING1n4l/s0WtjoOn6ppuuNPHfP/ZySR6vHBqM+97j/np5cH+s8z+A5qf4aaN4f1mw0rwnYaJoegeJNb1HVILZ/E/gr+0NH8WSPd+QiQahGHu7X7PH/wA8I0jjkj/1idn9bvoX7G/vS8j5M0/T5tZ1C3s7WGSa6uHSKBE6yPIPz/L1ro/jB8GvE3wJ8ZyeH/FulSaPrEcCT+S86SDy5P8AVyRyRu8b9q9J/Yp8D2+mfHDUfE2vXWj2uj/DO1n1W5ubwvJZfak/d2seYEkeT/SJE/1ccn+r9a9fsPhho/7U3h/4V6lrPi7Q/GEnh/xTH4b8SXlh9rt/Msrqfz7XzJJoLeT/AFnnwfJ0Mkf7zpRUr8soslU9Zcx8XEgluB3JB6D/AD6dKvWOgzahpF9eRyWccOnGPz45ryCOR98nl/JG7+Y//bPeY6+qpZfBPjLxLNo1x4V1S91HR/F+l26ND8PbLQbPQo5L7ZJaXTwXT+ekke+OP7Rvk3p/rPv1D4s0Wz+I0Hx90228M+D7SXwvrWm6T4dSz0S1tPsSPqvkf69I45MSR53u8m/mlLFcyj/Xb/McqFubm+z/AMH/ACPk09OPp3JX+vFbHxB+H2sfC7xpfeHtesvsOs6W/kXNtvjk8uTpjzI/3f419ceI/h7pN38K/jFpupWfhDUdY8D6chf/AIR7wSlhp/h6+S9jTyI9UfZdzyeWknmeZG/mf89JMjPkX7aVreX/AO3j4ti03yxqUmtolrvdI4w/yeX88n7v/v5z+mHSxfNUjD+ug5UFGipnJap+yf480bTb66uNKs2n0uy+33umw6xYyapaQfux5k9lHN9rTy/Mj8zfH+7/AOWnSvOR+P8An9Pyr68tZdH+O/7RmpaD4h8I+JPhH8X/ACNVfUdd0XW5Pscl75EjyPPavv8AIt9nmfPbz+WPM7Rv8lXS/BvhXVfgJa/GJdD0M23h/wAIT+Gr2w+wwfZ5Nf3x2kE7p/q5JJILrz/+ulvU/Wp7S/rcXsYXtE+TT0+laPifwlqXgzUY7PVrO4026khS7SGZPLkEcieYj/8AbRH8yvp2/wBH0fxx8L73S/Dej+H/AA3rGi+FINSvtB8VeDUt7vZDB58+pWupp88nmSJ8kd2I45EuPLruPHdpo/jj4s+NPEXiC20qa48IeANE1LS0tvC9jfSR+faWkc919l/cJdRwb35uJNke/wD1f7vy6csVaViY4fm/rtb/ADPhk/55zRX2B4XufBmsWWv+KtN8F/ar6z+Hl9f/AG3W/Btppml6ndQXsCQX1pZJJPbiSPfsfy/3b7PufvJK0PBH9j+MfH/wk0i88H+B/svxA8IX1/rvk+HrS3ku5kjv443jdE/0X/UI/wDo+z95nrTlirR/r+uhpChf+vT/ADPi+g9P5/59a+rvB3hvRPiP8LtK8I6HpWh+G/E1z4U8+TSvFXg3/kOfJcXD6ra6un+kR/u0Hl+Z5cH/ACz/AHnf5RY8/U9Aen0/znk81tRq88pRMJU7Q5mejWH7KnjC/wBE0e+ZPC9jD4gto7rTk1LxZpVhcXEDyeWj+TNdRyf8s643xl4O1H4feJ77RdZs7jTdV0ud4Lq1n/1kcn+RXvvx41/wPpngj4O/8JN4b8T63d/8ITayI1h4hhsLfZ9quP3bo9lPJ/wMPV/xt8af+E8/Zv8AFXxFk8N+E08ReIPHKaSlzdaPBqH2Cy/s7PkJ5yP/AM8I/nrn9tW5v672N/Zw93+ulz5fxtH4c5rpvF/wl17wT4T0fW9UtrO1sfEEHn2KPqMH2y4g/eeXP9m8zz0T5H/eSR+XX094y8EaVF8YPiT8PV8GeHLXwP4X8IT6np1/HpcaahAY7WOeC++2+X58nmXH7vZI/l/OI684/bw8Y3nie4+GKXEOlp/xQ+lXWbPS7WzzI6fvP9QifJ8n7uP/AFcfWOqliuZxt/W/+QvYLp/W3+Z5J8M/hV4g+MviGfSvDWmyaxqNvbT38ltC6eZ5cf8ArNgk+/0/1Z/efnUnwu+EHiT41eMI9B8L6Vcapq0qPOYkeNPLSMfO8jyfIhr0r9g/WbjQfiB4wv7OZ7e6s/BWrzwzIPuOkHyf5+tfRHwH0Gw+HPx40bxDY20drH8adR+36fAY8/Z9O+wyXd1Gn/TL7XNHH/26U8ViZwdv7oqOH5oHwOOf6+3Hv7fzrQ8JeGNQ8b+J9N0XTIftWo6xdR2lrF5iR753k2Im+T/PNfXX7JXw4t7XVvhdoPiKz8F3ieMNl/Bo9n4KTWtQ1Sykkn3z317dH/RUj2f8ukj7B84j/vw+Hhp/w+8Q/s76Toug+H7X+3PE8/8AaN//AGZA+oXCQa/sg/0qRPMTy40H+rfEmPn5p/WZe09n6ErDrluz5F1jRrrQNZurC+Tybqyne3nTf/q5I/8AWVV6V903fw58Mf8ADQ/w1ttB0Xw/4g8AeJPEt9b6zqep6VDPqGoaxHJIJLWd3jfyI/uPBBH/AKyOTzH3ydfL/gR8OdO0/wCB1rrGveA7zxMYviba2D2dtp/maheQR2k7z2qfxv8A8sz5f0rKjjeaLciqtG0lGPX/AIP+R8zDr/8Ar5ruvCX7Ofijxl4LtfENunh+10e8ne0gudV8S6dpn2iSPy/MREupo5JPL3p7/rXf/tLaDZ+J/g9o/izRLzwfqWj2+qSaY89t4Tj8NaxbXbp5n2WeCD/RJo440+/HI7/vK0dOv/Bdr+xv8No/Gmm+KL6wk8Uax82h6pBaSQJssN7hJoH8/wD3Pk/DGK3+sSlC4Kjd8p4n8Rvhhr3wk1uCx16z+yzXFtHd2rpPHcW97A/+rngnjd43Q/30eo/C/wAPdY8baXrl5pdn9qtfDdl9u1KTz0j+zwb44/M+f/WfvHT/AFdfWniPQNN1D4+aV8MbzTtHuPBfiDwS+k+ANTGy8kJn8ye1vvOdEk8+SffHIY408vzPL/66UdX0HTfAGlfFTwbptjY2k3g/4Z2un6pNDCiSXmoyX1pcXTu//LTy5JNn/bM1z/W3yGjo2k/l+h8teP8A4f6x8KvGV1oWvWf2HVrMx+fD56SeXvRJEG9Pk/1bpWIOle0f8FBD/wAZceJv+uGndOh/0KDtXi5rroy5oqRz1P4gUUUVqZhRRRQAUUUUAFFFFABRRRQAUUUUAFFFFABRRRQAUUUUAFFFFABRRRTjuAV03wW/5LJ4R/7Ddl/6UJXM103wW/5LJ4R/7Ddl/wClCVjiPgkVT+I5miiitVsEtw7f19KvXniO+u9EtdNmv7x9Os5HntbOSd/s9u8n+sdE/wCWfmbE+nl1RoqdR6nUeCPjn43+Gejyaf4d8YeKfD9jcP58ltp2pzWccj/39iPWJaeI9SsNHv7CPULy3sdQdJLq3jnk+zXjp/qy6fx+XvfrzmqVFHsw1Ny7+IviK/vdSuJ9e1ia41iFLPUJnvXeTUIY/L8uOf8Avp8kf+t/55x1N8UfiBN8UfFEGpTRyRyW+n2NiN0/2iSTyLWOAPv/AOmmzzMfSudoo9mh6nUeEfjn42+Hvh+TS9B8YeKND0q4d5Hs7DVJ7e3kd+X+SN/1rFi8R30WgPpa395/Zck/2p7Pzn+zyz7PL37AfL8zy/46o0UezgGp1mgfHfx14X1i61LTfGnizTtS1BI4Lq6tdXmS4uURPLjjd0f955f61Vv/AIv+LNUj23XibxBPH+4T59Qnkz5H+o/j/wCWe9/L/wCeePaudoo9nDoF2WtZ1i813VLq/v7q4vr68keaa5uJPMkuZJPvyO+fn/GtK0+KHiWx8T2muW/iLXINY0+GOC1v11CSO4t4402JGj7/ADI08v5Oaw6KLXDma1Rv6r8VfE+v6xqWpah4k8QX2paxafZNRupdQne4v4P3fyO+/EkfyJ+7k/55+1ZmmeKNR0bSr6zs77ULSx1RES+hgneOO8SN/MjR0/5afPVOij2cOovaTLujeJ9S8NwX0NhqWoafb6pB9kvktpnjjvYMfck/vx9P3dbniP45eNvF2hf2Tq3jDxRqmn+T9n+x3usTz24T93J5ex3/ANX8icH+5XLUUezgPU6u1+PHjq18SQaxF4z8WJrNnbfYIL5dXn+0W9r/AM8EffvEf/TPr0rMvfiD4g1g6x9q1rV7r/hIJI31QzXzyf2o8b70M/Pz/vM/6yseij2cAuzasPij4k0zXNN1O18Qa5a6lo8H2XTryK+eO406H/nnA+/5E+d/kj/56VJqvxV8Ta9q+palf+JPEF9qGsWv2PUbmbUJpLjUIPk+R33/ALyP5E/dyf8APM1g0UezgF2blp8RvENhe6bcw69rEE+jwPaadOl7IkmnQPv3onPyR/PJ8if89HqbRvi94u8OeDrrw7pvibxDpugahv8AtWmWuoTJZ3G/924eFH8uT8a52ij2cAu+h03hL43eNPAehf2bofi7xRo+nef9q+x6fqk9vb+f/f2I/wB/5I/++KfoPxz8a+F9DutK0vxh4o03Tr+R5LmyttXnt4Lh3Pz740f955n+PtXLUUezh0J9pNl2w8T6lpeh32mW9/qEOn6pJG97ZpO8dveeX/q96f8ALTy+maSw8Vajo2kX1jZ6jqFrY6psjvbaKZ0jvPLfzE8xP4/Lf+dU6KLXHqdZ4j+O/jnxnFYx6x408WapHpkyXdkb3WJ7j7HMn3JE3v8AJJ7Vjy+ONclj1VW1fVHTxA/mapG90+dQk8zzN8/Pz/vPn/eVl0Uezh1C7Ow1j9obx94j077DqPjnxhfWv2V7PybnW55I/If/AFieW7/6v5E+Qf8APOud17xHfeLtXuNS1S/vNQ1K+ffPc3k7z3FxJ6u7n0qjRR7OAvaM6m++PHjrWvBf/CN3fjLxbdeHVhjg/sqbV5pLPYn+rj8jfs2R7K0tZ+MyTfAjTvAemWFxY2P9qf23qk0179o/tC68nyE2R7I9iRx+Z8n7z/Wf6yuEoo9nAPaTOmuvjT4wvvAqeGLjxb4om8ORokaaU+qzSafsj+dP3O/y6Lb40+MLTUdHuofFviSO68NQ/Z9HmTVJ9+lx+X5YSH58xx+X/wA8+nFczRR7OA7yR0WsfF7xd4n1i+v9Q8UeINSvtTtfsN7c3OoTySXlr/zxkd3/AHifIf3dQ23xG8QWF5p1xBr2sW82jwPZ6fNHfPHJp8D798cZz8kfzudkf/PR6w6KPZwF7SZ01r8avGGn+CJPDNv4t8SQeHZI3STSo9Unj0/ZJJ5j4g37Pv8Ab61H8QPiNN8QLbw7DMskcfhvSE0mHdO9xI8aPI//ALP9z/lnGa52ijlgtUPUva14k1DXY7FdQv7y9XT4fstqlzM8nkQ/880/uR/P9ykHiLUhoH9ji/vP7KF19rFp58nkGfy9m/y/ueZ5f/LSqVFAanRXHxf8WX3gePwxceJ/EE/hy3GE0ttRmk06P955n+o3+X/rBUH/AAsbxD1/t7WMyaf/AGR/x/PxZf8APp/1wH/PP/V1iUUeziPUu6L4kv8Aw7JNJpt9eaa15A9pM9tM6efBJ/rEkKfwSf3Kv2HxH8Q6XcaVNa67rEM+hxvHpzRXzpJp0b/6yOD+5ne/3P8AnpWHRRa4XZ1Xhz45eNvCXhyPR9H8YeKdK0a3k+0JYWmrz29uj79+/wAtH2f6z95+FULr4meIb/UdNvJde1y4utHneeyma9fzLN3fz5HR/wDlnJ5n7z/rpisSij2cOoXZt2fxL8Q6fpt1aw67q8NreXsd/PDHev5dzdR/6uZ0/jf/AG/atLxH8efHPjN7d9W8Z+LNWkt5o7uBrzWJ59kycI6b3/1ieY//AH8+tclRR7OHQLs3/Hfxa8VfFWS0fxR4k8QeI5LPf9m/tbUZ7ryN/wB/Z5j/ALv/AOtWdd+I9Qu9EtNOlvr2TTbN3ntbN5n8i3d/9Y6R8+X5hSPp/cqjRR7JBdnffCj45zeCfFfhnUNe/tzxNp3hCb7XomlNq7wW9nPvjk43o/7vzI/nSPy/M/56c1zuq/EzXta1zxBqcuq6gl14oeSTVPJnkj+3738yRHKcPH5nz7Kw6KPZw+In2xd8R+I9S8WaxJfaxfXupX1x5Ye6u53uJJNieWnzv/sdqpUUVSfYlhRRRQAUUUUAFFFFABRRRQAUUUUAFFFFABRRRQAUUUUAFFFFABRRRQAUUUU47gFdN8Fv+SyeEf8AsN2X/pQlczXTfBb/AJLJ4R/7Ddl/6UJWOI+CRVP4jmaKP8c0VqtgluFFFFBIUUUUAFFFFABRRRQAUUUUAFFFFABRRRQAUUUUAFFFFABRRRQAUUUUAFFFFABRRRQAUUUUAFFFFABRRRQAUUUUAFFFFABRRRQAUUUUAFFFFABRRRQAUUUUAFFFFABRRRQAUUUUAFFFFABRRRQAUUUUAFFFFABRRRQAUUUUAFFFFABRRRQAUUUUAFFFFABRRRQAUUUU47gFdN8Fv+SyeEf+w3Zf+lCVzNdN8Fv+SyeEf+w3Zf8ApQlY4j4JFU/iOZooorVbBLcKKKKCQooooAKKKKACiiigAooooAKKKKACiiigAooooAKKKKACiiigAooooAKKKKACiiigAooooAKKKKACiiigAooooAKKKKACiiigAooooAKKKKACiiigAooooAKKKKACiiigAooooAKKKKACiiigAooooAKKKKACiiigAooooAKKKKACiiigAooooAKKKKACiiigAooopx3AK6b4Lf8AJZPCP/Ybsv8A0oSuZrpvgt/yWTwj/wBhuy/9KErHEfBIqn8R/9k=;" vertex="1" parent="WIyWlLk6GJQsqaUBKTNV-1">
          <mxGeometry x="190" y="-120" width="180" height="322.87" as="geometry" />
        </mxCell>
      </root>
    </mxGraphModel>
  </diagram>
</mxfile>
